M48
; DRILL file {KiCad (6.0.7)} date Thu Nov 10 16:48:43 2022
; FORMAT={-:-/ absolute / metric / decimal}
; #@! TF.CreationDate,2022-11-10T16:48:43-05:00
; #@! TF.GenerationSoftware,Kicad,Pcbnew,(6.0.7)
; #@! TF.FileFunction,Plated,1,4,PTH
FMAT,2
METRIC
; #@! TA.AperFunction,Plated,PTH,ComponentDrill
T1C0.381
; #@! TA.AperFunction,Plated,PTH,ViaDrill
T2C0.400
; #@! TA.AperFunction,Plated,PTH,ComponentDrill
T3C0.500
; #@! TA.AperFunction,Plated,PTH,ComponentDrill
T4C0.600
; #@! TA.AperFunction,Plated,PTH,ComponentDrill
T5C0.650
; #@! TA.AperFunction,Plated,PTH,ComponentDrill
T6C0.750
; #@! TA.AperFunction,Plated,PTH,ComponentDrill
T7C0.800
; #@! TA.AperFunction,Plated,PTH,ComponentDrill
T8C0.900
; #@! TA.AperFunction,Plated,PTH,ComponentDrill
T9C1.000
; #@! TA.AperFunction,Plated,PTH,ComponentDrill
T10C1.300
; #@! TA.AperFunction,Plated,PTH,ComponentDrill
T11C2.200
; #@! TA.AperFunction,Plated,PTH,ComponentDrill
T12C3.200
%
G90
G05
T1
X191.663Y-128.872
X191.663Y-129.921
X191.663Y-131.031
X192.552Y-128.872
X192.569Y-129.921
X192.569Y-131.031
X193.441Y-128.872
X193.441Y-129.921
X193.441Y-131.031
T2
X184.822Y-148.86
X184.949Y-151.908
X184.949Y-154.194
X184.949Y-156.48
X184.949Y-161.687
X185.076Y-127.016
X185.076Y-129.429
X185.076Y-131.588
X185.076Y-133.747
X185.076Y-135.906
X185.076Y-137.938
X185.965Y-148.86
X186.219Y-165.014
X186.219Y-171.39
X187.108Y-148.86
X188.251Y-148.86
X188.251Y-151.908
X188.251Y-154.956
X188.251Y-157.775
X188.251Y-159.147
X188.251Y-161.662
X188.759Y-156.48
X189.521Y-161.687
X189.521Y-162.703
X190.283Y-147.717
X191.426Y-147.717
X191.934Y-158.512
X192.696Y-147.717
X192.95Y-174.069
X193.331Y-158.512
X193.458Y-118.507
X193.458Y-120.666
X193.458Y-122.952
X194.214Y-164.983
X194.22Y-161.814
X194.22Y-163.719
X194.22Y-166.513
X194.22Y-168.672
X194.22Y-170.831
X194.22Y-172.228
X194.372Y-134.89
X194.601Y-139.589
X194.601Y-140.605
X194.601Y-141.748
X194.601Y-154.448
X194.601Y-157.369
X194.601Y-158.512
X195.185Y-135.982
X195.211Y-133.747
X195.998Y-161.992
X196.506Y-143.78
X196.633Y-137.049
X196.658Y-132.604
X196.684Y-134.89
X196.836Y-130.572
X197.014Y-125.746
X197.039Y-124.349
X197.649Y-144.542
X198.005Y-176.241
X198.563Y-164.583
X198.665Y-148.352
X198.69Y-162.17
X198.738Y-170.323
X198.767Y-168.037
X198.792Y-122.927
X198.817Y-119.828
X198.817Y-120.996
X198.868Y-118.456
X199.071Y-145.558
X199.427Y-156.48
X199.681Y-173.549
X202.094Y-125.746
X202.094Y-128.032
X202.094Y-130.318
X202.094Y-132.604
X202.094Y-134.382
X203.567Y-164.532
X203.567Y-167.021
X203.567Y-170.653
X204.71Y-118.482
X204.837Y-120.844
X204.837Y-122.165
X204.863Y-123.943
X205.828Y-113.91
X205.853Y-115.103
X205.853Y-116.272
X205.879Y-117.364
X205.879Y-118.482
X206.031Y-144.923
X207.403Y-141.367
X209.46Y-150.765
X210.73Y-118.507
X210.73Y-120.666
X210.857Y-113.935
X210.857Y-116.221
X212.36Y-124.497
X212.457Y-173.701
X212.889Y-147.082
X213.016Y-163.008
X214.311Y-155.235
X214.515Y-165.04
X214.515Y-167.3
X214.515Y-169.637
X216.293Y-162.22
X216.445Y-155.21
X217.537Y-115.078
X217.613Y-133.874
X217.613Y-136.16
X217.639Y-138.446
X218.02Y-140.605
X218.756Y-174.539
X219.442Y-167.351
X219.442Y-169.536
X219.747Y-168.418
X219.874Y-124.603
X220.255Y-151.146
X220.788Y-168.418
X222.439Y-168.494
X222.998Y-137.278
X222.998Y-140.605
X223.024Y-132.858
X223.024Y-135.017
X223.836Y-167.478
X224.192Y-118.634
X225.411Y-161.014
X227.138Y-150.003
X227.138Y-152.213
X228.129Y-118.634
X228.129Y-124.603
X228.18Y-162.322
X228.18Y-164.481
X229.221Y-147.412
X229.678Y-168.24
X229.78Y-143.653
X230.288Y-145.812
X230.415Y-141.494
X231.456Y-154.677
X231.456Y-155.642
X231.482Y-156.81
X231.939Y-132.414
X232.117Y-138.294
X232.117Y-140.376
X232.295Y-118.101
X232.574Y-163.465
X232.574Y-165.497
X232.828Y-125.111
X232.853Y-148.911
X232.853Y-151.019
X232.853Y-153.153
X233.463Y-133.075
X233.463Y-164.735
X233.768Y-161.535
X234.174Y-168.215
X234.479Y-164.735
X235.622Y-164.735
X236.638Y-115.154
X236.638Y-164.735
X237.019Y-118.634
X237.019Y-124.603
X237.679Y-134.992
X239.051Y-125.111
X239.305Y-166.259
X239.813Y-164.735
X241.439Y-138.776
X243.496Y-163.973
X244.258Y-136.16
X244.385Y-140.859
X246.798Y-133.264
X246.849Y-113.529
X246.925Y-161.179
X247.433Y-145.431
X247.433Y-146.701
X247.433Y-147.971
X247.433Y-149.368
X247.433Y-150.638
X247.433Y-151.908
X247.433Y-153.178
X247.814Y-155.464
X247.814Y-157.496
X247.941Y-140.224
X247.941Y-141.875
X248.271Y-164.786
X248.449Y-161.179
X248.678Y-133.264
X250.659Y-144.948
X250.862Y-133.264
X254.291Y-155.083
X254.291Y-156.353
X255.053Y-133.747
X255.053Y-136.16
X255.434Y-160.163
T3
X251.6Y-168.148
X252.303Y-166.451
X252.303Y-169.845
X254.0Y-165.748
X254.0Y-170.548
X255.697Y-166.451
X255.697Y-169.845
X256.4Y-168.148
T6
X189.648Y-120.92
X189.648Y-122.92
X205.756Y-173.318
X207.756Y-173.318
T7
X230.704Y-170.615
X230.704Y-178.236
X238.325Y-170.615
X238.325Y-178.236
X243.404Y-170.615
X243.404Y-178.236
X248.484Y-170.615
X248.484Y-178.236
T8
X243.835Y-118.11
X246.375Y-118.11
T9
X199.426Y-108.637
X203.926Y-108.637
X214.026Y-127.81
X216.566Y-127.81
X217.783Y-177.292
X217.968Y-108.637
X219.106Y-127.81
X220.323Y-177.292
X221.646Y-127.81
X222.468Y-108.637
X222.863Y-177.292
X224.186Y-127.81
X226.726Y-127.81
X236.764Y-108.637
X241.264Y-108.637
X252.137Y-141.291
X254.677Y-141.291
X255.434Y-121.621
X255.434Y-124.161
X255.434Y-126.701
X255.434Y-129.241
T10
X198.176Y-111.137
X205.176Y-111.137
X216.718Y-111.137
X223.718Y-111.137
X235.514Y-111.137
X242.514Y-111.137
T11
X205.359Y-128.667
X205.359Y-157.242
X235.749Y-128.667
X235.749Y-157.242
T12
X254.0Y-168.148
T4
G00X184.61Y-163.975
M15
G01X183.91Y-163.975
M16
G05
G00X184.61Y-172.325
M15
G01X183.91Y-172.325
M16
G05
T5
G00X187.36Y-165.925
M15
G01X187.16Y-165.925
M16
G05
G00X187.36Y-170.375
M15
G01X187.16Y-170.375
M16
G05
T0
M30
