%TF.GenerationSoftware,KiCad,Pcbnew,(6.0.7)*%
%TF.CreationDate,2022-11-10T16:48:49-05:00*%
%TF.ProjectId,_HW_HandyRadio_,5f48575f-4861-46e6-9479-526164696f5f,rev?*%
%TF.SameCoordinates,Original*%
%TF.FileFunction,Drillmap*%
%TF.FilePolarity,Positive*%
%FSLAX45Y45*%
G04 Gerber Fmt 4.5, Leading zero omitted, Abs format (unit mm)*
G04 Created by KiCad (PCBNEW (6.0.7)) date 2022-11-10 16:48:49*
%MOMM*%
%LPD*%
G01*
G04 APERTURE LIST*
%ADD10C,0.254000*%
%ADD11C,0.200000*%
%ADD12C,0.038100*%
%ADD13C,0.040000*%
%ADD14C,0.050000*%
%ADD15C,0.060000*%
%ADD16C,0.065000*%
%ADD17C,0.075000*%
%ADD18C,0.080000*%
%ADD19C,0.090000*%
%ADD20C,0.100000*%
%ADD21C,0.130000*%
%ADD22C,0.220000*%
%ADD23C,0.320000*%
G04 APERTURE END LIST*
D10*
X25783720Y-17657518D02*
X25781298Y-10923600D01*
X25410289Y-18034822D02*
X18670045Y-18038140D01*
X18672729Y-10542701D02*
G75*
G03*
X18291700Y-10922853I-769J-380259D01*
G01*
X18278885Y-17646977D02*
X18280980Y-17190030D01*
X25781295Y-10923600D02*
G75*
G03*
X25403700Y-10542600I-380965J50D01*
G01*
X18278890Y-17646977D02*
G75*
G03*
X18670045Y-18038140I390480J-683D01*
G01*
X25410289Y-18034820D02*
G75*
G03*
X25783720Y-17657518I-949J374390D01*
G01*
X18280980Y-16440030D02*
X18291700Y-10922853D01*
X18672729Y-10542708D02*
X25403700Y-10542600D01*
D11*
D12*
X19147250Y-12868150D02*
X19185350Y-12906250D01*
X19185350Y-12868150D02*
X19147250Y-12906250D01*
X19147250Y-12973050D02*
X19185350Y-13011150D01*
X19185350Y-12973050D02*
X19147250Y-13011150D01*
X19147250Y-13084050D02*
X19185350Y-13122150D01*
X19185350Y-13084050D02*
X19147250Y-13122150D01*
X19236150Y-12868150D02*
X19274250Y-12906250D01*
X19274250Y-12868150D02*
X19236150Y-12906250D01*
X19237850Y-12973050D02*
X19275950Y-13011150D01*
X19275950Y-12973050D02*
X19237850Y-13011150D01*
X19237850Y-13084050D02*
X19275950Y-13122150D01*
X19275950Y-13084050D02*
X19237850Y-13122150D01*
X19325050Y-12868150D02*
X19363150Y-12906250D01*
X19363150Y-12868150D02*
X19325050Y-12906250D01*
X19325050Y-12973050D02*
X19363150Y-13011150D01*
X19363150Y-12973050D02*
X19325050Y-13011150D01*
X19325050Y-13084050D02*
X19363150Y-13122150D01*
X19363150Y-13084050D02*
X19325050Y-13122150D01*
D13*
X18502200Y-14886000D02*
G75*
G03*
X18502200Y-14886000I-20000J0D01*
G01*
X18514900Y-15190800D02*
G75*
G03*
X18514900Y-15190800I-20000J0D01*
G01*
X18514900Y-15419400D02*
G75*
G03*
X18514900Y-15419400I-20000J0D01*
G01*
X18514900Y-15648000D02*
G75*
G03*
X18514900Y-15648000I-20000J0D01*
G01*
X18514900Y-16168700D02*
G75*
G03*
X18514900Y-16168700I-20000J0D01*
G01*
X18527600Y-12701600D02*
G75*
G03*
X18527600Y-12701600I-20000J0D01*
G01*
X18527600Y-12942900D02*
G75*
G03*
X18527600Y-12942900I-20000J0D01*
G01*
X18527600Y-13158800D02*
G75*
G03*
X18527600Y-13158800I-20000J0D01*
G01*
X18527600Y-13374700D02*
G75*
G03*
X18527600Y-13374700I-20000J0D01*
G01*
X18527600Y-13590600D02*
G75*
G03*
X18527600Y-13590600I-20000J0D01*
G01*
X18527600Y-13793800D02*
G75*
G03*
X18527600Y-13793800I-20000J0D01*
G01*
X18616500Y-14886000D02*
G75*
G03*
X18616500Y-14886000I-20000J0D01*
G01*
X18641900Y-16501440D02*
G75*
G03*
X18641900Y-16501440I-20000J0D01*
G01*
X18641900Y-17138980D02*
G75*
G03*
X18641900Y-17138980I-20000J0D01*
G01*
X18730800Y-14886000D02*
G75*
G03*
X18730800Y-14886000I-20000J0D01*
G01*
X18845100Y-14886000D02*
G75*
G03*
X18845100Y-14886000I-20000J0D01*
G01*
X18845100Y-15190800D02*
G75*
G03*
X18845100Y-15190800I-20000J0D01*
G01*
X18845100Y-15495600D02*
G75*
G03*
X18845100Y-15495600I-20000J0D01*
G01*
X18845100Y-15777540D02*
G75*
G03*
X18845100Y-15777540I-20000J0D01*
G01*
X18845100Y-15914700D02*
G75*
G03*
X18845100Y-15914700I-20000J0D01*
G01*
X18845100Y-16166160D02*
G75*
G03*
X18845100Y-16166160I-20000J0D01*
G01*
X18895900Y-15648000D02*
G75*
G03*
X18895900Y-15648000I-20000J0D01*
G01*
X18972100Y-16168700D02*
G75*
G03*
X18972100Y-16168700I-20000J0D01*
G01*
X18972100Y-16270300D02*
G75*
G03*
X18972100Y-16270300I-20000J0D01*
G01*
X19048300Y-14771700D02*
G75*
G03*
X19048300Y-14771700I-20000J0D01*
G01*
X19162600Y-14771700D02*
G75*
G03*
X19162600Y-14771700I-20000J0D01*
G01*
X19213400Y-15851200D02*
G75*
G03*
X19213400Y-15851200I-20000J0D01*
G01*
X19289600Y-14771700D02*
G75*
G03*
X19289600Y-14771700I-20000J0D01*
G01*
X19315000Y-17406890D02*
G75*
G03*
X19315000Y-17406890I-20000J0D01*
G01*
X19353100Y-15851200D02*
G75*
G03*
X19353100Y-15851200I-20000J0D01*
G01*
X19365800Y-11850700D02*
G75*
G03*
X19365800Y-11850700I-20000J0D01*
G01*
X19365800Y-12066600D02*
G75*
G03*
X19365800Y-12066600I-20000J0D01*
G01*
X19365800Y-12295200D02*
G75*
G03*
X19365800Y-12295200I-20000J0D01*
G01*
X19441450Y-16498350D02*
G75*
G03*
X19441450Y-16498350I-20000J0D01*
G01*
X19442000Y-16181400D02*
G75*
G03*
X19442000Y-16181400I-20000J0D01*
G01*
X19442000Y-16371900D02*
G75*
G03*
X19442000Y-16371900I-20000J0D01*
G01*
X19442000Y-16651300D02*
G75*
G03*
X19442000Y-16651300I-20000J0D01*
G01*
X19442000Y-16867200D02*
G75*
G03*
X19442000Y-16867200I-20000J0D01*
G01*
X19442000Y-17083100D02*
G75*
G03*
X19442000Y-17083100I-20000J0D01*
G01*
X19442000Y-17222800D02*
G75*
G03*
X19442000Y-17222800I-20000J0D01*
G01*
X19457240Y-13489000D02*
G75*
G03*
X19457240Y-13489000I-20000J0D01*
G01*
X19480100Y-13958900D02*
G75*
G03*
X19480100Y-13958900I-20000J0D01*
G01*
X19480100Y-14060500D02*
G75*
G03*
X19480100Y-14060500I-20000J0D01*
G01*
X19480100Y-14174800D02*
G75*
G03*
X19480100Y-14174800I-20000J0D01*
G01*
X19480100Y-15444800D02*
G75*
G03*
X19480100Y-15444800I-20000J0D01*
G01*
X19480100Y-15736900D02*
G75*
G03*
X19480100Y-15736900I-20000J0D01*
G01*
X19480100Y-15851200D02*
G75*
G03*
X19480100Y-15851200I-20000J0D01*
G01*
X19538520Y-13598220D02*
G75*
G03*
X19538520Y-13598220I-20000J0D01*
G01*
X19541060Y-13374700D02*
G75*
G03*
X19541060Y-13374700I-20000J0D01*
G01*
X19619800Y-16199180D02*
G75*
G03*
X19619800Y-16199180I-20000J0D01*
G01*
X19670600Y-14378000D02*
G75*
G03*
X19670600Y-14378000I-20000J0D01*
G01*
X19683300Y-13704900D02*
G75*
G03*
X19683300Y-13704900I-20000J0D01*
G01*
X19685840Y-13260400D02*
G75*
G03*
X19685840Y-13260400I-20000J0D01*
G01*
X19688380Y-13489000D02*
G75*
G03*
X19688380Y-13489000I-20000J0D01*
G01*
X19703620Y-13057200D02*
G75*
G03*
X19703620Y-13057200I-20000J0D01*
G01*
X19721400Y-12574600D02*
G75*
G03*
X19721400Y-12574600I-20000J0D01*
G01*
X19723940Y-12434900D02*
G75*
G03*
X19723940Y-12434900I-20000J0D01*
G01*
X19784900Y-14454200D02*
G75*
G03*
X19784900Y-14454200I-20000J0D01*
G01*
X19820460Y-17624120D02*
G75*
G03*
X19820460Y-17624120I-20000J0D01*
G01*
X19876340Y-16458260D02*
G75*
G03*
X19876340Y-16458260I-20000J0D01*
G01*
X19886500Y-14835200D02*
G75*
G03*
X19886500Y-14835200I-20000J0D01*
G01*
X19889040Y-16216960D02*
G75*
G03*
X19889040Y-16216960I-20000J0D01*
G01*
X19893850Y-17032300D02*
G75*
G03*
X19893850Y-17032300I-20000J0D01*
G01*
X19896660Y-16803700D02*
G75*
G03*
X19896660Y-16803700I-20000J0D01*
G01*
X19899200Y-12292660D02*
G75*
G03*
X19899200Y-12292660I-20000J0D01*
G01*
X19901740Y-11982780D02*
G75*
G03*
X19901740Y-11982780I-20000J0D01*
G01*
X19901740Y-12099620D02*
G75*
G03*
X19901740Y-12099620I-20000J0D01*
G01*
X19906820Y-11845620D02*
G75*
G03*
X19906820Y-11845620I-20000J0D01*
G01*
X19927140Y-14555800D02*
G75*
G03*
X19927140Y-14555800I-20000J0D01*
G01*
X19962700Y-15648000D02*
G75*
G03*
X19962700Y-15648000I-20000J0D01*
G01*
X19988100Y-17354880D02*
G75*
G03*
X19988100Y-17354880I-20000J0D01*
G01*
X20229400Y-12574600D02*
G75*
G03*
X20229400Y-12574600I-20000J0D01*
G01*
X20229400Y-12803200D02*
G75*
G03*
X20229400Y-12803200I-20000J0D01*
G01*
X20229400Y-13031800D02*
G75*
G03*
X20229400Y-13031800I-20000J0D01*
G01*
X20229400Y-13260400D02*
G75*
G03*
X20229400Y-13260400I-20000J0D01*
G01*
X20229400Y-13438200D02*
G75*
G03*
X20229400Y-13438200I-20000J0D01*
G01*
X20376720Y-16453180D02*
G75*
G03*
X20376720Y-16453180I-20000J0D01*
G01*
X20376720Y-16702100D02*
G75*
G03*
X20376720Y-16702100I-20000J0D01*
G01*
X20376720Y-17065320D02*
G75*
G03*
X20376720Y-17065320I-20000J0D01*
G01*
X20491020Y-11848160D02*
G75*
G03*
X20491020Y-11848160I-20000J0D01*
G01*
X20503720Y-12084380D02*
G75*
G03*
X20503720Y-12084380I-20000J0D01*
G01*
X20503720Y-12216460D02*
G75*
G03*
X20503720Y-12216460I-20000J0D01*
G01*
X20506260Y-12394260D02*
G75*
G03*
X20506260Y-12394260I-20000J0D01*
G01*
X20602780Y-11390960D02*
G75*
G03*
X20602780Y-11390960I-20000J0D01*
G01*
X20605320Y-11510340D02*
G75*
G03*
X20605320Y-11510340I-20000J0D01*
G01*
X20605320Y-11627180D02*
G75*
G03*
X20605320Y-11627180I-20000J0D01*
G01*
X20607860Y-11736400D02*
G75*
G03*
X20607860Y-11736400I-20000J0D01*
G01*
X20607860Y-11848160D02*
G75*
G03*
X20607860Y-11848160I-20000J0D01*
G01*
X20623100Y-14492300D02*
G75*
G03*
X20623100Y-14492300I-20000J0D01*
G01*
X20760260Y-14136700D02*
G75*
G03*
X20760260Y-14136700I-20000J0D01*
G01*
X20966000Y-15076500D02*
G75*
G03*
X20966000Y-15076500I-20000J0D01*
G01*
X21093000Y-11850700D02*
G75*
G03*
X21093000Y-11850700I-20000J0D01*
G01*
X21093000Y-12066600D02*
G75*
G03*
X21093000Y-12066600I-20000J0D01*
G01*
X21105700Y-11393500D02*
G75*
G03*
X21105700Y-11393500I-20000J0D01*
G01*
X21105700Y-11622100D02*
G75*
G03*
X21105700Y-11622100I-20000J0D01*
G01*
X21256000Y-12449700D02*
G75*
G03*
X21256000Y-12449700I-20000J0D01*
G01*
X21265720Y-17370120D02*
G75*
G03*
X21265720Y-17370120I-20000J0D01*
G01*
X21308900Y-14708200D02*
G75*
G03*
X21308900Y-14708200I-20000J0D01*
G01*
X21321600Y-16300780D02*
G75*
G03*
X21321600Y-16300780I-20000J0D01*
G01*
X21451140Y-15523540D02*
G75*
G03*
X21451140Y-15523540I-20000J0D01*
G01*
X21471460Y-16503980D02*
G75*
G03*
X21471460Y-16503980I-20000J0D01*
G01*
X21471460Y-16730040D02*
G75*
G03*
X21471460Y-16730040I-20000J0D01*
G01*
X21471460Y-16963720D02*
G75*
G03*
X21471460Y-16963720I-20000J0D01*
G01*
X21649260Y-16222040D02*
G75*
G03*
X21649260Y-16222040I-20000J0D01*
G01*
X21664500Y-15521000D02*
G75*
G03*
X21664500Y-15521000I-20000J0D01*
G01*
X21773720Y-11507800D02*
G75*
G03*
X21773720Y-11507800I-20000J0D01*
G01*
X21781340Y-13387400D02*
G75*
G03*
X21781340Y-13387400I-20000J0D01*
G01*
X21781340Y-13616000D02*
G75*
G03*
X21781340Y-13616000I-20000J0D01*
G01*
X21783880Y-13844600D02*
G75*
G03*
X21783880Y-13844600I-20000J0D01*
G01*
X21821980Y-14060500D02*
G75*
G03*
X21821980Y-14060500I-20000J0D01*
G01*
X21895640Y-17453940D02*
G75*
G03*
X21895640Y-17453940I-20000J0D01*
G01*
X21964220Y-16735120D02*
G75*
G03*
X21964220Y-16735120I-20000J0D01*
G01*
X21964220Y-16953560D02*
G75*
G03*
X21964220Y-16953560I-20000J0D01*
G01*
X21994700Y-16841800D02*
G75*
G03*
X21994700Y-16841800I-20000J0D01*
G01*
X22007400Y-12460300D02*
G75*
G03*
X22007400Y-12460300I-20000J0D01*
G01*
X22045500Y-15114600D02*
G75*
G03*
X22045500Y-15114600I-20000J0D01*
G01*
X22098840Y-16841800D02*
G75*
G03*
X22098840Y-16841800I-20000J0D01*
G01*
X22263940Y-16849420D02*
G75*
G03*
X22263940Y-16849420I-20000J0D01*
G01*
X22319820Y-13727760D02*
G75*
G03*
X22319820Y-13727760I-20000J0D01*
G01*
X22319820Y-14060500D02*
G75*
G03*
X22319820Y-14060500I-20000J0D01*
G01*
X22322360Y-13285800D02*
G75*
G03*
X22322360Y-13285800I-20000J0D01*
G01*
X22322360Y-13501700D02*
G75*
G03*
X22322360Y-13501700I-20000J0D01*
G01*
X22403640Y-16747820D02*
G75*
G03*
X22403640Y-16747820I-20000J0D01*
G01*
X22439200Y-11863400D02*
G75*
G03*
X22439200Y-11863400I-20000J0D01*
G01*
X22561120Y-16101450D02*
G75*
G03*
X22561120Y-16101450I-20000J0D01*
G01*
X22733840Y-15000300D02*
G75*
G03*
X22733840Y-15000300I-20000J0D01*
G01*
X22733840Y-15221280D02*
G75*
G03*
X22733840Y-15221280I-20000J0D01*
G01*
X22832900Y-11863400D02*
G75*
G03*
X22832900Y-11863400I-20000J0D01*
G01*
X22832900Y-12460300D02*
G75*
G03*
X22832900Y-12460300I-20000J0D01*
G01*
X22837980Y-16232200D02*
G75*
G03*
X22837980Y-16232200I-20000J0D01*
G01*
X22837980Y-16448100D02*
G75*
G03*
X22837980Y-16448100I-20000J0D01*
G01*
X22942120Y-14741220D02*
G75*
G03*
X22942120Y-14741220I-20000J0D01*
G01*
X22987840Y-16824020D02*
G75*
G03*
X22987840Y-16824020I-20000J0D01*
G01*
X22998000Y-14365300D02*
G75*
G03*
X22998000Y-14365300I-20000J0D01*
G01*
X23048800Y-14581200D02*
G75*
G03*
X23048800Y-14581200I-20000J0D01*
G01*
X23061500Y-14149400D02*
G75*
G03*
X23061500Y-14149400I-20000J0D01*
G01*
X23165640Y-15467660D02*
G75*
G03*
X23165640Y-15467660I-20000J0D01*
G01*
X23165640Y-15564180D02*
G75*
G03*
X23165640Y-15564180I-20000J0D01*
G01*
X23168180Y-15681020D02*
G75*
G03*
X23168180Y-15681020I-20000J0D01*
G01*
X23213900Y-13241450D02*
G75*
G03*
X23213900Y-13241450I-20000J0D01*
G01*
X23231680Y-13829360D02*
G75*
G03*
X23231680Y-13829360I-20000J0D01*
G01*
X23231680Y-14037640D02*
G75*
G03*
X23231680Y-14037640I-20000J0D01*
G01*
X23249460Y-11810060D02*
G75*
G03*
X23249460Y-11810060I-20000J0D01*
G01*
X23277400Y-16346500D02*
G75*
G03*
X23277400Y-16346500I-20000J0D01*
G01*
X23277400Y-16549700D02*
G75*
G03*
X23277400Y-16549700I-20000J0D01*
G01*
X23302800Y-12511100D02*
G75*
G03*
X23302800Y-12511100I-20000J0D01*
G01*
X23305340Y-14891080D02*
G75*
G03*
X23305340Y-14891080I-20000J0D01*
G01*
X23305340Y-15101900D02*
G75*
G03*
X23305340Y-15101900I-20000J0D01*
G01*
X23305340Y-15315260D02*
G75*
G03*
X23305340Y-15315260I-20000J0D01*
G01*
X23366300Y-13307450D02*
G75*
G03*
X23366300Y-13307450I-20000J0D01*
G01*
X23366300Y-16473500D02*
G75*
G03*
X23366300Y-16473500I-20000J0D01*
G01*
X23396780Y-16153460D02*
G75*
G03*
X23396780Y-16153460I-20000J0D01*
G01*
X23437420Y-16821480D02*
G75*
G03*
X23437420Y-16821480I-20000J0D01*
G01*
X23467900Y-16473500D02*
G75*
G03*
X23467900Y-16473500I-20000J0D01*
G01*
X23582200Y-16473500D02*
G75*
G03*
X23582200Y-16473500I-20000J0D01*
G01*
X23683800Y-11515420D02*
G75*
G03*
X23683800Y-11515420I-20000J0D01*
G01*
X23683800Y-16473500D02*
G75*
G03*
X23683800Y-16473500I-20000J0D01*
G01*
X23721900Y-11863400D02*
G75*
G03*
X23721900Y-11863400I-20000J0D01*
G01*
X23721900Y-12460300D02*
G75*
G03*
X23721900Y-12460300I-20000J0D01*
G01*
X23787940Y-13499160D02*
G75*
G03*
X23787940Y-13499160I-20000J0D01*
G01*
X23925100Y-12511100D02*
G75*
G03*
X23925100Y-12511100I-20000J0D01*
G01*
X23950500Y-16625900D02*
G75*
G03*
X23950500Y-16625900I-20000J0D01*
G01*
X24001300Y-16473500D02*
G75*
G03*
X24001300Y-16473500I-20000J0D01*
G01*
X24163860Y-13877620D02*
G75*
G03*
X24163860Y-13877620I-20000J0D01*
G01*
X24369600Y-16397300D02*
G75*
G03*
X24369600Y-16397300I-20000J0D01*
G01*
X24445800Y-13616000D02*
G75*
G03*
X24445800Y-13616000I-20000J0D01*
G01*
X24458500Y-14085900D02*
G75*
G03*
X24458500Y-14085900I-20000J0D01*
G01*
X24699800Y-13326440D02*
G75*
G03*
X24699800Y-13326440I-20000J0D01*
G01*
X24704880Y-11352860D02*
G75*
G03*
X24704880Y-11352860I-20000J0D01*
G01*
X24712500Y-16117900D02*
G75*
G03*
X24712500Y-16117900I-20000J0D01*
G01*
X24763300Y-14543100D02*
G75*
G03*
X24763300Y-14543100I-20000J0D01*
G01*
X24763300Y-14670100D02*
G75*
G03*
X24763300Y-14670100I-20000J0D01*
G01*
X24763300Y-14797100D02*
G75*
G03*
X24763300Y-14797100I-20000J0D01*
G01*
X24763300Y-14936800D02*
G75*
G03*
X24763300Y-14936800I-20000J0D01*
G01*
X24763300Y-15063800D02*
G75*
G03*
X24763300Y-15063800I-20000J0D01*
G01*
X24763300Y-15190800D02*
G75*
G03*
X24763300Y-15190800I-20000J0D01*
G01*
X24763300Y-15317800D02*
G75*
G03*
X24763300Y-15317800I-20000J0D01*
G01*
X24801400Y-15546400D02*
G75*
G03*
X24801400Y-15546400I-20000J0D01*
G01*
X24801400Y-15749600D02*
G75*
G03*
X24801400Y-15749600I-20000J0D01*
G01*
X24814100Y-14022400D02*
G75*
G03*
X24814100Y-14022400I-20000J0D01*
G01*
X24814100Y-14187500D02*
G75*
G03*
X24814100Y-14187500I-20000J0D01*
G01*
X24847120Y-16478580D02*
G75*
G03*
X24847120Y-16478580I-20000J0D01*
G01*
X24864900Y-16117900D02*
G75*
G03*
X24864900Y-16117900I-20000J0D01*
G01*
X24887760Y-13326440D02*
G75*
G03*
X24887760Y-13326440I-20000J0D01*
G01*
X25085880Y-14494840D02*
G75*
G03*
X25085880Y-14494840I-20000J0D01*
G01*
X25106200Y-13326440D02*
G75*
G03*
X25106200Y-13326440I-20000J0D01*
G01*
X25449100Y-15508300D02*
G75*
G03*
X25449100Y-15508300I-20000J0D01*
G01*
X25449100Y-15635300D02*
G75*
G03*
X25449100Y-15635300I-20000J0D01*
G01*
X25525300Y-13374700D02*
G75*
G03*
X25525300Y-13374700I-20000J0D01*
G01*
X25525300Y-13616000D02*
G75*
G03*
X25525300Y-13616000I-20000J0D01*
G01*
X25563400Y-16016300D02*
G75*
G03*
X25563400Y-16016300I-20000J0D01*
G01*
D14*
X25160000Y-16789800D02*
X25160000Y-16839800D01*
X25135000Y-16814800D02*
X25185000Y-16814800D01*
X25230294Y-16620094D02*
X25230294Y-16670094D01*
X25205294Y-16645094D02*
X25255294Y-16645094D01*
X25230294Y-16959506D02*
X25230294Y-17009506D01*
X25205294Y-16984506D02*
X25255294Y-16984506D01*
X25400000Y-16549800D02*
X25400000Y-16599800D01*
X25375000Y-16574800D02*
X25425000Y-16574800D01*
X25400000Y-17029800D02*
X25400000Y-17079800D01*
X25375000Y-17054800D02*
X25425000Y-17054800D01*
X25569706Y-16620094D02*
X25569706Y-16670094D01*
X25544706Y-16645094D02*
X25594706Y-16645094D01*
X25569706Y-16959506D02*
X25569706Y-17009506D01*
X25544706Y-16984506D02*
X25594706Y-16984506D01*
X25640000Y-16789800D02*
X25640000Y-16839800D01*
X25615000Y-16814800D02*
X25665000Y-16814800D01*
D15*
X18447193Y-16418743D02*
X18447193Y-16376317D01*
X18404767Y-16376317D01*
X18404767Y-16418743D01*
X18447193Y-16418743D01*
D11*
X18460980Y-16367530D02*
X18390980Y-16367530D01*
X18460980Y-16427530D02*
X18390980Y-16427530D01*
X18390980Y-16367530D02*
G75*
G03*
X18390980Y-16427530I0J-30000D01*
G01*
X18460980Y-16427530D02*
G75*
G03*
X18460980Y-16367530I0J30000D01*
G01*
D15*
X18447193Y-17253743D02*
X18447193Y-17211317D01*
X18404767Y-17211317D01*
X18404767Y-17253743D01*
X18447193Y-17253743D01*
D11*
X18460980Y-17202530D02*
X18390980Y-17202530D01*
X18460980Y-17262530D02*
X18390980Y-17262530D01*
X18390980Y-17202530D02*
G75*
G03*
X18390980Y-17262530I0J-30000D01*
G01*
X18460980Y-17262530D02*
G75*
G03*
X18460980Y-17202530I0J30000D01*
G01*
D16*
X18725980Y-16625030D02*
X18758480Y-16592530D01*
X18725980Y-16560030D01*
X18693480Y-16592530D01*
X18725980Y-16625030D01*
D11*
X18735980Y-16560030D02*
X18715980Y-16560030D01*
X18735980Y-16625030D02*
X18715980Y-16625030D01*
X18715980Y-16560030D02*
G75*
G03*
X18715980Y-16625030I0J-32500D01*
G01*
X18735980Y-16625030D02*
G75*
G03*
X18735980Y-16560030I0J32500D01*
G01*
D16*
X18725980Y-17070030D02*
X18758480Y-17037530D01*
X18725980Y-17005030D01*
X18693480Y-17037530D01*
X18725980Y-17070030D01*
D11*
X18735980Y-17005030D02*
X18715980Y-17005030D01*
X18735980Y-17070030D02*
X18715980Y-17070030D01*
X18715980Y-17005030D02*
G75*
G03*
X18715980Y-17070030I0J-32500D01*
G01*
X18735980Y-17070030D02*
G75*
G03*
X18735980Y-17005030I0J32500D01*
G01*
D17*
X18927300Y-12054500D02*
X19002300Y-12129500D01*
X19002300Y-12054500D02*
X18927300Y-12129500D01*
X19002300Y-12092000D02*
G75*
G03*
X19002300Y-12092000I-37500J0D01*
G01*
X18927300Y-12254500D02*
X19002300Y-12329500D01*
X19002300Y-12254500D02*
X18927300Y-12329500D01*
X19002300Y-12292000D02*
G75*
G03*
X19002300Y-12292000I-37500J0D01*
G01*
X20538100Y-17294300D02*
X20613100Y-17369300D01*
X20613100Y-17294300D02*
X20538100Y-17369300D01*
X20613100Y-17331800D02*
G75*
G03*
X20613100Y-17331800I-37500J0D01*
G01*
X20738100Y-17294300D02*
X20813100Y-17369300D01*
X20813100Y-17294300D02*
X20738100Y-17369300D01*
X20813100Y-17331800D02*
G75*
G03*
X20813100Y-17331800I-37500J0D01*
G01*
D18*
X23030450Y-17021550D02*
X23110450Y-17101550D01*
X23110450Y-17021550D02*
X23030450Y-17101550D01*
X23070450Y-17021550D02*
X23070450Y-17101550D01*
X23030450Y-17061550D02*
X23110450Y-17061550D01*
X23030450Y-17783550D02*
X23110450Y-17863550D01*
X23110450Y-17783550D02*
X23030450Y-17863550D01*
X23070450Y-17783550D02*
X23070450Y-17863550D01*
X23030450Y-17823550D02*
X23110450Y-17823550D01*
X23792450Y-17021550D02*
X23872450Y-17101550D01*
X23872450Y-17021550D02*
X23792450Y-17101550D01*
X23832450Y-17021550D02*
X23832450Y-17101550D01*
X23792450Y-17061550D02*
X23872450Y-17061550D01*
X23792450Y-17783550D02*
X23872450Y-17863550D01*
X23872450Y-17783550D02*
X23792450Y-17863550D01*
X23832450Y-17783550D02*
X23832450Y-17863550D01*
X23792450Y-17823550D02*
X23872450Y-17823550D01*
X24300450Y-17021550D02*
X24380450Y-17101550D01*
X24380450Y-17021550D02*
X24300450Y-17101550D01*
X24340450Y-17021550D02*
X24340450Y-17101550D01*
X24300450Y-17061550D02*
X24380450Y-17061550D01*
X24300450Y-17783550D02*
X24380450Y-17863550D01*
X24380450Y-17783550D02*
X24300450Y-17863550D01*
X24340450Y-17783550D02*
X24340450Y-17863550D01*
X24300450Y-17823550D02*
X24380450Y-17823550D01*
X24808450Y-17021550D02*
X24888450Y-17101550D01*
X24888450Y-17021550D02*
X24808450Y-17101550D01*
X24848450Y-17021550D02*
X24848450Y-17101550D01*
X24808450Y-17061550D02*
X24888450Y-17061550D01*
X24808450Y-17783550D02*
X24888450Y-17863550D01*
X24888450Y-17783550D02*
X24808450Y-17863550D01*
X24848450Y-17783550D02*
X24848450Y-17863550D01*
X24808450Y-17823550D02*
X24888450Y-17823550D01*
D19*
X24338500Y-11766000D02*
X24428500Y-11856000D01*
X24428500Y-11766000D02*
X24338500Y-11856000D01*
X24415320Y-11842820D02*
X24415320Y-11779180D01*
X24351680Y-11779180D01*
X24351680Y-11842820D01*
X24415320Y-11842820D01*
X24592500Y-11766000D02*
X24682500Y-11856000D01*
X24682500Y-11766000D02*
X24592500Y-11856000D01*
X24669320Y-11842820D02*
X24669320Y-11779180D01*
X24605680Y-11779180D01*
X24605680Y-11842820D01*
X24669320Y-11842820D01*
D20*
X19892600Y-10813700D02*
X19992600Y-10913700D01*
X19992600Y-10813700D02*
X19892600Y-10913700D01*
X19942600Y-10913700D02*
X19992600Y-10863700D01*
X19942600Y-10813700D01*
X19892600Y-10863700D01*
X19942600Y-10913700D01*
X20342600Y-10813700D02*
X20442600Y-10913700D01*
X20442600Y-10813700D02*
X20342600Y-10913700D01*
X20392600Y-10913700D02*
X20442600Y-10863700D01*
X20392600Y-10813700D01*
X20342600Y-10863700D01*
X20392600Y-10913700D01*
X21352610Y-12730996D02*
X21452610Y-12830996D01*
X21452610Y-12730996D02*
X21352610Y-12830996D01*
X21402610Y-12830996D02*
X21452610Y-12780996D01*
X21402610Y-12730996D01*
X21352610Y-12780996D01*
X21402610Y-12830996D01*
X21606610Y-12730996D02*
X21706610Y-12830996D01*
X21706610Y-12730996D02*
X21606610Y-12830996D01*
X21656610Y-12830996D02*
X21706610Y-12780996D01*
X21656610Y-12730996D01*
X21606610Y-12780996D01*
X21656610Y-12830996D01*
X21728345Y-17679200D02*
X21828345Y-17779200D01*
X21828345Y-17679200D02*
X21728345Y-17779200D01*
X21778345Y-17779200D02*
X21828345Y-17729200D01*
X21778345Y-17679200D01*
X21728345Y-17729200D01*
X21778345Y-17779200D01*
X21746800Y-10813700D02*
X21846800Y-10913700D01*
X21846800Y-10813700D02*
X21746800Y-10913700D01*
X21796800Y-10913700D02*
X21846800Y-10863700D01*
X21796800Y-10813700D01*
X21746800Y-10863700D01*
X21796800Y-10913700D01*
X21860610Y-12730996D02*
X21960610Y-12830996D01*
X21960610Y-12730996D02*
X21860610Y-12830996D01*
X21910610Y-12830996D02*
X21960610Y-12780996D01*
X21910610Y-12730996D01*
X21860610Y-12780996D01*
X21910610Y-12830996D01*
X21982345Y-17679200D02*
X22082345Y-17779200D01*
X22082345Y-17679200D02*
X21982345Y-17779200D01*
X22032345Y-17779200D02*
X22082345Y-17729200D01*
X22032345Y-17679200D01*
X21982345Y-17729200D01*
X22032345Y-17779200D01*
X22114610Y-12730996D02*
X22214610Y-12830996D01*
X22214610Y-12730996D02*
X22114610Y-12830996D01*
X22164610Y-12830996D02*
X22214610Y-12780996D01*
X22164610Y-12730996D01*
X22114610Y-12780996D01*
X22164610Y-12830996D01*
X22196800Y-10813700D02*
X22296800Y-10913700D01*
X22296800Y-10813700D02*
X22196800Y-10913700D01*
X22246800Y-10913700D02*
X22296800Y-10863700D01*
X22246800Y-10813700D01*
X22196800Y-10863700D01*
X22246800Y-10913700D01*
X22236345Y-17679200D02*
X22336345Y-17779200D01*
X22336345Y-17679200D02*
X22236345Y-17779200D01*
X22286345Y-17779200D02*
X22336345Y-17729200D01*
X22286345Y-17679200D01*
X22236345Y-17729200D01*
X22286345Y-17779200D01*
X22368610Y-12730996D02*
X22468610Y-12830996D01*
X22468610Y-12730996D02*
X22368610Y-12830996D01*
X22418610Y-12830996D02*
X22468610Y-12780996D01*
X22418610Y-12730996D01*
X22368610Y-12780996D01*
X22418610Y-12830996D01*
X22622610Y-12730996D02*
X22722610Y-12830996D01*
X22722610Y-12730996D02*
X22622610Y-12830996D01*
X22672610Y-12830996D02*
X22722610Y-12780996D01*
X22672610Y-12730996D01*
X22622610Y-12780996D01*
X22672610Y-12830996D01*
X23626400Y-10813700D02*
X23726400Y-10913700D01*
X23726400Y-10813700D02*
X23626400Y-10913700D01*
X23676400Y-10913700D02*
X23726400Y-10863700D01*
X23676400Y-10813700D01*
X23626400Y-10863700D01*
X23676400Y-10913700D01*
X24076400Y-10813700D02*
X24176400Y-10913700D01*
X24176400Y-10813700D02*
X24076400Y-10913700D01*
X24126400Y-10913700D02*
X24176400Y-10863700D01*
X24126400Y-10813700D01*
X24076400Y-10863700D01*
X24126400Y-10913700D01*
X25163700Y-14079080D02*
X25263700Y-14179080D01*
X25263700Y-14079080D02*
X25163700Y-14179080D01*
X25213700Y-14179080D02*
X25263700Y-14129080D01*
X25213700Y-14079080D01*
X25163700Y-14129080D01*
X25213700Y-14179080D01*
X25417700Y-14079080D02*
X25517700Y-14179080D01*
X25517700Y-14079080D02*
X25417700Y-14179080D01*
X25467700Y-14179080D02*
X25517700Y-14129080D01*
X25467700Y-14079080D01*
X25417700Y-14129080D01*
X25467700Y-14179080D01*
X25493400Y-12112120D02*
X25593400Y-12212120D01*
X25593400Y-12112120D02*
X25493400Y-12212120D01*
X25543400Y-12212120D02*
X25593400Y-12162120D01*
X25543400Y-12112120D01*
X25493400Y-12162120D01*
X25543400Y-12212120D01*
X25493400Y-12366120D02*
X25593400Y-12466120D01*
X25593400Y-12366120D02*
X25493400Y-12466120D01*
X25543400Y-12466120D02*
X25593400Y-12416120D01*
X25543400Y-12366120D01*
X25493400Y-12416120D01*
X25543400Y-12466120D01*
X25493400Y-12620120D02*
X25593400Y-12720120D01*
X25593400Y-12620120D02*
X25493400Y-12720120D01*
X25543400Y-12720120D02*
X25593400Y-12670120D01*
X25543400Y-12620120D01*
X25493400Y-12670120D01*
X25543400Y-12720120D01*
X25493400Y-12874120D02*
X25593400Y-12974120D01*
X25593400Y-12874120D02*
X25493400Y-12974120D01*
X25543400Y-12974120D02*
X25593400Y-12924120D01*
X25543400Y-12874120D01*
X25493400Y-12924120D01*
X25543400Y-12974120D01*
D21*
X19817600Y-11048700D02*
X19817600Y-11178700D01*
X19752600Y-11113700D02*
X19882600Y-11113700D01*
X19882600Y-11113700D02*
G75*
G03*
X19882600Y-11113700I-65000J0D01*
G01*
X20517600Y-11048700D02*
X20517600Y-11178700D01*
X20452600Y-11113700D02*
X20582600Y-11113700D01*
X20582600Y-11113700D02*
G75*
G03*
X20582600Y-11113700I-65000J0D01*
G01*
X21671800Y-11048700D02*
X21671800Y-11178700D01*
X21606800Y-11113700D02*
X21736800Y-11113700D01*
X21736800Y-11113700D02*
G75*
G03*
X21736800Y-11113700I-65000J0D01*
G01*
X22371800Y-11048700D02*
X22371800Y-11178700D01*
X22306800Y-11113700D02*
X22436800Y-11113700D01*
X22436800Y-11113700D02*
G75*
G03*
X22436800Y-11113700I-65000J0D01*
G01*
X23551400Y-11048700D02*
X23551400Y-11178700D01*
X23486400Y-11113700D02*
X23616400Y-11113700D01*
X23616400Y-11113700D02*
G75*
G03*
X23616400Y-11113700I-65000J0D01*
G01*
X24251400Y-11048700D02*
X24251400Y-11178700D01*
X24186400Y-11113700D02*
X24316400Y-11113700D01*
X24316400Y-11113700D02*
G75*
G03*
X24316400Y-11113700I-65000J0D01*
G01*
D22*
X20613683Y-12944482D02*
X20613683Y-12788917D01*
X20458118Y-12788917D01*
X20458118Y-12944482D01*
X20613683Y-12944482D01*
X20645900Y-12866700D02*
G75*
G03*
X20645900Y-12866700I-110000J0D01*
G01*
X20613683Y-15801982D02*
X20613683Y-15646417D01*
X20458118Y-15646417D01*
X20458118Y-15801982D01*
X20613683Y-15801982D01*
X20645900Y-15724200D02*
G75*
G03*
X20645900Y-15724200I-110000J0D01*
G01*
X23652682Y-12944482D02*
X23652682Y-12788917D01*
X23497117Y-12788917D01*
X23497117Y-12944482D01*
X23652682Y-12944482D01*
X23684900Y-12866700D02*
G75*
G03*
X23684900Y-12866700I-110000J0D01*
G01*
X23652682Y-15801982D02*
X23652682Y-15646417D01*
X23497117Y-15646417D01*
X23497117Y-15801982D01*
X23652682Y-15801982D01*
X23684900Y-15724200D02*
G75*
G03*
X23684900Y-15724200I-110000J0D01*
G01*
D23*
X25400000Y-16974800D02*
X25560000Y-16814800D01*
X25400000Y-16654800D01*
X25240000Y-16814800D01*
X25400000Y-16974800D01*
X25560000Y-16814800D02*
G75*
G03*
X25560000Y-16814800I-160000J0D01*
G01*
D11*
X18523804Y-18361317D02*
X18523804Y-18161317D01*
X18571423Y-18161317D01*
X18599995Y-18170841D01*
X18619042Y-18189888D01*
X18628566Y-18208936D01*
X18638090Y-18247031D01*
X18638090Y-18275603D01*
X18628566Y-18313698D01*
X18619042Y-18332745D01*
X18599995Y-18351793D01*
X18571423Y-18361317D01*
X18523804Y-18361317D01*
X18723804Y-18361317D02*
X18723804Y-18227983D01*
X18723804Y-18266079D02*
X18733328Y-18247031D01*
X18742852Y-18237507D01*
X18761899Y-18227983D01*
X18780947Y-18227983D01*
X18847614Y-18361317D02*
X18847614Y-18227983D01*
X18847614Y-18161317D02*
X18838090Y-18170841D01*
X18847614Y-18180364D01*
X18857138Y-18170841D01*
X18847614Y-18161317D01*
X18847614Y-18180364D01*
X18971423Y-18361317D02*
X18952376Y-18351793D01*
X18942852Y-18332745D01*
X18942852Y-18161317D01*
X19076185Y-18361317D02*
X19057138Y-18351793D01*
X19047614Y-18332745D01*
X19047614Y-18161317D01*
X19304757Y-18361317D02*
X19304757Y-18161317D01*
X19371423Y-18304174D01*
X19438090Y-18161317D01*
X19438090Y-18361317D01*
X19619042Y-18361317D02*
X19619042Y-18256555D01*
X19609519Y-18237507D01*
X19590471Y-18227983D01*
X19552376Y-18227983D01*
X19533328Y-18237507D01*
X19619042Y-18351793D02*
X19599995Y-18361317D01*
X19552376Y-18361317D01*
X19533328Y-18351793D01*
X19523804Y-18332745D01*
X19523804Y-18313698D01*
X19533328Y-18294650D01*
X19552376Y-18285126D01*
X19599995Y-18285126D01*
X19619042Y-18275603D01*
X19714280Y-18227983D02*
X19714280Y-18427983D01*
X19714280Y-18237507D02*
X19733328Y-18227983D01*
X19771423Y-18227983D01*
X19790471Y-18237507D01*
X19799995Y-18247031D01*
X19809519Y-18266079D01*
X19809519Y-18323222D01*
X19799995Y-18342269D01*
X19790471Y-18351793D01*
X19771423Y-18361317D01*
X19733328Y-18361317D01*
X19714280Y-18351793D01*
X19895233Y-18342269D02*
X19904757Y-18351793D01*
X19895233Y-18361317D01*
X19885709Y-18351793D01*
X19895233Y-18342269D01*
X19895233Y-18361317D01*
X19895233Y-18237507D02*
X19904757Y-18247031D01*
X19895233Y-18256555D01*
X19885709Y-18247031D01*
X19895233Y-18237507D01*
X19895233Y-18256555D01*
D12*
X18228085Y-18671791D02*
X18266185Y-18709891D01*
X18266185Y-18671791D02*
X18228085Y-18709891D01*
D11*
X18561899Y-18581317D02*
X18580947Y-18581317D01*
X18599995Y-18590841D01*
X18609519Y-18600364D01*
X18619042Y-18619412D01*
X18628566Y-18657507D01*
X18628566Y-18705126D01*
X18619042Y-18743222D01*
X18609519Y-18762269D01*
X18599995Y-18771793D01*
X18580947Y-18781317D01*
X18561899Y-18781317D01*
X18542852Y-18771793D01*
X18533328Y-18762269D01*
X18523804Y-18743222D01*
X18514280Y-18705126D01*
X18514280Y-18657507D01*
X18523804Y-18619412D01*
X18533328Y-18600364D01*
X18542852Y-18590841D01*
X18561899Y-18581317D01*
X18714280Y-18762269D02*
X18723804Y-18771793D01*
X18714280Y-18781317D01*
X18704757Y-18771793D01*
X18714280Y-18762269D01*
X18714280Y-18781317D01*
X18790471Y-18581317D02*
X18914280Y-18581317D01*
X18847614Y-18657507D01*
X18876185Y-18657507D01*
X18895233Y-18667031D01*
X18904757Y-18676555D01*
X18914280Y-18695603D01*
X18914280Y-18743222D01*
X18904757Y-18762269D01*
X18895233Y-18771793D01*
X18876185Y-18781317D01*
X18819042Y-18781317D01*
X18799995Y-18771793D01*
X18790471Y-18762269D01*
X19028566Y-18667031D02*
X19009519Y-18657507D01*
X18999995Y-18647983D01*
X18990471Y-18628936D01*
X18990471Y-18619412D01*
X18999995Y-18600364D01*
X19009519Y-18590841D01*
X19028566Y-18581317D01*
X19066661Y-18581317D01*
X19085709Y-18590841D01*
X19095233Y-18600364D01*
X19104757Y-18619412D01*
X19104757Y-18628936D01*
X19095233Y-18647983D01*
X19085709Y-18657507D01*
X19066661Y-18667031D01*
X19028566Y-18667031D01*
X19009519Y-18676555D01*
X18999995Y-18686079D01*
X18990471Y-18705126D01*
X18990471Y-18743222D01*
X18999995Y-18762269D01*
X19009519Y-18771793D01*
X19028566Y-18781317D01*
X19066661Y-18781317D01*
X19085709Y-18771793D01*
X19095233Y-18762269D01*
X19104757Y-18743222D01*
X19104757Y-18705126D01*
X19095233Y-18686079D01*
X19085709Y-18676555D01*
X19066661Y-18667031D01*
X19295233Y-18781317D02*
X19180947Y-18781317D01*
X19238090Y-18781317D02*
X19238090Y-18581317D01*
X19219042Y-18609888D01*
X19199995Y-18628936D01*
X19180947Y-18638460D01*
X19380947Y-18781317D02*
X19380947Y-18647983D01*
X19380947Y-18667031D02*
X19390471Y-18657507D01*
X19409519Y-18647983D01*
X19438090Y-18647983D01*
X19457138Y-18657507D01*
X19466661Y-18676555D01*
X19466661Y-18781317D01*
X19466661Y-18676555D02*
X19476185Y-18657507D01*
X19495233Y-18647983D01*
X19523804Y-18647983D01*
X19542852Y-18657507D01*
X19552376Y-18676555D01*
X19552376Y-18781317D01*
X19647614Y-18781317D02*
X19647614Y-18647983D01*
X19647614Y-18667031D02*
X19657138Y-18657507D01*
X19676185Y-18647983D01*
X19704757Y-18647983D01*
X19723804Y-18657507D01*
X19733328Y-18676555D01*
X19733328Y-18781317D01*
X19733328Y-18676555D02*
X19742852Y-18657507D01*
X19761899Y-18647983D01*
X19790471Y-18647983D01*
X19809519Y-18657507D01*
X19819042Y-18676555D01*
X19819042Y-18781317D01*
X20209519Y-18571793D02*
X20038090Y-18828936D01*
X20466661Y-18581317D02*
X20485709Y-18581317D01*
X20504757Y-18590841D01*
X20514280Y-18600364D01*
X20523804Y-18619412D01*
X20533328Y-18657507D01*
X20533328Y-18705126D01*
X20523804Y-18743222D01*
X20514280Y-18762269D01*
X20504757Y-18771793D01*
X20485709Y-18781317D01*
X20466661Y-18781317D01*
X20447614Y-18771793D01*
X20438090Y-18762269D01*
X20428566Y-18743222D01*
X20419042Y-18705126D01*
X20419042Y-18657507D01*
X20428566Y-18619412D01*
X20438090Y-18600364D01*
X20447614Y-18590841D01*
X20466661Y-18581317D01*
X20619042Y-18762269D02*
X20628566Y-18771793D01*
X20619042Y-18781317D01*
X20609519Y-18771793D01*
X20619042Y-18762269D01*
X20619042Y-18781317D01*
X20752376Y-18581317D02*
X20771423Y-18581317D01*
X20790471Y-18590841D01*
X20799995Y-18600364D01*
X20809519Y-18619412D01*
X20819042Y-18657507D01*
X20819042Y-18705126D01*
X20809519Y-18743222D01*
X20799995Y-18762269D01*
X20790471Y-18771793D01*
X20771423Y-18781317D01*
X20752376Y-18781317D01*
X20733328Y-18771793D01*
X20723804Y-18762269D01*
X20714280Y-18743222D01*
X20704757Y-18705126D01*
X20704757Y-18657507D01*
X20714280Y-18619412D01*
X20723804Y-18600364D01*
X20733328Y-18590841D01*
X20752376Y-18581317D01*
X21009519Y-18781317D02*
X20895233Y-18781317D01*
X20952376Y-18781317D02*
X20952376Y-18581317D01*
X20933328Y-18609888D01*
X20914280Y-18628936D01*
X20895233Y-18638460D01*
X21190471Y-18581317D02*
X21095233Y-18581317D01*
X21085709Y-18676555D01*
X21095233Y-18667031D01*
X21114280Y-18657507D01*
X21161899Y-18657507D01*
X21180947Y-18667031D01*
X21190471Y-18676555D01*
X21199995Y-18695603D01*
X21199995Y-18743222D01*
X21190471Y-18762269D01*
X21180947Y-18771793D01*
X21161899Y-18781317D01*
X21114280Y-18781317D01*
X21095233Y-18771793D01*
X21085709Y-18762269D01*
X21323804Y-18581317D02*
X21342852Y-18581317D01*
X21361899Y-18590841D01*
X21371423Y-18600364D01*
X21380947Y-18619412D01*
X21390471Y-18657507D01*
X21390471Y-18705126D01*
X21380947Y-18743222D01*
X21371423Y-18762269D01*
X21361899Y-18771793D01*
X21342852Y-18781317D01*
X21323804Y-18781317D01*
X21304757Y-18771793D01*
X21295233Y-18762269D01*
X21285709Y-18743222D01*
X21276185Y-18705126D01*
X21276185Y-18657507D01*
X21285709Y-18619412D01*
X21295233Y-18600364D01*
X21304757Y-18590841D01*
X21323804Y-18581317D01*
X21466661Y-18581317D02*
X21466661Y-18619412D01*
X21542852Y-18581317D02*
X21542852Y-18619412D01*
X21838090Y-18857507D02*
X21828566Y-18847983D01*
X21809519Y-18819412D01*
X21799995Y-18800364D01*
X21790471Y-18771793D01*
X21780947Y-18724174D01*
X21780947Y-18686079D01*
X21790471Y-18638460D01*
X21799995Y-18609888D01*
X21809519Y-18590841D01*
X21828566Y-18562269D01*
X21838090Y-18552745D01*
X21923804Y-18781317D02*
X21961899Y-18781317D01*
X21980947Y-18771793D01*
X21990471Y-18762269D01*
X22009519Y-18733698D01*
X22019042Y-18695603D01*
X22019042Y-18619412D01*
X22009519Y-18600364D01*
X21999995Y-18590841D01*
X21980947Y-18581317D01*
X21942852Y-18581317D01*
X21923804Y-18590841D01*
X21914280Y-18600364D01*
X21904757Y-18619412D01*
X21904757Y-18667031D01*
X21914280Y-18686079D01*
X21923804Y-18695603D01*
X21942852Y-18705126D01*
X21980947Y-18705126D01*
X21999995Y-18695603D01*
X22009519Y-18686079D01*
X22019042Y-18667031D01*
X22257138Y-18781317D02*
X22257138Y-18581317D01*
X22342852Y-18781317D02*
X22342852Y-18676555D01*
X22333328Y-18657507D01*
X22314280Y-18647983D01*
X22285709Y-18647983D01*
X22266661Y-18657507D01*
X22257138Y-18667031D01*
X22466661Y-18781317D02*
X22447614Y-18771793D01*
X22438090Y-18762269D01*
X22428566Y-18743222D01*
X22428566Y-18686079D01*
X22438090Y-18667031D01*
X22447614Y-18657507D01*
X22466661Y-18647983D01*
X22495233Y-18647983D01*
X22514280Y-18657507D01*
X22523804Y-18667031D01*
X22533328Y-18686079D01*
X22533328Y-18743222D01*
X22523804Y-18762269D01*
X22514280Y-18771793D01*
X22495233Y-18781317D01*
X22466661Y-18781317D01*
X22647614Y-18781317D02*
X22628566Y-18771793D01*
X22619042Y-18752745D01*
X22619042Y-18581317D01*
X22799995Y-18771793D02*
X22780947Y-18781317D01*
X22742852Y-18781317D01*
X22723804Y-18771793D01*
X22714280Y-18752745D01*
X22714280Y-18676555D01*
X22723804Y-18657507D01*
X22742852Y-18647983D01*
X22780947Y-18647983D01*
X22799995Y-18657507D01*
X22809518Y-18676555D01*
X22809518Y-18695603D01*
X22714280Y-18714650D01*
X22885709Y-18771793D02*
X22904757Y-18781317D01*
X22942852Y-18781317D01*
X22961899Y-18771793D01*
X22971423Y-18752745D01*
X22971423Y-18743222D01*
X22961899Y-18724174D01*
X22942852Y-18714650D01*
X22914280Y-18714650D01*
X22895233Y-18705126D01*
X22885709Y-18686079D01*
X22885709Y-18676555D01*
X22895233Y-18657507D01*
X22914280Y-18647983D01*
X22942852Y-18647983D01*
X22961899Y-18657507D01*
X23038090Y-18857507D02*
X23047614Y-18847983D01*
X23066661Y-18819412D01*
X23076185Y-18800364D01*
X23085709Y-18771793D01*
X23095233Y-18724174D01*
X23095233Y-18686079D01*
X23085709Y-18638460D01*
X23076185Y-18609888D01*
X23066661Y-18590841D01*
X23047614Y-18562269D01*
X23038090Y-18552745D01*
D13*
X18266185Y-18954841D02*
G75*
G03*
X18266185Y-18954841I-20000J0D01*
G01*
D11*
X18561899Y-18845317D02*
X18580947Y-18845317D01*
X18599995Y-18854841D01*
X18609519Y-18864364D01*
X18619042Y-18883412D01*
X18628566Y-18921507D01*
X18628566Y-18969126D01*
X18619042Y-19007222D01*
X18609519Y-19026269D01*
X18599995Y-19035793D01*
X18580947Y-19045317D01*
X18561899Y-19045317D01*
X18542852Y-19035793D01*
X18533328Y-19026269D01*
X18523804Y-19007222D01*
X18514280Y-18969126D01*
X18514280Y-18921507D01*
X18523804Y-18883412D01*
X18533328Y-18864364D01*
X18542852Y-18854841D01*
X18561899Y-18845317D01*
X18714280Y-19026269D02*
X18723804Y-19035793D01*
X18714280Y-19045317D01*
X18704757Y-19035793D01*
X18714280Y-19026269D01*
X18714280Y-19045317D01*
X18895233Y-18911983D02*
X18895233Y-19045317D01*
X18847614Y-18835793D02*
X18799995Y-18978650D01*
X18923804Y-18978650D01*
X19038090Y-18845317D02*
X19057138Y-18845317D01*
X19076185Y-18854841D01*
X19085709Y-18864364D01*
X19095233Y-18883412D01*
X19104757Y-18921507D01*
X19104757Y-18969126D01*
X19095233Y-19007222D01*
X19085709Y-19026269D01*
X19076185Y-19035793D01*
X19057138Y-19045317D01*
X19038090Y-19045317D01*
X19019042Y-19035793D01*
X19009519Y-19026269D01*
X18999995Y-19007222D01*
X18990471Y-18969126D01*
X18990471Y-18921507D01*
X18999995Y-18883412D01*
X19009519Y-18864364D01*
X19019042Y-18854841D01*
X19038090Y-18845317D01*
X19228566Y-18845317D02*
X19247614Y-18845317D01*
X19266661Y-18854841D01*
X19276185Y-18864364D01*
X19285709Y-18883412D01*
X19295233Y-18921507D01*
X19295233Y-18969126D01*
X19285709Y-19007222D01*
X19276185Y-19026269D01*
X19266661Y-19035793D01*
X19247614Y-19045317D01*
X19228566Y-19045317D01*
X19209519Y-19035793D01*
X19199995Y-19026269D01*
X19190471Y-19007222D01*
X19180947Y-18969126D01*
X19180947Y-18921507D01*
X19190471Y-18883412D01*
X19199995Y-18864364D01*
X19209519Y-18854841D01*
X19228566Y-18845317D01*
X19380947Y-19045317D02*
X19380947Y-18911983D01*
X19380947Y-18931031D02*
X19390471Y-18921507D01*
X19409519Y-18911983D01*
X19438090Y-18911983D01*
X19457138Y-18921507D01*
X19466661Y-18940555D01*
X19466661Y-19045317D01*
X19466661Y-18940555D02*
X19476185Y-18921507D01*
X19495233Y-18911983D01*
X19523804Y-18911983D01*
X19542852Y-18921507D01*
X19552376Y-18940555D01*
X19552376Y-19045317D01*
X19647614Y-19045317D02*
X19647614Y-18911983D01*
X19647614Y-18931031D02*
X19657138Y-18921507D01*
X19676185Y-18911983D01*
X19704757Y-18911983D01*
X19723804Y-18921507D01*
X19733328Y-18940555D01*
X19733328Y-19045317D01*
X19733328Y-18940555D02*
X19742852Y-18921507D01*
X19761899Y-18911983D01*
X19790471Y-18911983D01*
X19809519Y-18921507D01*
X19819042Y-18940555D01*
X19819042Y-19045317D01*
X20209519Y-18835793D02*
X20038090Y-19092936D01*
X20466661Y-18845317D02*
X20485709Y-18845317D01*
X20504757Y-18854841D01*
X20514280Y-18864364D01*
X20523804Y-18883412D01*
X20533328Y-18921507D01*
X20533328Y-18969126D01*
X20523804Y-19007222D01*
X20514280Y-19026269D01*
X20504757Y-19035793D01*
X20485709Y-19045317D01*
X20466661Y-19045317D01*
X20447614Y-19035793D01*
X20438090Y-19026269D01*
X20428566Y-19007222D01*
X20419042Y-18969126D01*
X20419042Y-18921507D01*
X20428566Y-18883412D01*
X20438090Y-18864364D01*
X20447614Y-18854841D01*
X20466661Y-18845317D01*
X20619042Y-19026269D02*
X20628566Y-19035793D01*
X20619042Y-19045317D01*
X20609519Y-19035793D01*
X20619042Y-19026269D01*
X20619042Y-19045317D01*
X20752376Y-18845317D02*
X20771423Y-18845317D01*
X20790471Y-18854841D01*
X20799995Y-18864364D01*
X20809519Y-18883412D01*
X20819042Y-18921507D01*
X20819042Y-18969126D01*
X20809519Y-19007222D01*
X20799995Y-19026269D01*
X20790471Y-19035793D01*
X20771423Y-19045317D01*
X20752376Y-19045317D01*
X20733328Y-19035793D01*
X20723804Y-19026269D01*
X20714280Y-19007222D01*
X20704757Y-18969126D01*
X20704757Y-18921507D01*
X20714280Y-18883412D01*
X20723804Y-18864364D01*
X20733328Y-18854841D01*
X20752376Y-18845317D01*
X21009519Y-19045317D02*
X20895233Y-19045317D01*
X20952376Y-19045317D02*
X20952376Y-18845317D01*
X20933328Y-18873888D01*
X20914280Y-18892936D01*
X20895233Y-18902460D01*
X21190471Y-18845317D02*
X21095233Y-18845317D01*
X21085709Y-18940555D01*
X21095233Y-18931031D01*
X21114280Y-18921507D01*
X21161899Y-18921507D01*
X21180947Y-18931031D01*
X21190471Y-18940555D01*
X21199995Y-18959603D01*
X21199995Y-19007222D01*
X21190471Y-19026269D01*
X21180947Y-19035793D01*
X21161899Y-19045317D01*
X21114280Y-19045317D01*
X21095233Y-19035793D01*
X21085709Y-19026269D01*
X21266661Y-18845317D02*
X21399995Y-18845317D01*
X21314280Y-19045317D01*
X21466661Y-18845317D02*
X21466661Y-18883412D01*
X21542852Y-18845317D02*
X21542852Y-18883412D01*
X21838090Y-19121507D02*
X21828566Y-19111983D01*
X21809519Y-19083412D01*
X21799995Y-19064364D01*
X21790471Y-19035793D01*
X21780947Y-18988174D01*
X21780947Y-18950079D01*
X21790471Y-18902460D01*
X21799995Y-18873888D01*
X21809519Y-18854841D01*
X21828566Y-18826269D01*
X21838090Y-18816745D01*
X22019042Y-19045317D02*
X21904757Y-19045317D01*
X21961899Y-19045317D02*
X21961899Y-18845317D01*
X21942852Y-18873888D01*
X21923804Y-18892936D01*
X21904757Y-18902460D01*
X22114280Y-19045317D02*
X22152376Y-19045317D01*
X22171423Y-19035793D01*
X22180947Y-19026269D01*
X22199995Y-18997698D01*
X22209519Y-18959603D01*
X22209519Y-18883412D01*
X22199995Y-18864364D01*
X22190471Y-18854841D01*
X22171423Y-18845317D01*
X22133328Y-18845317D01*
X22114280Y-18854841D01*
X22104757Y-18864364D01*
X22095233Y-18883412D01*
X22095233Y-18931031D01*
X22104757Y-18950079D01*
X22114280Y-18959603D01*
X22133328Y-18969126D01*
X22171423Y-18969126D01*
X22190471Y-18959603D01*
X22199995Y-18950079D01*
X22209519Y-18931031D01*
X22399995Y-19045317D02*
X22285709Y-19045317D01*
X22342852Y-19045317D02*
X22342852Y-18845317D01*
X22323804Y-18873888D01*
X22304757Y-18892936D01*
X22285709Y-18902460D01*
X22638090Y-19045317D02*
X22638090Y-18845317D01*
X22723804Y-19045317D02*
X22723804Y-18940555D01*
X22714280Y-18921507D01*
X22695233Y-18911983D01*
X22666661Y-18911983D01*
X22647614Y-18921507D01*
X22638090Y-18931031D01*
X22847614Y-19045317D02*
X22828566Y-19035793D01*
X22819042Y-19026269D01*
X22809518Y-19007222D01*
X22809518Y-18950079D01*
X22819042Y-18931031D01*
X22828566Y-18921507D01*
X22847614Y-18911983D01*
X22876185Y-18911983D01*
X22895233Y-18921507D01*
X22904757Y-18931031D01*
X22914280Y-18950079D01*
X22914280Y-19007222D01*
X22904757Y-19026269D01*
X22895233Y-19035793D01*
X22876185Y-19045317D01*
X22847614Y-19045317D01*
X23028566Y-19045317D02*
X23009518Y-19035793D01*
X22999995Y-19016745D01*
X22999995Y-18845317D01*
X23180947Y-19035793D02*
X23161899Y-19045317D01*
X23123804Y-19045317D01*
X23104757Y-19035793D01*
X23095233Y-19016745D01*
X23095233Y-18940555D01*
X23104757Y-18921507D01*
X23123804Y-18911983D01*
X23161899Y-18911983D01*
X23180947Y-18921507D01*
X23190471Y-18940555D01*
X23190471Y-18959603D01*
X23095233Y-18978650D01*
X23266661Y-19035793D02*
X23285709Y-19045317D01*
X23323804Y-19045317D01*
X23342852Y-19035793D01*
X23352376Y-19016745D01*
X23352376Y-19007222D01*
X23342852Y-18988174D01*
X23323804Y-18978650D01*
X23295233Y-18978650D01*
X23276185Y-18969126D01*
X23266661Y-18950079D01*
X23266661Y-18940555D01*
X23276185Y-18921507D01*
X23295233Y-18911983D01*
X23323804Y-18911983D01*
X23342852Y-18921507D01*
X23419042Y-19121507D02*
X23428566Y-19111983D01*
X23447614Y-19083412D01*
X23457137Y-19064364D01*
X23466661Y-19035793D01*
X23476185Y-18988174D01*
X23476185Y-18950079D01*
X23466661Y-18902460D01*
X23457137Y-18873888D01*
X23447614Y-18854841D01*
X23428566Y-18826269D01*
X23419042Y-18816745D01*
D14*
X18241185Y-19193841D02*
X18241185Y-19243841D01*
X18216185Y-19218841D02*
X18266185Y-19218841D01*
D11*
X18561899Y-19109317D02*
X18580947Y-19109317D01*
X18599995Y-19118841D01*
X18609519Y-19128364D01*
X18619042Y-19147412D01*
X18628566Y-19185507D01*
X18628566Y-19233126D01*
X18619042Y-19271222D01*
X18609519Y-19290269D01*
X18599995Y-19299793D01*
X18580947Y-19309317D01*
X18561899Y-19309317D01*
X18542852Y-19299793D01*
X18533328Y-19290269D01*
X18523804Y-19271222D01*
X18514280Y-19233126D01*
X18514280Y-19185507D01*
X18523804Y-19147412D01*
X18533328Y-19128364D01*
X18542852Y-19118841D01*
X18561899Y-19109317D01*
X18714280Y-19290269D02*
X18723804Y-19299793D01*
X18714280Y-19309317D01*
X18704757Y-19299793D01*
X18714280Y-19290269D01*
X18714280Y-19309317D01*
X18904757Y-19109317D02*
X18809519Y-19109317D01*
X18799995Y-19204555D01*
X18809519Y-19195031D01*
X18828566Y-19185507D01*
X18876185Y-19185507D01*
X18895233Y-19195031D01*
X18904757Y-19204555D01*
X18914280Y-19223603D01*
X18914280Y-19271222D01*
X18904757Y-19290269D01*
X18895233Y-19299793D01*
X18876185Y-19309317D01*
X18828566Y-19309317D01*
X18809519Y-19299793D01*
X18799995Y-19290269D01*
X19038090Y-19109317D02*
X19057138Y-19109317D01*
X19076185Y-19118841D01*
X19085709Y-19128364D01*
X19095233Y-19147412D01*
X19104757Y-19185507D01*
X19104757Y-19233126D01*
X19095233Y-19271222D01*
X19085709Y-19290269D01*
X19076185Y-19299793D01*
X19057138Y-19309317D01*
X19038090Y-19309317D01*
X19019042Y-19299793D01*
X19009519Y-19290269D01*
X18999995Y-19271222D01*
X18990471Y-19233126D01*
X18990471Y-19185507D01*
X18999995Y-19147412D01*
X19009519Y-19128364D01*
X19019042Y-19118841D01*
X19038090Y-19109317D01*
X19228566Y-19109317D02*
X19247614Y-19109317D01*
X19266661Y-19118841D01*
X19276185Y-19128364D01*
X19285709Y-19147412D01*
X19295233Y-19185507D01*
X19295233Y-19233126D01*
X19285709Y-19271222D01*
X19276185Y-19290269D01*
X19266661Y-19299793D01*
X19247614Y-19309317D01*
X19228566Y-19309317D01*
X19209519Y-19299793D01*
X19199995Y-19290269D01*
X19190471Y-19271222D01*
X19180947Y-19233126D01*
X19180947Y-19185507D01*
X19190471Y-19147412D01*
X19199995Y-19128364D01*
X19209519Y-19118841D01*
X19228566Y-19109317D01*
X19380947Y-19309317D02*
X19380947Y-19175983D01*
X19380947Y-19195031D02*
X19390471Y-19185507D01*
X19409519Y-19175983D01*
X19438090Y-19175983D01*
X19457138Y-19185507D01*
X19466661Y-19204555D01*
X19466661Y-19309317D01*
X19466661Y-19204555D02*
X19476185Y-19185507D01*
X19495233Y-19175983D01*
X19523804Y-19175983D01*
X19542852Y-19185507D01*
X19552376Y-19204555D01*
X19552376Y-19309317D01*
X19647614Y-19309317D02*
X19647614Y-19175983D01*
X19647614Y-19195031D02*
X19657138Y-19185507D01*
X19676185Y-19175983D01*
X19704757Y-19175983D01*
X19723804Y-19185507D01*
X19733328Y-19204555D01*
X19733328Y-19309317D01*
X19733328Y-19204555D02*
X19742852Y-19185507D01*
X19761899Y-19175983D01*
X19790471Y-19175983D01*
X19809519Y-19185507D01*
X19819042Y-19204555D01*
X19819042Y-19309317D01*
X20209519Y-19099793D02*
X20038090Y-19356936D01*
X20466661Y-19109317D02*
X20485709Y-19109317D01*
X20504757Y-19118841D01*
X20514280Y-19128364D01*
X20523804Y-19147412D01*
X20533328Y-19185507D01*
X20533328Y-19233126D01*
X20523804Y-19271222D01*
X20514280Y-19290269D01*
X20504757Y-19299793D01*
X20485709Y-19309317D01*
X20466661Y-19309317D01*
X20447614Y-19299793D01*
X20438090Y-19290269D01*
X20428566Y-19271222D01*
X20419042Y-19233126D01*
X20419042Y-19185507D01*
X20428566Y-19147412D01*
X20438090Y-19128364D01*
X20447614Y-19118841D01*
X20466661Y-19109317D01*
X20619042Y-19290269D02*
X20628566Y-19299793D01*
X20619042Y-19309317D01*
X20609519Y-19299793D01*
X20619042Y-19290269D01*
X20619042Y-19309317D01*
X20752376Y-19109317D02*
X20771423Y-19109317D01*
X20790471Y-19118841D01*
X20799995Y-19128364D01*
X20809519Y-19147412D01*
X20819042Y-19185507D01*
X20819042Y-19233126D01*
X20809519Y-19271222D01*
X20799995Y-19290269D01*
X20790471Y-19299793D01*
X20771423Y-19309317D01*
X20752376Y-19309317D01*
X20733328Y-19299793D01*
X20723804Y-19290269D01*
X20714280Y-19271222D01*
X20704757Y-19233126D01*
X20704757Y-19185507D01*
X20714280Y-19147412D01*
X20723804Y-19128364D01*
X20733328Y-19118841D01*
X20752376Y-19109317D01*
X21009519Y-19309317D02*
X20895233Y-19309317D01*
X20952376Y-19309317D02*
X20952376Y-19109317D01*
X20933328Y-19137888D01*
X20914280Y-19156936D01*
X20895233Y-19166460D01*
X21104757Y-19309317D02*
X21142852Y-19309317D01*
X21161899Y-19299793D01*
X21171423Y-19290269D01*
X21190471Y-19261698D01*
X21199995Y-19223603D01*
X21199995Y-19147412D01*
X21190471Y-19128364D01*
X21180947Y-19118841D01*
X21161899Y-19109317D01*
X21123804Y-19109317D01*
X21104757Y-19118841D01*
X21095233Y-19128364D01*
X21085709Y-19147412D01*
X21085709Y-19195031D01*
X21095233Y-19214079D01*
X21104757Y-19223603D01*
X21123804Y-19233126D01*
X21161899Y-19233126D01*
X21180947Y-19223603D01*
X21190471Y-19214079D01*
X21199995Y-19195031D01*
X21266661Y-19109317D02*
X21399995Y-19109317D01*
X21314280Y-19309317D01*
X21466661Y-19109317D02*
X21466661Y-19147412D01*
X21542852Y-19109317D02*
X21542852Y-19147412D01*
X21838090Y-19385507D02*
X21828566Y-19375983D01*
X21809519Y-19347412D01*
X21799995Y-19328364D01*
X21790471Y-19299793D01*
X21780947Y-19252174D01*
X21780947Y-19214079D01*
X21790471Y-19166460D01*
X21799995Y-19137888D01*
X21809519Y-19118841D01*
X21828566Y-19090269D01*
X21838090Y-19080745D01*
X21942852Y-19195031D02*
X21923804Y-19185507D01*
X21914280Y-19175983D01*
X21904757Y-19156936D01*
X21904757Y-19147412D01*
X21914280Y-19128364D01*
X21923804Y-19118841D01*
X21942852Y-19109317D01*
X21980947Y-19109317D01*
X21999995Y-19118841D01*
X22009519Y-19128364D01*
X22019042Y-19147412D01*
X22019042Y-19156936D01*
X22009519Y-19175983D01*
X21999995Y-19185507D01*
X21980947Y-19195031D01*
X21942852Y-19195031D01*
X21923804Y-19204555D01*
X21914280Y-19214079D01*
X21904757Y-19233126D01*
X21904757Y-19271222D01*
X21914280Y-19290269D01*
X21923804Y-19299793D01*
X21942852Y-19309317D01*
X21980947Y-19309317D01*
X21999995Y-19299793D01*
X22009519Y-19290269D01*
X22019042Y-19271222D01*
X22019042Y-19233126D01*
X22009519Y-19214079D01*
X21999995Y-19204555D01*
X21980947Y-19195031D01*
X22257138Y-19309317D02*
X22257138Y-19109317D01*
X22342852Y-19309317D02*
X22342852Y-19204555D01*
X22333328Y-19185507D01*
X22314280Y-19175983D01*
X22285709Y-19175983D01*
X22266661Y-19185507D01*
X22257138Y-19195031D01*
X22466661Y-19309317D02*
X22447614Y-19299793D01*
X22438090Y-19290269D01*
X22428566Y-19271222D01*
X22428566Y-19214079D01*
X22438090Y-19195031D01*
X22447614Y-19185507D01*
X22466661Y-19175983D01*
X22495233Y-19175983D01*
X22514280Y-19185507D01*
X22523804Y-19195031D01*
X22533328Y-19214079D01*
X22533328Y-19271222D01*
X22523804Y-19290269D01*
X22514280Y-19299793D01*
X22495233Y-19309317D01*
X22466661Y-19309317D01*
X22647614Y-19309317D02*
X22628566Y-19299793D01*
X22619042Y-19280745D01*
X22619042Y-19109317D01*
X22799995Y-19299793D02*
X22780947Y-19309317D01*
X22742852Y-19309317D01*
X22723804Y-19299793D01*
X22714280Y-19280745D01*
X22714280Y-19204555D01*
X22723804Y-19185507D01*
X22742852Y-19175983D01*
X22780947Y-19175983D01*
X22799995Y-19185507D01*
X22809518Y-19204555D01*
X22809518Y-19223603D01*
X22714280Y-19242650D01*
X22885709Y-19299793D02*
X22904757Y-19309317D01*
X22942852Y-19309317D01*
X22961899Y-19299793D01*
X22971423Y-19280745D01*
X22971423Y-19271222D01*
X22961899Y-19252174D01*
X22942852Y-19242650D01*
X22914280Y-19242650D01*
X22895233Y-19233126D01*
X22885709Y-19214079D01*
X22885709Y-19204555D01*
X22895233Y-19185507D01*
X22914280Y-19175983D01*
X22942852Y-19175983D01*
X22961899Y-19185507D01*
X23038090Y-19385507D02*
X23047614Y-19375983D01*
X23066661Y-19347412D01*
X23076185Y-19328364D01*
X23085709Y-19299793D01*
X23095233Y-19252174D01*
X23095233Y-19214079D01*
X23085709Y-19166460D01*
X23076185Y-19137888D01*
X23066661Y-19118841D01*
X23047614Y-19090269D01*
X23038090Y-19080745D01*
D15*
X18257399Y-19504054D02*
X18257399Y-19461627D01*
X18214972Y-19461627D01*
X18214972Y-19504054D01*
X18257399Y-19504054D01*
D11*
X18561899Y-19373317D02*
X18580947Y-19373317D01*
X18599995Y-19382841D01*
X18609519Y-19392364D01*
X18619042Y-19411412D01*
X18628566Y-19449507D01*
X18628566Y-19497126D01*
X18619042Y-19535222D01*
X18609519Y-19554269D01*
X18599995Y-19563793D01*
X18580947Y-19573317D01*
X18561899Y-19573317D01*
X18542852Y-19563793D01*
X18533328Y-19554269D01*
X18523804Y-19535222D01*
X18514280Y-19497126D01*
X18514280Y-19449507D01*
X18523804Y-19411412D01*
X18533328Y-19392364D01*
X18542852Y-19382841D01*
X18561899Y-19373317D01*
X18714280Y-19554269D02*
X18723804Y-19563793D01*
X18714280Y-19573317D01*
X18704757Y-19563793D01*
X18714280Y-19554269D01*
X18714280Y-19573317D01*
X18895233Y-19373317D02*
X18857138Y-19373317D01*
X18838090Y-19382841D01*
X18828566Y-19392364D01*
X18809519Y-19420936D01*
X18799995Y-19459031D01*
X18799995Y-19535222D01*
X18809519Y-19554269D01*
X18819042Y-19563793D01*
X18838090Y-19573317D01*
X18876185Y-19573317D01*
X18895233Y-19563793D01*
X18904757Y-19554269D01*
X18914280Y-19535222D01*
X18914280Y-19487603D01*
X18904757Y-19468555D01*
X18895233Y-19459031D01*
X18876185Y-19449507D01*
X18838090Y-19449507D01*
X18819042Y-19459031D01*
X18809519Y-19468555D01*
X18799995Y-19487603D01*
X19038090Y-19373317D02*
X19057138Y-19373317D01*
X19076185Y-19382841D01*
X19085709Y-19392364D01*
X19095233Y-19411412D01*
X19104757Y-19449507D01*
X19104757Y-19497126D01*
X19095233Y-19535222D01*
X19085709Y-19554269D01*
X19076185Y-19563793D01*
X19057138Y-19573317D01*
X19038090Y-19573317D01*
X19019042Y-19563793D01*
X19009519Y-19554269D01*
X18999995Y-19535222D01*
X18990471Y-19497126D01*
X18990471Y-19449507D01*
X18999995Y-19411412D01*
X19009519Y-19392364D01*
X19019042Y-19382841D01*
X19038090Y-19373317D01*
X19228566Y-19373317D02*
X19247614Y-19373317D01*
X19266661Y-19382841D01*
X19276185Y-19392364D01*
X19285709Y-19411412D01*
X19295233Y-19449507D01*
X19295233Y-19497126D01*
X19285709Y-19535222D01*
X19276185Y-19554269D01*
X19266661Y-19563793D01*
X19247614Y-19573317D01*
X19228566Y-19573317D01*
X19209519Y-19563793D01*
X19199995Y-19554269D01*
X19190471Y-19535222D01*
X19180947Y-19497126D01*
X19180947Y-19449507D01*
X19190471Y-19411412D01*
X19199995Y-19392364D01*
X19209519Y-19382841D01*
X19228566Y-19373317D01*
X19380947Y-19573317D02*
X19380947Y-19439983D01*
X19380947Y-19459031D02*
X19390471Y-19449507D01*
X19409519Y-19439983D01*
X19438090Y-19439983D01*
X19457138Y-19449507D01*
X19466661Y-19468555D01*
X19466661Y-19573317D01*
X19466661Y-19468555D02*
X19476185Y-19449507D01*
X19495233Y-19439983D01*
X19523804Y-19439983D01*
X19542852Y-19449507D01*
X19552376Y-19468555D01*
X19552376Y-19573317D01*
X19647614Y-19573317D02*
X19647614Y-19439983D01*
X19647614Y-19459031D02*
X19657138Y-19449507D01*
X19676185Y-19439983D01*
X19704757Y-19439983D01*
X19723804Y-19449507D01*
X19733328Y-19468555D01*
X19733328Y-19573317D01*
X19733328Y-19468555D02*
X19742852Y-19449507D01*
X19761899Y-19439983D01*
X19790471Y-19439983D01*
X19809519Y-19449507D01*
X19819042Y-19468555D01*
X19819042Y-19573317D01*
X20209519Y-19363793D02*
X20038090Y-19620936D01*
X20466661Y-19373317D02*
X20485709Y-19373317D01*
X20504757Y-19382841D01*
X20514280Y-19392364D01*
X20523804Y-19411412D01*
X20533328Y-19449507D01*
X20533328Y-19497126D01*
X20523804Y-19535222D01*
X20514280Y-19554269D01*
X20504757Y-19563793D01*
X20485709Y-19573317D01*
X20466661Y-19573317D01*
X20447614Y-19563793D01*
X20438090Y-19554269D01*
X20428566Y-19535222D01*
X20419042Y-19497126D01*
X20419042Y-19449507D01*
X20428566Y-19411412D01*
X20438090Y-19392364D01*
X20447614Y-19382841D01*
X20466661Y-19373317D01*
X20619042Y-19554269D02*
X20628566Y-19563793D01*
X20619042Y-19573317D01*
X20609519Y-19563793D01*
X20619042Y-19554269D01*
X20619042Y-19573317D01*
X20752376Y-19373317D02*
X20771423Y-19373317D01*
X20790471Y-19382841D01*
X20799995Y-19392364D01*
X20809519Y-19411412D01*
X20819042Y-19449507D01*
X20819042Y-19497126D01*
X20809519Y-19535222D01*
X20799995Y-19554269D01*
X20790471Y-19563793D01*
X20771423Y-19573317D01*
X20752376Y-19573317D01*
X20733328Y-19563793D01*
X20723804Y-19554269D01*
X20714280Y-19535222D01*
X20704757Y-19497126D01*
X20704757Y-19449507D01*
X20714280Y-19411412D01*
X20723804Y-19392364D01*
X20733328Y-19382841D01*
X20752376Y-19373317D01*
X20895233Y-19392364D02*
X20904757Y-19382841D01*
X20923804Y-19373317D01*
X20971423Y-19373317D01*
X20990471Y-19382841D01*
X20999995Y-19392364D01*
X21009519Y-19411412D01*
X21009519Y-19430460D01*
X20999995Y-19459031D01*
X20885709Y-19573317D01*
X21009519Y-19573317D01*
X21076185Y-19373317D02*
X21199995Y-19373317D01*
X21133328Y-19449507D01*
X21161899Y-19449507D01*
X21180947Y-19459031D01*
X21190471Y-19468555D01*
X21199995Y-19487603D01*
X21199995Y-19535222D01*
X21190471Y-19554269D01*
X21180947Y-19563793D01*
X21161899Y-19573317D01*
X21104757Y-19573317D01*
X21085709Y-19563793D01*
X21076185Y-19554269D01*
X21371423Y-19373317D02*
X21333328Y-19373317D01*
X21314280Y-19382841D01*
X21304757Y-19392364D01*
X21285709Y-19420936D01*
X21276185Y-19459031D01*
X21276185Y-19535222D01*
X21285709Y-19554269D01*
X21295233Y-19563793D01*
X21314280Y-19573317D01*
X21352376Y-19573317D01*
X21371423Y-19563793D01*
X21380947Y-19554269D01*
X21390471Y-19535222D01*
X21390471Y-19487603D01*
X21380947Y-19468555D01*
X21371423Y-19459031D01*
X21352376Y-19449507D01*
X21314280Y-19449507D01*
X21295233Y-19459031D01*
X21285709Y-19468555D01*
X21276185Y-19487603D01*
X21466661Y-19373317D02*
X21466661Y-19411412D01*
X21542852Y-19373317D02*
X21542852Y-19411412D01*
X21838090Y-19649507D02*
X21828566Y-19639983D01*
X21809519Y-19611412D01*
X21799995Y-19592364D01*
X21790471Y-19563793D01*
X21780947Y-19516174D01*
X21780947Y-19478079D01*
X21790471Y-19430460D01*
X21799995Y-19401888D01*
X21809519Y-19382841D01*
X21828566Y-19354269D01*
X21838090Y-19344745D01*
X21952376Y-19373317D02*
X21971423Y-19373317D01*
X21990471Y-19382841D01*
X21999995Y-19392364D01*
X22009519Y-19411412D01*
X22019042Y-19449507D01*
X22019042Y-19497126D01*
X22009519Y-19535222D01*
X21999995Y-19554269D01*
X21990471Y-19563793D01*
X21971423Y-19573317D01*
X21952376Y-19573317D01*
X21933328Y-19563793D01*
X21923804Y-19554269D01*
X21914280Y-19535222D01*
X21904757Y-19497126D01*
X21904757Y-19449507D01*
X21914280Y-19411412D01*
X21923804Y-19392364D01*
X21933328Y-19382841D01*
X21952376Y-19373317D01*
X22257138Y-19573317D02*
X22257138Y-19373317D01*
X22342852Y-19573317D02*
X22342852Y-19468555D01*
X22333328Y-19449507D01*
X22314280Y-19439983D01*
X22285709Y-19439983D01*
X22266661Y-19449507D01*
X22257138Y-19459031D01*
X22466661Y-19573317D02*
X22447614Y-19563793D01*
X22438090Y-19554269D01*
X22428566Y-19535222D01*
X22428566Y-19478079D01*
X22438090Y-19459031D01*
X22447614Y-19449507D01*
X22466661Y-19439983D01*
X22495233Y-19439983D01*
X22514280Y-19449507D01*
X22523804Y-19459031D01*
X22533328Y-19478079D01*
X22533328Y-19535222D01*
X22523804Y-19554269D01*
X22514280Y-19563793D01*
X22495233Y-19573317D01*
X22466661Y-19573317D01*
X22647614Y-19573317D02*
X22628566Y-19563793D01*
X22619042Y-19544745D01*
X22619042Y-19373317D01*
X22799995Y-19563793D02*
X22780947Y-19573317D01*
X22742852Y-19573317D01*
X22723804Y-19563793D01*
X22714280Y-19544745D01*
X22714280Y-19468555D01*
X22723804Y-19449507D01*
X22742852Y-19439983D01*
X22780947Y-19439983D01*
X22799995Y-19449507D01*
X22809518Y-19468555D01*
X22809518Y-19487603D01*
X22714280Y-19506650D01*
X22885709Y-19563793D02*
X22904757Y-19573317D01*
X22942852Y-19573317D01*
X22961899Y-19563793D01*
X22971423Y-19544745D01*
X22971423Y-19535222D01*
X22961899Y-19516174D01*
X22942852Y-19506650D01*
X22914280Y-19506650D01*
X22895233Y-19497126D01*
X22885709Y-19478079D01*
X22885709Y-19468555D01*
X22895233Y-19449507D01*
X22914280Y-19439983D01*
X22942852Y-19439983D01*
X22961899Y-19449507D01*
X23209518Y-19497126D02*
X23361899Y-19497126D01*
X23285709Y-19573317D02*
X23285709Y-19420936D01*
X23599995Y-19392364D02*
X23609518Y-19382841D01*
X23628566Y-19373317D01*
X23676185Y-19373317D01*
X23695233Y-19382841D01*
X23704757Y-19392364D01*
X23714280Y-19411412D01*
X23714280Y-19430460D01*
X23704757Y-19459031D01*
X23590471Y-19573317D01*
X23714280Y-19573317D01*
X23942852Y-19563793D02*
X23961899Y-19573317D01*
X23999995Y-19573317D01*
X24019042Y-19563793D01*
X24028566Y-19544745D01*
X24028566Y-19535222D01*
X24019042Y-19516174D01*
X23999995Y-19506650D01*
X23971423Y-19506650D01*
X23952376Y-19497126D01*
X23942852Y-19478079D01*
X23942852Y-19468555D01*
X23952376Y-19449507D01*
X23971423Y-19439983D01*
X23999995Y-19439983D01*
X24019042Y-19449507D01*
X24142852Y-19573317D02*
X24123804Y-19563793D01*
X24114280Y-19544745D01*
X24114280Y-19373317D01*
X24247614Y-19573317D02*
X24228566Y-19563793D01*
X24219042Y-19554269D01*
X24209518Y-19535222D01*
X24209518Y-19478079D01*
X24219042Y-19459031D01*
X24228566Y-19449507D01*
X24247614Y-19439983D01*
X24276185Y-19439983D01*
X24295233Y-19449507D01*
X24304757Y-19459031D01*
X24314280Y-19478079D01*
X24314280Y-19535222D01*
X24304757Y-19554269D01*
X24295233Y-19563793D01*
X24276185Y-19573317D01*
X24247614Y-19573317D01*
X24371423Y-19439983D02*
X24447614Y-19439983D01*
X24399995Y-19373317D02*
X24399995Y-19544745D01*
X24409518Y-19563793D01*
X24428566Y-19573317D01*
X24447614Y-19573317D01*
X24504757Y-19563793D02*
X24523804Y-19573317D01*
X24561899Y-19573317D01*
X24580947Y-19563793D01*
X24590471Y-19544745D01*
X24590471Y-19535222D01*
X24580947Y-19516174D01*
X24561899Y-19506650D01*
X24533328Y-19506650D01*
X24514280Y-19497126D01*
X24504757Y-19478079D01*
X24504757Y-19468555D01*
X24514280Y-19449507D01*
X24533328Y-19439983D01*
X24561899Y-19439983D01*
X24580947Y-19449507D01*
X24657137Y-19649507D02*
X24666661Y-19639983D01*
X24685709Y-19611412D01*
X24695233Y-19592364D01*
X24704757Y-19563793D01*
X24714280Y-19516174D01*
X24714280Y-19478079D01*
X24704757Y-19430460D01*
X24695233Y-19401888D01*
X24685709Y-19382841D01*
X24666661Y-19354269D01*
X24657137Y-19344745D01*
D16*
X18233685Y-19779341D02*
X18266185Y-19746841D01*
X18233685Y-19714341D01*
X18201185Y-19746841D01*
X18233685Y-19779341D01*
D11*
X18561899Y-19637317D02*
X18580947Y-19637317D01*
X18599995Y-19646841D01*
X18609519Y-19656364D01*
X18619042Y-19675412D01*
X18628566Y-19713507D01*
X18628566Y-19761126D01*
X18619042Y-19799222D01*
X18609519Y-19818269D01*
X18599995Y-19827793D01*
X18580947Y-19837317D01*
X18561899Y-19837317D01*
X18542852Y-19827793D01*
X18533328Y-19818269D01*
X18523804Y-19799222D01*
X18514280Y-19761126D01*
X18514280Y-19713507D01*
X18523804Y-19675412D01*
X18533328Y-19656364D01*
X18542852Y-19646841D01*
X18561899Y-19637317D01*
X18714280Y-19818269D02*
X18723804Y-19827793D01*
X18714280Y-19837317D01*
X18704757Y-19827793D01*
X18714280Y-19818269D01*
X18714280Y-19837317D01*
X18895233Y-19637317D02*
X18857138Y-19637317D01*
X18838090Y-19646841D01*
X18828566Y-19656364D01*
X18809519Y-19684936D01*
X18799995Y-19723031D01*
X18799995Y-19799222D01*
X18809519Y-19818269D01*
X18819042Y-19827793D01*
X18838090Y-19837317D01*
X18876185Y-19837317D01*
X18895233Y-19827793D01*
X18904757Y-19818269D01*
X18914280Y-19799222D01*
X18914280Y-19751603D01*
X18904757Y-19732555D01*
X18895233Y-19723031D01*
X18876185Y-19713507D01*
X18838090Y-19713507D01*
X18819042Y-19723031D01*
X18809519Y-19732555D01*
X18799995Y-19751603D01*
X19095233Y-19637317D02*
X18999995Y-19637317D01*
X18990471Y-19732555D01*
X18999995Y-19723031D01*
X19019042Y-19713507D01*
X19066661Y-19713507D01*
X19085709Y-19723031D01*
X19095233Y-19732555D01*
X19104757Y-19751603D01*
X19104757Y-19799222D01*
X19095233Y-19818269D01*
X19085709Y-19827793D01*
X19066661Y-19837317D01*
X19019042Y-19837317D01*
X18999995Y-19827793D01*
X18990471Y-19818269D01*
X19228566Y-19637317D02*
X19247614Y-19637317D01*
X19266661Y-19646841D01*
X19276185Y-19656364D01*
X19285709Y-19675412D01*
X19295233Y-19713507D01*
X19295233Y-19761126D01*
X19285709Y-19799222D01*
X19276185Y-19818269D01*
X19266661Y-19827793D01*
X19247614Y-19837317D01*
X19228566Y-19837317D01*
X19209519Y-19827793D01*
X19199995Y-19818269D01*
X19190471Y-19799222D01*
X19180947Y-19761126D01*
X19180947Y-19713507D01*
X19190471Y-19675412D01*
X19199995Y-19656364D01*
X19209519Y-19646841D01*
X19228566Y-19637317D01*
X19380947Y-19837317D02*
X19380947Y-19703983D01*
X19380947Y-19723031D02*
X19390471Y-19713507D01*
X19409519Y-19703983D01*
X19438090Y-19703983D01*
X19457138Y-19713507D01*
X19466661Y-19732555D01*
X19466661Y-19837317D01*
X19466661Y-19732555D02*
X19476185Y-19713507D01*
X19495233Y-19703983D01*
X19523804Y-19703983D01*
X19542852Y-19713507D01*
X19552376Y-19732555D01*
X19552376Y-19837317D01*
X19647614Y-19837317D02*
X19647614Y-19703983D01*
X19647614Y-19723031D02*
X19657138Y-19713507D01*
X19676185Y-19703983D01*
X19704757Y-19703983D01*
X19723804Y-19713507D01*
X19733328Y-19732555D01*
X19733328Y-19837317D01*
X19733328Y-19732555D02*
X19742852Y-19713507D01*
X19761899Y-19703983D01*
X19790471Y-19703983D01*
X19809519Y-19713507D01*
X19819042Y-19732555D01*
X19819042Y-19837317D01*
X20209519Y-19627793D02*
X20038090Y-19884936D01*
X20466661Y-19637317D02*
X20485709Y-19637317D01*
X20504757Y-19646841D01*
X20514280Y-19656364D01*
X20523804Y-19675412D01*
X20533328Y-19713507D01*
X20533328Y-19761126D01*
X20523804Y-19799222D01*
X20514280Y-19818269D01*
X20504757Y-19827793D01*
X20485709Y-19837317D01*
X20466661Y-19837317D01*
X20447614Y-19827793D01*
X20438090Y-19818269D01*
X20428566Y-19799222D01*
X20419042Y-19761126D01*
X20419042Y-19713507D01*
X20428566Y-19675412D01*
X20438090Y-19656364D01*
X20447614Y-19646841D01*
X20466661Y-19637317D01*
X20619042Y-19818269D02*
X20628566Y-19827793D01*
X20619042Y-19837317D01*
X20609519Y-19827793D01*
X20619042Y-19818269D01*
X20619042Y-19837317D01*
X20752376Y-19637317D02*
X20771423Y-19637317D01*
X20790471Y-19646841D01*
X20799995Y-19656364D01*
X20809519Y-19675412D01*
X20819042Y-19713507D01*
X20819042Y-19761126D01*
X20809519Y-19799222D01*
X20799995Y-19818269D01*
X20790471Y-19827793D01*
X20771423Y-19837317D01*
X20752376Y-19837317D01*
X20733328Y-19827793D01*
X20723804Y-19818269D01*
X20714280Y-19799222D01*
X20704757Y-19761126D01*
X20704757Y-19713507D01*
X20714280Y-19675412D01*
X20723804Y-19656364D01*
X20733328Y-19646841D01*
X20752376Y-19637317D01*
X20895233Y-19656364D02*
X20904757Y-19646841D01*
X20923804Y-19637317D01*
X20971423Y-19637317D01*
X20990471Y-19646841D01*
X20999995Y-19656364D01*
X21009519Y-19675412D01*
X21009519Y-19694460D01*
X20999995Y-19723031D01*
X20885709Y-19837317D01*
X21009519Y-19837317D01*
X21190471Y-19637317D02*
X21095233Y-19637317D01*
X21085709Y-19732555D01*
X21095233Y-19723031D01*
X21114280Y-19713507D01*
X21161899Y-19713507D01*
X21180947Y-19723031D01*
X21190471Y-19732555D01*
X21199995Y-19751603D01*
X21199995Y-19799222D01*
X21190471Y-19818269D01*
X21180947Y-19827793D01*
X21161899Y-19837317D01*
X21114280Y-19837317D01*
X21095233Y-19827793D01*
X21085709Y-19818269D01*
X21371423Y-19637317D02*
X21333328Y-19637317D01*
X21314280Y-19646841D01*
X21304757Y-19656364D01*
X21285709Y-19684936D01*
X21276185Y-19723031D01*
X21276185Y-19799222D01*
X21285709Y-19818269D01*
X21295233Y-19827793D01*
X21314280Y-19837317D01*
X21352376Y-19837317D01*
X21371423Y-19827793D01*
X21380947Y-19818269D01*
X21390471Y-19799222D01*
X21390471Y-19751603D01*
X21380947Y-19732555D01*
X21371423Y-19723031D01*
X21352376Y-19713507D01*
X21314280Y-19713507D01*
X21295233Y-19723031D01*
X21285709Y-19732555D01*
X21276185Y-19751603D01*
X21466661Y-19637317D02*
X21466661Y-19675412D01*
X21542852Y-19637317D02*
X21542852Y-19675412D01*
X21838090Y-19913507D02*
X21828566Y-19903983D01*
X21809519Y-19875412D01*
X21799995Y-19856364D01*
X21790471Y-19827793D01*
X21780947Y-19780174D01*
X21780947Y-19742079D01*
X21790471Y-19694460D01*
X21799995Y-19665888D01*
X21809519Y-19646841D01*
X21828566Y-19618269D01*
X21838090Y-19608745D01*
X21952376Y-19637317D02*
X21971423Y-19637317D01*
X21990471Y-19646841D01*
X21999995Y-19656364D01*
X22009519Y-19675412D01*
X22019042Y-19713507D01*
X22019042Y-19761126D01*
X22009519Y-19799222D01*
X21999995Y-19818269D01*
X21990471Y-19827793D01*
X21971423Y-19837317D01*
X21952376Y-19837317D01*
X21933328Y-19827793D01*
X21923804Y-19818269D01*
X21914280Y-19799222D01*
X21904757Y-19761126D01*
X21904757Y-19713507D01*
X21914280Y-19675412D01*
X21923804Y-19656364D01*
X21933328Y-19646841D01*
X21952376Y-19637317D01*
X22257138Y-19837317D02*
X22257138Y-19637317D01*
X22342852Y-19837317D02*
X22342852Y-19732555D01*
X22333328Y-19713507D01*
X22314280Y-19703983D01*
X22285709Y-19703983D01*
X22266661Y-19713507D01*
X22257138Y-19723031D01*
X22466661Y-19837317D02*
X22447614Y-19827793D01*
X22438090Y-19818269D01*
X22428566Y-19799222D01*
X22428566Y-19742079D01*
X22438090Y-19723031D01*
X22447614Y-19713507D01*
X22466661Y-19703983D01*
X22495233Y-19703983D01*
X22514280Y-19713507D01*
X22523804Y-19723031D01*
X22533328Y-19742079D01*
X22533328Y-19799222D01*
X22523804Y-19818269D01*
X22514280Y-19827793D01*
X22495233Y-19837317D01*
X22466661Y-19837317D01*
X22647614Y-19837317D02*
X22628566Y-19827793D01*
X22619042Y-19808745D01*
X22619042Y-19637317D01*
X22799995Y-19827793D02*
X22780947Y-19837317D01*
X22742852Y-19837317D01*
X22723804Y-19827793D01*
X22714280Y-19808745D01*
X22714280Y-19732555D01*
X22723804Y-19713507D01*
X22742852Y-19703983D01*
X22780947Y-19703983D01*
X22799995Y-19713507D01*
X22809518Y-19732555D01*
X22809518Y-19751603D01*
X22714280Y-19770650D01*
X22885709Y-19827793D02*
X22904757Y-19837317D01*
X22942852Y-19837317D01*
X22961899Y-19827793D01*
X22971423Y-19808745D01*
X22971423Y-19799222D01*
X22961899Y-19780174D01*
X22942852Y-19770650D01*
X22914280Y-19770650D01*
X22895233Y-19761126D01*
X22885709Y-19742079D01*
X22885709Y-19732555D01*
X22895233Y-19713507D01*
X22914280Y-19703983D01*
X22942852Y-19703983D01*
X22961899Y-19713507D01*
X23209518Y-19761126D02*
X23361899Y-19761126D01*
X23285709Y-19837317D02*
X23285709Y-19684936D01*
X23599995Y-19656364D02*
X23609518Y-19646841D01*
X23628566Y-19637317D01*
X23676185Y-19637317D01*
X23695233Y-19646841D01*
X23704757Y-19656364D01*
X23714280Y-19675412D01*
X23714280Y-19694460D01*
X23704757Y-19723031D01*
X23590471Y-19837317D01*
X23714280Y-19837317D01*
X23942852Y-19827793D02*
X23961899Y-19837317D01*
X23999995Y-19837317D01*
X24019042Y-19827793D01*
X24028566Y-19808745D01*
X24028566Y-19799222D01*
X24019042Y-19780174D01*
X23999995Y-19770650D01*
X23971423Y-19770650D01*
X23952376Y-19761126D01*
X23942852Y-19742079D01*
X23942852Y-19732555D01*
X23952376Y-19713507D01*
X23971423Y-19703983D01*
X23999995Y-19703983D01*
X24019042Y-19713507D01*
X24142852Y-19837317D02*
X24123804Y-19827793D01*
X24114280Y-19808745D01*
X24114280Y-19637317D01*
X24247614Y-19837317D02*
X24228566Y-19827793D01*
X24219042Y-19818269D01*
X24209518Y-19799222D01*
X24209518Y-19742079D01*
X24219042Y-19723031D01*
X24228566Y-19713507D01*
X24247614Y-19703983D01*
X24276185Y-19703983D01*
X24295233Y-19713507D01*
X24304757Y-19723031D01*
X24314280Y-19742079D01*
X24314280Y-19799222D01*
X24304757Y-19818269D01*
X24295233Y-19827793D01*
X24276185Y-19837317D01*
X24247614Y-19837317D01*
X24371423Y-19703983D02*
X24447614Y-19703983D01*
X24399995Y-19637317D02*
X24399995Y-19808745D01*
X24409518Y-19827793D01*
X24428566Y-19837317D01*
X24447614Y-19837317D01*
X24504757Y-19827793D02*
X24523804Y-19837317D01*
X24561899Y-19837317D01*
X24580947Y-19827793D01*
X24590471Y-19808745D01*
X24590471Y-19799222D01*
X24580947Y-19780174D01*
X24561899Y-19770650D01*
X24533328Y-19770650D01*
X24514280Y-19761126D01*
X24504757Y-19742079D01*
X24504757Y-19732555D01*
X24514280Y-19713507D01*
X24533328Y-19703983D01*
X24561899Y-19703983D01*
X24580947Y-19713507D01*
X24657137Y-19913507D02*
X24666661Y-19903983D01*
X24685709Y-19875412D01*
X24695233Y-19856364D01*
X24704757Y-19827793D01*
X24714280Y-19780174D01*
X24714280Y-19742079D01*
X24704757Y-19694460D01*
X24695233Y-19665888D01*
X24685709Y-19646841D01*
X24666661Y-19618269D01*
X24657137Y-19608745D01*
D17*
X18191185Y-19973341D02*
X18266185Y-20048341D01*
X18266185Y-19973341D02*
X18191185Y-20048341D01*
X18266185Y-20010841D02*
G75*
G03*
X18266185Y-20010841I-37500J0D01*
G01*
D11*
X18561899Y-19901317D02*
X18580947Y-19901317D01*
X18599995Y-19910841D01*
X18609519Y-19920364D01*
X18619042Y-19939412D01*
X18628566Y-19977507D01*
X18628566Y-20025126D01*
X18619042Y-20063222D01*
X18609519Y-20082269D01*
X18599995Y-20091793D01*
X18580947Y-20101317D01*
X18561899Y-20101317D01*
X18542852Y-20091793D01*
X18533328Y-20082269D01*
X18523804Y-20063222D01*
X18514280Y-20025126D01*
X18514280Y-19977507D01*
X18523804Y-19939412D01*
X18533328Y-19920364D01*
X18542852Y-19910841D01*
X18561899Y-19901317D01*
X18714280Y-20082269D02*
X18723804Y-20091793D01*
X18714280Y-20101317D01*
X18704757Y-20091793D01*
X18714280Y-20082269D01*
X18714280Y-20101317D01*
X18790471Y-19901317D02*
X18923804Y-19901317D01*
X18838090Y-20101317D01*
X19095233Y-19901317D02*
X18999995Y-19901317D01*
X18990471Y-19996555D01*
X18999995Y-19987031D01*
X19019042Y-19977507D01*
X19066661Y-19977507D01*
X19085709Y-19987031D01*
X19095233Y-19996555D01*
X19104757Y-20015603D01*
X19104757Y-20063222D01*
X19095233Y-20082269D01*
X19085709Y-20091793D01*
X19066661Y-20101317D01*
X19019042Y-20101317D01*
X18999995Y-20091793D01*
X18990471Y-20082269D01*
X19228566Y-19901317D02*
X19247614Y-19901317D01*
X19266661Y-19910841D01*
X19276185Y-19920364D01*
X19285709Y-19939412D01*
X19295233Y-19977507D01*
X19295233Y-20025126D01*
X19285709Y-20063222D01*
X19276185Y-20082269D01*
X19266661Y-20091793D01*
X19247614Y-20101317D01*
X19228566Y-20101317D01*
X19209519Y-20091793D01*
X19199995Y-20082269D01*
X19190471Y-20063222D01*
X19180947Y-20025126D01*
X19180947Y-19977507D01*
X19190471Y-19939412D01*
X19199995Y-19920364D01*
X19209519Y-19910841D01*
X19228566Y-19901317D01*
X19380947Y-20101317D02*
X19380947Y-19967983D01*
X19380947Y-19987031D02*
X19390471Y-19977507D01*
X19409519Y-19967983D01*
X19438090Y-19967983D01*
X19457138Y-19977507D01*
X19466661Y-19996555D01*
X19466661Y-20101317D01*
X19466661Y-19996555D02*
X19476185Y-19977507D01*
X19495233Y-19967983D01*
X19523804Y-19967983D01*
X19542852Y-19977507D01*
X19552376Y-19996555D01*
X19552376Y-20101317D01*
X19647614Y-20101317D02*
X19647614Y-19967983D01*
X19647614Y-19987031D02*
X19657138Y-19977507D01*
X19676185Y-19967983D01*
X19704757Y-19967983D01*
X19723804Y-19977507D01*
X19733328Y-19996555D01*
X19733328Y-20101317D01*
X19733328Y-19996555D02*
X19742852Y-19977507D01*
X19761899Y-19967983D01*
X19790471Y-19967983D01*
X19809519Y-19977507D01*
X19819042Y-19996555D01*
X19819042Y-20101317D01*
X20209519Y-19891793D02*
X20038090Y-20148936D01*
X20466661Y-19901317D02*
X20485709Y-19901317D01*
X20504757Y-19910841D01*
X20514280Y-19920364D01*
X20523804Y-19939412D01*
X20533328Y-19977507D01*
X20533328Y-20025126D01*
X20523804Y-20063222D01*
X20514280Y-20082269D01*
X20504757Y-20091793D01*
X20485709Y-20101317D01*
X20466661Y-20101317D01*
X20447614Y-20091793D01*
X20438090Y-20082269D01*
X20428566Y-20063222D01*
X20419042Y-20025126D01*
X20419042Y-19977507D01*
X20428566Y-19939412D01*
X20438090Y-19920364D01*
X20447614Y-19910841D01*
X20466661Y-19901317D01*
X20619042Y-20082269D02*
X20628566Y-20091793D01*
X20619042Y-20101317D01*
X20609519Y-20091793D01*
X20619042Y-20082269D01*
X20619042Y-20101317D01*
X20752376Y-19901317D02*
X20771423Y-19901317D01*
X20790471Y-19910841D01*
X20799995Y-19920364D01*
X20809519Y-19939412D01*
X20819042Y-19977507D01*
X20819042Y-20025126D01*
X20809519Y-20063222D01*
X20799995Y-20082269D01*
X20790471Y-20091793D01*
X20771423Y-20101317D01*
X20752376Y-20101317D01*
X20733328Y-20091793D01*
X20723804Y-20082269D01*
X20714280Y-20063222D01*
X20704757Y-20025126D01*
X20704757Y-19977507D01*
X20714280Y-19939412D01*
X20723804Y-19920364D01*
X20733328Y-19910841D01*
X20752376Y-19901317D01*
X20895233Y-19920364D02*
X20904757Y-19910841D01*
X20923804Y-19901317D01*
X20971423Y-19901317D01*
X20990471Y-19910841D01*
X20999995Y-19920364D01*
X21009519Y-19939412D01*
X21009519Y-19958460D01*
X20999995Y-19987031D01*
X20885709Y-20101317D01*
X21009519Y-20101317D01*
X21104757Y-20101317D02*
X21142852Y-20101317D01*
X21161899Y-20091793D01*
X21171423Y-20082269D01*
X21190471Y-20053698D01*
X21199995Y-20015603D01*
X21199995Y-19939412D01*
X21190471Y-19920364D01*
X21180947Y-19910841D01*
X21161899Y-19901317D01*
X21123804Y-19901317D01*
X21104757Y-19910841D01*
X21095233Y-19920364D01*
X21085709Y-19939412D01*
X21085709Y-19987031D01*
X21095233Y-20006079D01*
X21104757Y-20015603D01*
X21123804Y-20025126D01*
X21161899Y-20025126D01*
X21180947Y-20015603D01*
X21190471Y-20006079D01*
X21199995Y-19987031D01*
X21380947Y-19901317D02*
X21285709Y-19901317D01*
X21276185Y-19996555D01*
X21285709Y-19987031D01*
X21304757Y-19977507D01*
X21352376Y-19977507D01*
X21371423Y-19987031D01*
X21380947Y-19996555D01*
X21390471Y-20015603D01*
X21390471Y-20063222D01*
X21380947Y-20082269D01*
X21371423Y-20091793D01*
X21352376Y-20101317D01*
X21304757Y-20101317D01*
X21285709Y-20091793D01*
X21276185Y-20082269D01*
X21466661Y-19901317D02*
X21466661Y-19939412D01*
X21542852Y-19901317D02*
X21542852Y-19939412D01*
X21838090Y-20177507D02*
X21828566Y-20167983D01*
X21809519Y-20139412D01*
X21799995Y-20120364D01*
X21790471Y-20091793D01*
X21780947Y-20044174D01*
X21780947Y-20006079D01*
X21790471Y-19958460D01*
X21799995Y-19929888D01*
X21809519Y-19910841D01*
X21828566Y-19882269D01*
X21838090Y-19872745D01*
X21999995Y-19967983D02*
X21999995Y-20101317D01*
X21952376Y-19891793D02*
X21904757Y-20034650D01*
X22028566Y-20034650D01*
X22257138Y-20101317D02*
X22257138Y-19901317D01*
X22342852Y-20101317D02*
X22342852Y-19996555D01*
X22333328Y-19977507D01*
X22314280Y-19967983D01*
X22285709Y-19967983D01*
X22266661Y-19977507D01*
X22257138Y-19987031D01*
X22466661Y-20101317D02*
X22447614Y-20091793D01*
X22438090Y-20082269D01*
X22428566Y-20063222D01*
X22428566Y-20006079D01*
X22438090Y-19987031D01*
X22447614Y-19977507D01*
X22466661Y-19967983D01*
X22495233Y-19967983D01*
X22514280Y-19977507D01*
X22523804Y-19987031D01*
X22533328Y-20006079D01*
X22533328Y-20063222D01*
X22523804Y-20082269D01*
X22514280Y-20091793D01*
X22495233Y-20101317D01*
X22466661Y-20101317D01*
X22647614Y-20101317D02*
X22628566Y-20091793D01*
X22619042Y-20072745D01*
X22619042Y-19901317D01*
X22799995Y-20091793D02*
X22780947Y-20101317D01*
X22742852Y-20101317D01*
X22723804Y-20091793D01*
X22714280Y-20072745D01*
X22714280Y-19996555D01*
X22723804Y-19977507D01*
X22742852Y-19967983D01*
X22780947Y-19967983D01*
X22799995Y-19977507D01*
X22809518Y-19996555D01*
X22809518Y-20015603D01*
X22714280Y-20034650D01*
X22885709Y-20091793D02*
X22904757Y-20101317D01*
X22942852Y-20101317D01*
X22961899Y-20091793D01*
X22971423Y-20072745D01*
X22971423Y-20063222D01*
X22961899Y-20044174D01*
X22942852Y-20034650D01*
X22914280Y-20034650D01*
X22895233Y-20025126D01*
X22885709Y-20006079D01*
X22885709Y-19996555D01*
X22895233Y-19977507D01*
X22914280Y-19967983D01*
X22942852Y-19967983D01*
X22961899Y-19977507D01*
X23038090Y-20177507D02*
X23047614Y-20167983D01*
X23066661Y-20139412D01*
X23076185Y-20120364D01*
X23085709Y-20091793D01*
X23095233Y-20044174D01*
X23095233Y-20006079D01*
X23085709Y-19958460D01*
X23076185Y-19929888D01*
X23066661Y-19910841D01*
X23047614Y-19882269D01*
X23038090Y-19872745D01*
D18*
X18186185Y-20234841D02*
X18266185Y-20314841D01*
X18266185Y-20234841D02*
X18186185Y-20314841D01*
X18226185Y-20234841D02*
X18226185Y-20314841D01*
X18186185Y-20274841D02*
X18266185Y-20274841D01*
D11*
X18561899Y-20165317D02*
X18580947Y-20165317D01*
X18599995Y-20174841D01*
X18609519Y-20184364D01*
X18619042Y-20203412D01*
X18628566Y-20241507D01*
X18628566Y-20289126D01*
X18619042Y-20327222D01*
X18609519Y-20346269D01*
X18599995Y-20355793D01*
X18580947Y-20365317D01*
X18561899Y-20365317D01*
X18542852Y-20355793D01*
X18533328Y-20346269D01*
X18523804Y-20327222D01*
X18514280Y-20289126D01*
X18514280Y-20241507D01*
X18523804Y-20203412D01*
X18533328Y-20184364D01*
X18542852Y-20174841D01*
X18561899Y-20165317D01*
X18714280Y-20346269D02*
X18723804Y-20355793D01*
X18714280Y-20365317D01*
X18704757Y-20355793D01*
X18714280Y-20346269D01*
X18714280Y-20365317D01*
X18838090Y-20251031D02*
X18819042Y-20241507D01*
X18809519Y-20231983D01*
X18799995Y-20212936D01*
X18799995Y-20203412D01*
X18809519Y-20184364D01*
X18819042Y-20174841D01*
X18838090Y-20165317D01*
X18876185Y-20165317D01*
X18895233Y-20174841D01*
X18904757Y-20184364D01*
X18914280Y-20203412D01*
X18914280Y-20212936D01*
X18904757Y-20231983D01*
X18895233Y-20241507D01*
X18876185Y-20251031D01*
X18838090Y-20251031D01*
X18819042Y-20260555D01*
X18809519Y-20270079D01*
X18799995Y-20289126D01*
X18799995Y-20327222D01*
X18809519Y-20346269D01*
X18819042Y-20355793D01*
X18838090Y-20365317D01*
X18876185Y-20365317D01*
X18895233Y-20355793D01*
X18904757Y-20346269D01*
X18914280Y-20327222D01*
X18914280Y-20289126D01*
X18904757Y-20270079D01*
X18895233Y-20260555D01*
X18876185Y-20251031D01*
X19038090Y-20165317D02*
X19057138Y-20165317D01*
X19076185Y-20174841D01*
X19085709Y-20184364D01*
X19095233Y-20203412D01*
X19104757Y-20241507D01*
X19104757Y-20289126D01*
X19095233Y-20327222D01*
X19085709Y-20346269D01*
X19076185Y-20355793D01*
X19057138Y-20365317D01*
X19038090Y-20365317D01*
X19019042Y-20355793D01*
X19009519Y-20346269D01*
X18999995Y-20327222D01*
X18990471Y-20289126D01*
X18990471Y-20241507D01*
X18999995Y-20203412D01*
X19009519Y-20184364D01*
X19019042Y-20174841D01*
X19038090Y-20165317D01*
X19228566Y-20165317D02*
X19247614Y-20165317D01*
X19266661Y-20174841D01*
X19276185Y-20184364D01*
X19285709Y-20203412D01*
X19295233Y-20241507D01*
X19295233Y-20289126D01*
X19285709Y-20327222D01*
X19276185Y-20346269D01*
X19266661Y-20355793D01*
X19247614Y-20365317D01*
X19228566Y-20365317D01*
X19209519Y-20355793D01*
X19199995Y-20346269D01*
X19190471Y-20327222D01*
X19180947Y-20289126D01*
X19180947Y-20241507D01*
X19190471Y-20203412D01*
X19199995Y-20184364D01*
X19209519Y-20174841D01*
X19228566Y-20165317D01*
X19380947Y-20365317D02*
X19380947Y-20231983D01*
X19380947Y-20251031D02*
X19390471Y-20241507D01*
X19409519Y-20231983D01*
X19438090Y-20231983D01*
X19457138Y-20241507D01*
X19466661Y-20260555D01*
X19466661Y-20365317D01*
X19466661Y-20260555D02*
X19476185Y-20241507D01*
X19495233Y-20231983D01*
X19523804Y-20231983D01*
X19542852Y-20241507D01*
X19552376Y-20260555D01*
X19552376Y-20365317D01*
X19647614Y-20365317D02*
X19647614Y-20231983D01*
X19647614Y-20251031D02*
X19657138Y-20241507D01*
X19676185Y-20231983D01*
X19704757Y-20231983D01*
X19723804Y-20241507D01*
X19733328Y-20260555D01*
X19733328Y-20365317D01*
X19733328Y-20260555D02*
X19742852Y-20241507D01*
X19761899Y-20231983D01*
X19790471Y-20231983D01*
X19809519Y-20241507D01*
X19819042Y-20260555D01*
X19819042Y-20365317D01*
X20209519Y-20155793D02*
X20038090Y-20412936D01*
X20466661Y-20165317D02*
X20485709Y-20165317D01*
X20504757Y-20174841D01*
X20514280Y-20184364D01*
X20523804Y-20203412D01*
X20533328Y-20241507D01*
X20533328Y-20289126D01*
X20523804Y-20327222D01*
X20514280Y-20346269D01*
X20504757Y-20355793D01*
X20485709Y-20365317D01*
X20466661Y-20365317D01*
X20447614Y-20355793D01*
X20438090Y-20346269D01*
X20428566Y-20327222D01*
X20419042Y-20289126D01*
X20419042Y-20241507D01*
X20428566Y-20203412D01*
X20438090Y-20184364D01*
X20447614Y-20174841D01*
X20466661Y-20165317D01*
X20619042Y-20346269D02*
X20628566Y-20355793D01*
X20619042Y-20365317D01*
X20609519Y-20355793D01*
X20619042Y-20346269D01*
X20619042Y-20365317D01*
X20752376Y-20165317D02*
X20771423Y-20165317D01*
X20790471Y-20174841D01*
X20799995Y-20184364D01*
X20809519Y-20203412D01*
X20819042Y-20241507D01*
X20819042Y-20289126D01*
X20809519Y-20327222D01*
X20799995Y-20346269D01*
X20790471Y-20355793D01*
X20771423Y-20365317D01*
X20752376Y-20365317D01*
X20733328Y-20355793D01*
X20723804Y-20346269D01*
X20714280Y-20327222D01*
X20704757Y-20289126D01*
X20704757Y-20241507D01*
X20714280Y-20203412D01*
X20723804Y-20184364D01*
X20733328Y-20174841D01*
X20752376Y-20165317D01*
X20885709Y-20165317D02*
X21009519Y-20165317D01*
X20942852Y-20241507D01*
X20971423Y-20241507D01*
X20990471Y-20251031D01*
X20999995Y-20260555D01*
X21009519Y-20279603D01*
X21009519Y-20327222D01*
X20999995Y-20346269D01*
X20990471Y-20355793D01*
X20971423Y-20365317D01*
X20914280Y-20365317D01*
X20895233Y-20355793D01*
X20885709Y-20346269D01*
X21199995Y-20365317D02*
X21085709Y-20365317D01*
X21142852Y-20365317D02*
X21142852Y-20165317D01*
X21123804Y-20193888D01*
X21104757Y-20212936D01*
X21085709Y-20222460D01*
X21380947Y-20165317D02*
X21285709Y-20165317D01*
X21276185Y-20260555D01*
X21285709Y-20251031D01*
X21304757Y-20241507D01*
X21352376Y-20241507D01*
X21371423Y-20251031D01*
X21380947Y-20260555D01*
X21390471Y-20279603D01*
X21390471Y-20327222D01*
X21380947Y-20346269D01*
X21371423Y-20355793D01*
X21352376Y-20365317D01*
X21304757Y-20365317D01*
X21285709Y-20355793D01*
X21276185Y-20346269D01*
X21466661Y-20165317D02*
X21466661Y-20203412D01*
X21542852Y-20165317D02*
X21542852Y-20203412D01*
X21838090Y-20441507D02*
X21828566Y-20431983D01*
X21809519Y-20403412D01*
X21799995Y-20384364D01*
X21790471Y-20355793D01*
X21780947Y-20308174D01*
X21780947Y-20270079D01*
X21790471Y-20222460D01*
X21799995Y-20193888D01*
X21809519Y-20174841D01*
X21828566Y-20146269D01*
X21838090Y-20136745D01*
X21942852Y-20251031D02*
X21923804Y-20241507D01*
X21914280Y-20231983D01*
X21904757Y-20212936D01*
X21904757Y-20203412D01*
X21914280Y-20184364D01*
X21923804Y-20174841D01*
X21942852Y-20165317D01*
X21980947Y-20165317D01*
X21999995Y-20174841D01*
X22009519Y-20184364D01*
X22019042Y-20203412D01*
X22019042Y-20212936D01*
X22009519Y-20231983D01*
X21999995Y-20241507D01*
X21980947Y-20251031D01*
X21942852Y-20251031D01*
X21923804Y-20260555D01*
X21914280Y-20270079D01*
X21904757Y-20289126D01*
X21904757Y-20327222D01*
X21914280Y-20346269D01*
X21923804Y-20355793D01*
X21942852Y-20365317D01*
X21980947Y-20365317D01*
X21999995Y-20355793D01*
X22009519Y-20346269D01*
X22019042Y-20327222D01*
X22019042Y-20289126D01*
X22009519Y-20270079D01*
X21999995Y-20260555D01*
X21980947Y-20251031D01*
X22257138Y-20365317D02*
X22257138Y-20165317D01*
X22342852Y-20365317D02*
X22342852Y-20260555D01*
X22333328Y-20241507D01*
X22314280Y-20231983D01*
X22285709Y-20231983D01*
X22266661Y-20241507D01*
X22257138Y-20251031D01*
X22466661Y-20365317D02*
X22447614Y-20355793D01*
X22438090Y-20346269D01*
X22428566Y-20327222D01*
X22428566Y-20270079D01*
X22438090Y-20251031D01*
X22447614Y-20241507D01*
X22466661Y-20231983D01*
X22495233Y-20231983D01*
X22514280Y-20241507D01*
X22523804Y-20251031D01*
X22533328Y-20270079D01*
X22533328Y-20327222D01*
X22523804Y-20346269D01*
X22514280Y-20355793D01*
X22495233Y-20365317D01*
X22466661Y-20365317D01*
X22647614Y-20365317D02*
X22628566Y-20355793D01*
X22619042Y-20336745D01*
X22619042Y-20165317D01*
X22799995Y-20355793D02*
X22780947Y-20365317D01*
X22742852Y-20365317D01*
X22723804Y-20355793D01*
X22714280Y-20336745D01*
X22714280Y-20260555D01*
X22723804Y-20241507D01*
X22742852Y-20231983D01*
X22780947Y-20231983D01*
X22799995Y-20241507D01*
X22809518Y-20260555D01*
X22809518Y-20279603D01*
X22714280Y-20298650D01*
X22885709Y-20355793D02*
X22904757Y-20365317D01*
X22942852Y-20365317D01*
X22961899Y-20355793D01*
X22971423Y-20336745D01*
X22971423Y-20327222D01*
X22961899Y-20308174D01*
X22942852Y-20298650D01*
X22914280Y-20298650D01*
X22895233Y-20289126D01*
X22885709Y-20270079D01*
X22885709Y-20260555D01*
X22895233Y-20241507D01*
X22914280Y-20231983D01*
X22942852Y-20231983D01*
X22961899Y-20241507D01*
X23038090Y-20441507D02*
X23047614Y-20431983D01*
X23066661Y-20403412D01*
X23076185Y-20384364D01*
X23085709Y-20355793D01*
X23095233Y-20308174D01*
X23095233Y-20270079D01*
X23085709Y-20222460D01*
X23076185Y-20193888D01*
X23066661Y-20174841D01*
X23047614Y-20146269D01*
X23038090Y-20136745D01*
D19*
X18176185Y-20493841D02*
X18266185Y-20583841D01*
X18266185Y-20493841D02*
X18176185Y-20583841D01*
X18253005Y-20570661D02*
X18253005Y-20507021D01*
X18189365Y-20507021D01*
X18189365Y-20570661D01*
X18253005Y-20570661D01*
D11*
X18561899Y-20429317D02*
X18580947Y-20429317D01*
X18599995Y-20438841D01*
X18609519Y-20448364D01*
X18619042Y-20467412D01*
X18628566Y-20505507D01*
X18628566Y-20553126D01*
X18619042Y-20591222D01*
X18609519Y-20610269D01*
X18599995Y-20619793D01*
X18580947Y-20629317D01*
X18561899Y-20629317D01*
X18542852Y-20619793D01*
X18533328Y-20610269D01*
X18523804Y-20591222D01*
X18514280Y-20553126D01*
X18514280Y-20505507D01*
X18523804Y-20467412D01*
X18533328Y-20448364D01*
X18542852Y-20438841D01*
X18561899Y-20429317D01*
X18714280Y-20610269D02*
X18723804Y-20619793D01*
X18714280Y-20629317D01*
X18704757Y-20619793D01*
X18714280Y-20610269D01*
X18714280Y-20629317D01*
X18819042Y-20629317D02*
X18857138Y-20629317D01*
X18876185Y-20619793D01*
X18885709Y-20610269D01*
X18904757Y-20581698D01*
X18914280Y-20543603D01*
X18914280Y-20467412D01*
X18904757Y-20448364D01*
X18895233Y-20438841D01*
X18876185Y-20429317D01*
X18838090Y-20429317D01*
X18819042Y-20438841D01*
X18809519Y-20448364D01*
X18799995Y-20467412D01*
X18799995Y-20515031D01*
X18809519Y-20534079D01*
X18819042Y-20543603D01*
X18838090Y-20553126D01*
X18876185Y-20553126D01*
X18895233Y-20543603D01*
X18904757Y-20534079D01*
X18914280Y-20515031D01*
X19038090Y-20429317D02*
X19057138Y-20429317D01*
X19076185Y-20438841D01*
X19085709Y-20448364D01*
X19095233Y-20467412D01*
X19104757Y-20505507D01*
X19104757Y-20553126D01*
X19095233Y-20591222D01*
X19085709Y-20610269D01*
X19076185Y-20619793D01*
X19057138Y-20629317D01*
X19038090Y-20629317D01*
X19019042Y-20619793D01*
X19009519Y-20610269D01*
X18999995Y-20591222D01*
X18990471Y-20553126D01*
X18990471Y-20505507D01*
X18999995Y-20467412D01*
X19009519Y-20448364D01*
X19019042Y-20438841D01*
X19038090Y-20429317D01*
X19228566Y-20429317D02*
X19247614Y-20429317D01*
X19266661Y-20438841D01*
X19276185Y-20448364D01*
X19285709Y-20467412D01*
X19295233Y-20505507D01*
X19295233Y-20553126D01*
X19285709Y-20591222D01*
X19276185Y-20610269D01*
X19266661Y-20619793D01*
X19247614Y-20629317D01*
X19228566Y-20629317D01*
X19209519Y-20619793D01*
X19199995Y-20610269D01*
X19190471Y-20591222D01*
X19180947Y-20553126D01*
X19180947Y-20505507D01*
X19190471Y-20467412D01*
X19199995Y-20448364D01*
X19209519Y-20438841D01*
X19228566Y-20429317D01*
X19380947Y-20629317D02*
X19380947Y-20495983D01*
X19380947Y-20515031D02*
X19390471Y-20505507D01*
X19409519Y-20495983D01*
X19438090Y-20495983D01*
X19457138Y-20505507D01*
X19466661Y-20524555D01*
X19466661Y-20629317D01*
X19466661Y-20524555D02*
X19476185Y-20505507D01*
X19495233Y-20495983D01*
X19523804Y-20495983D01*
X19542852Y-20505507D01*
X19552376Y-20524555D01*
X19552376Y-20629317D01*
X19647614Y-20629317D02*
X19647614Y-20495983D01*
X19647614Y-20515031D02*
X19657138Y-20505507D01*
X19676185Y-20495983D01*
X19704757Y-20495983D01*
X19723804Y-20505507D01*
X19733328Y-20524555D01*
X19733328Y-20629317D01*
X19733328Y-20524555D02*
X19742852Y-20505507D01*
X19761899Y-20495983D01*
X19790471Y-20495983D01*
X19809519Y-20505507D01*
X19819042Y-20524555D01*
X19819042Y-20629317D01*
X20209519Y-20419793D02*
X20038090Y-20676936D01*
X20466661Y-20429317D02*
X20485709Y-20429317D01*
X20504757Y-20438841D01*
X20514280Y-20448364D01*
X20523804Y-20467412D01*
X20533328Y-20505507D01*
X20533328Y-20553126D01*
X20523804Y-20591222D01*
X20514280Y-20610269D01*
X20504757Y-20619793D01*
X20485709Y-20629317D01*
X20466661Y-20629317D01*
X20447614Y-20619793D01*
X20438090Y-20610269D01*
X20428566Y-20591222D01*
X20419042Y-20553126D01*
X20419042Y-20505507D01*
X20428566Y-20467412D01*
X20438090Y-20448364D01*
X20447614Y-20438841D01*
X20466661Y-20429317D01*
X20619042Y-20610269D02*
X20628566Y-20619793D01*
X20619042Y-20629317D01*
X20609519Y-20619793D01*
X20619042Y-20610269D01*
X20619042Y-20629317D01*
X20752376Y-20429317D02*
X20771423Y-20429317D01*
X20790471Y-20438841D01*
X20799995Y-20448364D01*
X20809519Y-20467412D01*
X20819042Y-20505507D01*
X20819042Y-20553126D01*
X20809519Y-20591222D01*
X20799995Y-20610269D01*
X20790471Y-20619793D01*
X20771423Y-20629317D01*
X20752376Y-20629317D01*
X20733328Y-20619793D01*
X20723804Y-20610269D01*
X20714280Y-20591222D01*
X20704757Y-20553126D01*
X20704757Y-20505507D01*
X20714280Y-20467412D01*
X20723804Y-20448364D01*
X20733328Y-20438841D01*
X20752376Y-20429317D01*
X20885709Y-20429317D02*
X21009519Y-20429317D01*
X20942852Y-20505507D01*
X20971423Y-20505507D01*
X20990471Y-20515031D01*
X20999995Y-20524555D01*
X21009519Y-20543603D01*
X21009519Y-20591222D01*
X20999995Y-20610269D01*
X20990471Y-20619793D01*
X20971423Y-20629317D01*
X20914280Y-20629317D01*
X20895233Y-20619793D01*
X20885709Y-20610269D01*
X21190471Y-20429317D02*
X21095233Y-20429317D01*
X21085709Y-20524555D01*
X21095233Y-20515031D01*
X21114280Y-20505507D01*
X21161899Y-20505507D01*
X21180947Y-20515031D01*
X21190471Y-20524555D01*
X21199995Y-20543603D01*
X21199995Y-20591222D01*
X21190471Y-20610269D01*
X21180947Y-20619793D01*
X21161899Y-20629317D01*
X21114280Y-20629317D01*
X21095233Y-20619793D01*
X21085709Y-20610269D01*
X21371423Y-20495983D02*
X21371423Y-20629317D01*
X21323804Y-20419793D02*
X21276185Y-20562650D01*
X21399995Y-20562650D01*
X21466661Y-20429317D02*
X21466661Y-20467412D01*
X21542852Y-20429317D02*
X21542852Y-20467412D01*
X21838090Y-20705507D02*
X21828566Y-20695983D01*
X21809519Y-20667412D01*
X21799995Y-20648364D01*
X21790471Y-20619793D01*
X21780947Y-20572174D01*
X21780947Y-20534079D01*
X21790471Y-20486460D01*
X21799995Y-20457888D01*
X21809519Y-20438841D01*
X21828566Y-20410269D01*
X21838090Y-20400745D01*
X21904757Y-20448364D02*
X21914280Y-20438841D01*
X21933328Y-20429317D01*
X21980947Y-20429317D01*
X21999995Y-20438841D01*
X22009519Y-20448364D01*
X22019042Y-20467412D01*
X22019042Y-20486460D01*
X22009519Y-20515031D01*
X21895233Y-20629317D01*
X22019042Y-20629317D01*
X22257138Y-20629317D02*
X22257138Y-20429317D01*
X22342852Y-20629317D02*
X22342852Y-20524555D01*
X22333328Y-20505507D01*
X22314280Y-20495983D01*
X22285709Y-20495983D01*
X22266661Y-20505507D01*
X22257138Y-20515031D01*
X22466661Y-20629317D02*
X22447614Y-20619793D01*
X22438090Y-20610269D01*
X22428566Y-20591222D01*
X22428566Y-20534079D01*
X22438090Y-20515031D01*
X22447614Y-20505507D01*
X22466661Y-20495983D01*
X22495233Y-20495983D01*
X22514280Y-20505507D01*
X22523804Y-20515031D01*
X22533328Y-20534079D01*
X22533328Y-20591222D01*
X22523804Y-20610269D01*
X22514280Y-20619793D01*
X22495233Y-20629317D01*
X22466661Y-20629317D01*
X22647614Y-20629317D02*
X22628566Y-20619793D01*
X22619042Y-20600745D01*
X22619042Y-20429317D01*
X22799995Y-20619793D02*
X22780947Y-20629317D01*
X22742852Y-20629317D01*
X22723804Y-20619793D01*
X22714280Y-20600745D01*
X22714280Y-20524555D01*
X22723804Y-20505507D01*
X22742852Y-20495983D01*
X22780947Y-20495983D01*
X22799995Y-20505507D01*
X22809518Y-20524555D01*
X22809518Y-20543603D01*
X22714280Y-20562650D01*
X22885709Y-20619793D02*
X22904757Y-20629317D01*
X22942852Y-20629317D01*
X22961899Y-20619793D01*
X22971423Y-20600745D01*
X22971423Y-20591222D01*
X22961899Y-20572174D01*
X22942852Y-20562650D01*
X22914280Y-20562650D01*
X22895233Y-20553126D01*
X22885709Y-20534079D01*
X22885709Y-20524555D01*
X22895233Y-20505507D01*
X22914280Y-20495983D01*
X22942852Y-20495983D01*
X22961899Y-20505507D01*
X23038090Y-20705507D02*
X23047614Y-20695983D01*
X23066661Y-20667412D01*
X23076185Y-20648364D01*
X23085709Y-20619793D01*
X23095233Y-20572174D01*
X23095233Y-20534079D01*
X23085709Y-20486460D01*
X23076185Y-20457888D01*
X23066661Y-20438841D01*
X23047614Y-20410269D01*
X23038090Y-20400745D01*
D20*
X18166185Y-20752841D02*
X18266185Y-20852841D01*
X18266185Y-20752841D02*
X18166185Y-20852841D01*
X18216185Y-20852841D02*
X18266185Y-20802841D01*
X18216185Y-20752841D01*
X18166185Y-20802841D01*
X18216185Y-20852841D01*
D11*
X18628566Y-20893317D02*
X18514280Y-20893317D01*
X18571423Y-20893317D02*
X18571423Y-20693317D01*
X18552376Y-20721888D01*
X18533328Y-20740936D01*
X18514280Y-20750460D01*
X18714280Y-20874269D02*
X18723804Y-20883793D01*
X18714280Y-20893317D01*
X18704757Y-20883793D01*
X18714280Y-20874269D01*
X18714280Y-20893317D01*
X18847614Y-20693317D02*
X18866661Y-20693317D01*
X18885709Y-20702841D01*
X18895233Y-20712364D01*
X18904757Y-20731412D01*
X18914280Y-20769507D01*
X18914280Y-20817126D01*
X18904757Y-20855222D01*
X18895233Y-20874269D01*
X18885709Y-20883793D01*
X18866661Y-20893317D01*
X18847614Y-20893317D01*
X18828566Y-20883793D01*
X18819042Y-20874269D01*
X18809519Y-20855222D01*
X18799995Y-20817126D01*
X18799995Y-20769507D01*
X18809519Y-20731412D01*
X18819042Y-20712364D01*
X18828566Y-20702841D01*
X18847614Y-20693317D01*
X19038090Y-20693317D02*
X19057138Y-20693317D01*
X19076185Y-20702841D01*
X19085709Y-20712364D01*
X19095233Y-20731412D01*
X19104757Y-20769507D01*
X19104757Y-20817126D01*
X19095233Y-20855222D01*
X19085709Y-20874269D01*
X19076185Y-20883793D01*
X19057138Y-20893317D01*
X19038090Y-20893317D01*
X19019042Y-20883793D01*
X19009519Y-20874269D01*
X18999995Y-20855222D01*
X18990471Y-20817126D01*
X18990471Y-20769507D01*
X18999995Y-20731412D01*
X19009519Y-20712364D01*
X19019042Y-20702841D01*
X19038090Y-20693317D01*
X19228566Y-20693317D02*
X19247614Y-20693317D01*
X19266661Y-20702841D01*
X19276185Y-20712364D01*
X19285709Y-20731412D01*
X19295233Y-20769507D01*
X19295233Y-20817126D01*
X19285709Y-20855222D01*
X19276185Y-20874269D01*
X19266661Y-20883793D01*
X19247614Y-20893317D01*
X19228566Y-20893317D01*
X19209519Y-20883793D01*
X19199995Y-20874269D01*
X19190471Y-20855222D01*
X19180947Y-20817126D01*
X19180947Y-20769507D01*
X19190471Y-20731412D01*
X19199995Y-20712364D01*
X19209519Y-20702841D01*
X19228566Y-20693317D01*
X19380947Y-20893317D02*
X19380947Y-20759983D01*
X19380947Y-20779031D02*
X19390471Y-20769507D01*
X19409519Y-20759983D01*
X19438090Y-20759983D01*
X19457138Y-20769507D01*
X19466661Y-20788555D01*
X19466661Y-20893317D01*
X19466661Y-20788555D02*
X19476185Y-20769507D01*
X19495233Y-20759983D01*
X19523804Y-20759983D01*
X19542852Y-20769507D01*
X19552376Y-20788555D01*
X19552376Y-20893317D01*
X19647614Y-20893317D02*
X19647614Y-20759983D01*
X19647614Y-20779031D02*
X19657138Y-20769507D01*
X19676185Y-20759983D01*
X19704757Y-20759983D01*
X19723804Y-20769507D01*
X19733328Y-20788555D01*
X19733328Y-20893317D01*
X19733328Y-20788555D02*
X19742852Y-20769507D01*
X19761899Y-20759983D01*
X19790471Y-20759983D01*
X19809519Y-20769507D01*
X19819042Y-20788555D01*
X19819042Y-20893317D01*
X20209519Y-20683793D02*
X20038090Y-20940936D01*
X20466661Y-20693317D02*
X20485709Y-20693317D01*
X20504757Y-20702841D01*
X20514280Y-20712364D01*
X20523804Y-20731412D01*
X20533328Y-20769507D01*
X20533328Y-20817126D01*
X20523804Y-20855222D01*
X20514280Y-20874269D01*
X20504757Y-20883793D01*
X20485709Y-20893317D01*
X20466661Y-20893317D01*
X20447614Y-20883793D01*
X20438090Y-20874269D01*
X20428566Y-20855222D01*
X20419042Y-20817126D01*
X20419042Y-20769507D01*
X20428566Y-20731412D01*
X20438090Y-20712364D01*
X20447614Y-20702841D01*
X20466661Y-20693317D01*
X20619042Y-20874269D02*
X20628566Y-20883793D01*
X20619042Y-20893317D01*
X20609519Y-20883793D01*
X20619042Y-20874269D01*
X20619042Y-20893317D01*
X20752376Y-20693317D02*
X20771423Y-20693317D01*
X20790471Y-20702841D01*
X20799995Y-20712364D01*
X20809519Y-20731412D01*
X20819042Y-20769507D01*
X20819042Y-20817126D01*
X20809519Y-20855222D01*
X20799995Y-20874269D01*
X20790471Y-20883793D01*
X20771423Y-20893317D01*
X20752376Y-20893317D01*
X20733328Y-20883793D01*
X20723804Y-20874269D01*
X20714280Y-20855222D01*
X20704757Y-20817126D01*
X20704757Y-20769507D01*
X20714280Y-20731412D01*
X20723804Y-20712364D01*
X20733328Y-20702841D01*
X20752376Y-20693317D01*
X20885709Y-20693317D02*
X21009519Y-20693317D01*
X20942852Y-20769507D01*
X20971423Y-20769507D01*
X20990471Y-20779031D01*
X20999995Y-20788555D01*
X21009519Y-20807603D01*
X21009519Y-20855222D01*
X20999995Y-20874269D01*
X20990471Y-20883793D01*
X20971423Y-20893317D01*
X20914280Y-20893317D01*
X20895233Y-20883793D01*
X20885709Y-20874269D01*
X21104757Y-20893317D02*
X21142852Y-20893317D01*
X21161899Y-20883793D01*
X21171423Y-20874269D01*
X21190471Y-20845698D01*
X21199995Y-20807603D01*
X21199995Y-20731412D01*
X21190471Y-20712364D01*
X21180947Y-20702841D01*
X21161899Y-20693317D01*
X21123804Y-20693317D01*
X21104757Y-20702841D01*
X21095233Y-20712364D01*
X21085709Y-20731412D01*
X21085709Y-20779031D01*
X21095233Y-20798079D01*
X21104757Y-20807603D01*
X21123804Y-20817126D01*
X21161899Y-20817126D01*
X21180947Y-20807603D01*
X21190471Y-20798079D01*
X21199995Y-20779031D01*
X21371423Y-20759983D02*
X21371423Y-20893317D01*
X21323804Y-20683793D02*
X21276185Y-20826650D01*
X21399995Y-20826650D01*
X21466661Y-20693317D02*
X21466661Y-20731412D01*
X21542852Y-20693317D02*
X21542852Y-20731412D01*
X21838090Y-20969507D02*
X21828566Y-20959983D01*
X21809519Y-20931412D01*
X21799995Y-20912364D01*
X21790471Y-20883793D01*
X21780947Y-20836174D01*
X21780947Y-20798079D01*
X21790471Y-20750460D01*
X21799995Y-20721888D01*
X21809519Y-20702841D01*
X21828566Y-20674269D01*
X21838090Y-20664745D01*
X21904757Y-20712364D02*
X21914280Y-20702841D01*
X21933328Y-20693317D01*
X21980947Y-20693317D01*
X21999995Y-20702841D01*
X22009519Y-20712364D01*
X22019042Y-20731412D01*
X22019042Y-20750460D01*
X22009519Y-20779031D01*
X21895233Y-20893317D01*
X22019042Y-20893317D01*
X22209519Y-20893317D02*
X22095233Y-20893317D01*
X22152376Y-20893317D02*
X22152376Y-20693317D01*
X22133328Y-20721888D01*
X22114280Y-20740936D01*
X22095233Y-20750460D01*
X22447614Y-20893317D02*
X22447614Y-20693317D01*
X22533328Y-20893317D02*
X22533328Y-20788555D01*
X22523804Y-20769507D01*
X22504757Y-20759983D01*
X22476185Y-20759983D01*
X22457137Y-20769507D01*
X22447614Y-20779031D01*
X22657137Y-20893317D02*
X22638090Y-20883793D01*
X22628566Y-20874269D01*
X22619042Y-20855222D01*
X22619042Y-20798079D01*
X22628566Y-20779031D01*
X22638090Y-20769507D01*
X22657137Y-20759983D01*
X22685709Y-20759983D01*
X22704757Y-20769507D01*
X22714280Y-20779031D01*
X22723804Y-20798079D01*
X22723804Y-20855222D01*
X22714280Y-20874269D01*
X22704757Y-20883793D01*
X22685709Y-20893317D01*
X22657137Y-20893317D01*
X22838090Y-20893317D02*
X22819042Y-20883793D01*
X22809518Y-20864745D01*
X22809518Y-20693317D01*
X22990471Y-20883793D02*
X22971423Y-20893317D01*
X22933328Y-20893317D01*
X22914280Y-20883793D01*
X22904757Y-20864745D01*
X22904757Y-20788555D01*
X22914280Y-20769507D01*
X22933328Y-20759983D01*
X22971423Y-20759983D01*
X22990471Y-20769507D01*
X22999995Y-20788555D01*
X22999995Y-20807603D01*
X22904757Y-20826650D01*
X23076185Y-20883793D02*
X23095233Y-20893317D01*
X23133328Y-20893317D01*
X23152376Y-20883793D01*
X23161899Y-20864745D01*
X23161899Y-20855222D01*
X23152376Y-20836174D01*
X23133328Y-20826650D01*
X23104757Y-20826650D01*
X23085709Y-20817126D01*
X23076185Y-20798079D01*
X23076185Y-20788555D01*
X23085709Y-20769507D01*
X23104757Y-20759983D01*
X23133328Y-20759983D01*
X23152376Y-20769507D01*
X23228566Y-20969507D02*
X23238090Y-20959983D01*
X23257137Y-20931412D01*
X23266661Y-20912364D01*
X23276185Y-20883793D01*
X23285709Y-20836174D01*
X23285709Y-20798079D01*
X23276185Y-20750460D01*
X23266661Y-20721888D01*
X23257137Y-20702841D01*
X23238090Y-20674269D01*
X23228566Y-20664745D01*
D21*
X18201185Y-21001841D02*
X18201185Y-21131841D01*
X18136185Y-21066841D02*
X18266185Y-21066841D01*
X18266185Y-21066841D02*
G75*
G03*
X18266185Y-21066841I-65000J0D01*
G01*
D11*
X18628566Y-21157317D02*
X18514280Y-21157317D01*
X18571423Y-21157317D02*
X18571423Y-20957317D01*
X18552376Y-20985888D01*
X18533328Y-21004936D01*
X18514280Y-21014460D01*
X18714280Y-21138269D02*
X18723804Y-21147793D01*
X18714280Y-21157317D01*
X18704757Y-21147793D01*
X18714280Y-21138269D01*
X18714280Y-21157317D01*
X18790471Y-20957317D02*
X18914280Y-20957317D01*
X18847614Y-21033507D01*
X18876185Y-21033507D01*
X18895233Y-21043031D01*
X18904757Y-21052555D01*
X18914280Y-21071603D01*
X18914280Y-21119222D01*
X18904757Y-21138269D01*
X18895233Y-21147793D01*
X18876185Y-21157317D01*
X18819042Y-21157317D01*
X18799995Y-21147793D01*
X18790471Y-21138269D01*
X19038090Y-20957317D02*
X19057138Y-20957317D01*
X19076185Y-20966841D01*
X19085709Y-20976364D01*
X19095233Y-20995412D01*
X19104757Y-21033507D01*
X19104757Y-21081126D01*
X19095233Y-21119222D01*
X19085709Y-21138269D01*
X19076185Y-21147793D01*
X19057138Y-21157317D01*
X19038090Y-21157317D01*
X19019042Y-21147793D01*
X19009519Y-21138269D01*
X18999995Y-21119222D01*
X18990471Y-21081126D01*
X18990471Y-21033507D01*
X18999995Y-20995412D01*
X19009519Y-20976364D01*
X19019042Y-20966841D01*
X19038090Y-20957317D01*
X19228566Y-20957317D02*
X19247614Y-20957317D01*
X19266661Y-20966841D01*
X19276185Y-20976364D01*
X19285709Y-20995412D01*
X19295233Y-21033507D01*
X19295233Y-21081126D01*
X19285709Y-21119222D01*
X19276185Y-21138269D01*
X19266661Y-21147793D01*
X19247614Y-21157317D01*
X19228566Y-21157317D01*
X19209519Y-21147793D01*
X19199995Y-21138269D01*
X19190471Y-21119222D01*
X19180947Y-21081126D01*
X19180947Y-21033507D01*
X19190471Y-20995412D01*
X19199995Y-20976364D01*
X19209519Y-20966841D01*
X19228566Y-20957317D01*
X19380947Y-21157317D02*
X19380947Y-21023983D01*
X19380947Y-21043031D02*
X19390471Y-21033507D01*
X19409519Y-21023983D01*
X19438090Y-21023983D01*
X19457138Y-21033507D01*
X19466661Y-21052555D01*
X19466661Y-21157317D01*
X19466661Y-21052555D02*
X19476185Y-21033507D01*
X19495233Y-21023983D01*
X19523804Y-21023983D01*
X19542852Y-21033507D01*
X19552376Y-21052555D01*
X19552376Y-21157317D01*
X19647614Y-21157317D02*
X19647614Y-21023983D01*
X19647614Y-21043031D02*
X19657138Y-21033507D01*
X19676185Y-21023983D01*
X19704757Y-21023983D01*
X19723804Y-21033507D01*
X19733328Y-21052555D01*
X19733328Y-21157317D01*
X19733328Y-21052555D02*
X19742852Y-21033507D01*
X19761899Y-21023983D01*
X19790471Y-21023983D01*
X19809519Y-21033507D01*
X19819042Y-21052555D01*
X19819042Y-21157317D01*
X20209519Y-20947793D02*
X20038090Y-21204936D01*
X20466661Y-20957317D02*
X20485709Y-20957317D01*
X20504757Y-20966841D01*
X20514280Y-20976364D01*
X20523804Y-20995412D01*
X20533328Y-21033507D01*
X20533328Y-21081126D01*
X20523804Y-21119222D01*
X20514280Y-21138269D01*
X20504757Y-21147793D01*
X20485709Y-21157317D01*
X20466661Y-21157317D01*
X20447614Y-21147793D01*
X20438090Y-21138269D01*
X20428566Y-21119222D01*
X20419042Y-21081126D01*
X20419042Y-21033507D01*
X20428566Y-20995412D01*
X20438090Y-20976364D01*
X20447614Y-20966841D01*
X20466661Y-20957317D01*
X20619042Y-21138269D02*
X20628566Y-21147793D01*
X20619042Y-21157317D01*
X20609519Y-21147793D01*
X20619042Y-21138269D01*
X20619042Y-21157317D01*
X20752376Y-20957317D02*
X20771423Y-20957317D01*
X20790471Y-20966841D01*
X20799995Y-20976364D01*
X20809519Y-20995412D01*
X20819042Y-21033507D01*
X20819042Y-21081126D01*
X20809519Y-21119222D01*
X20799995Y-21138269D01*
X20790471Y-21147793D01*
X20771423Y-21157317D01*
X20752376Y-21157317D01*
X20733328Y-21147793D01*
X20723804Y-21138269D01*
X20714280Y-21119222D01*
X20704757Y-21081126D01*
X20704757Y-21033507D01*
X20714280Y-20995412D01*
X20723804Y-20976364D01*
X20733328Y-20966841D01*
X20752376Y-20957317D01*
X20999995Y-20957317D02*
X20904757Y-20957317D01*
X20895233Y-21052555D01*
X20904757Y-21043031D01*
X20923804Y-21033507D01*
X20971423Y-21033507D01*
X20990471Y-21043031D01*
X20999995Y-21052555D01*
X21009519Y-21071603D01*
X21009519Y-21119222D01*
X20999995Y-21138269D01*
X20990471Y-21147793D01*
X20971423Y-21157317D01*
X20923804Y-21157317D01*
X20904757Y-21147793D01*
X20895233Y-21138269D01*
X21199995Y-21157317D02*
X21085709Y-21157317D01*
X21142852Y-21157317D02*
X21142852Y-20957317D01*
X21123804Y-20985888D01*
X21104757Y-21004936D01*
X21085709Y-21014460D01*
X21276185Y-20976364D02*
X21285709Y-20966841D01*
X21304757Y-20957317D01*
X21352376Y-20957317D01*
X21371423Y-20966841D01*
X21380947Y-20976364D01*
X21390471Y-20995412D01*
X21390471Y-21014460D01*
X21380947Y-21043031D01*
X21266661Y-21157317D01*
X21390471Y-21157317D01*
X21466661Y-20957317D02*
X21466661Y-20995412D01*
X21542852Y-20957317D02*
X21542852Y-20995412D01*
X21838090Y-21233507D02*
X21828566Y-21223983D01*
X21809519Y-21195412D01*
X21799995Y-21176364D01*
X21790471Y-21147793D01*
X21780947Y-21100174D01*
X21780947Y-21062079D01*
X21790471Y-21014460D01*
X21799995Y-20985888D01*
X21809519Y-20966841D01*
X21828566Y-20938269D01*
X21838090Y-20928745D01*
X21999995Y-20957317D02*
X21961899Y-20957317D01*
X21942852Y-20966841D01*
X21933328Y-20976364D01*
X21914280Y-21004936D01*
X21904757Y-21043031D01*
X21904757Y-21119222D01*
X21914280Y-21138269D01*
X21923804Y-21147793D01*
X21942852Y-21157317D01*
X21980947Y-21157317D01*
X21999995Y-21147793D01*
X22009519Y-21138269D01*
X22019042Y-21119222D01*
X22019042Y-21071603D01*
X22009519Y-21052555D01*
X21999995Y-21043031D01*
X21980947Y-21033507D01*
X21942852Y-21033507D01*
X21923804Y-21043031D01*
X21914280Y-21052555D01*
X21904757Y-21071603D01*
X22257138Y-21157317D02*
X22257138Y-20957317D01*
X22342852Y-21157317D02*
X22342852Y-21052555D01*
X22333328Y-21033507D01*
X22314280Y-21023983D01*
X22285709Y-21023983D01*
X22266661Y-21033507D01*
X22257138Y-21043031D01*
X22466661Y-21157317D02*
X22447614Y-21147793D01*
X22438090Y-21138269D01*
X22428566Y-21119222D01*
X22428566Y-21062079D01*
X22438090Y-21043031D01*
X22447614Y-21033507D01*
X22466661Y-21023983D01*
X22495233Y-21023983D01*
X22514280Y-21033507D01*
X22523804Y-21043031D01*
X22533328Y-21062079D01*
X22533328Y-21119222D01*
X22523804Y-21138269D01*
X22514280Y-21147793D01*
X22495233Y-21157317D01*
X22466661Y-21157317D01*
X22647614Y-21157317D02*
X22628566Y-21147793D01*
X22619042Y-21128745D01*
X22619042Y-20957317D01*
X22799995Y-21147793D02*
X22780947Y-21157317D01*
X22742852Y-21157317D01*
X22723804Y-21147793D01*
X22714280Y-21128745D01*
X22714280Y-21052555D01*
X22723804Y-21033507D01*
X22742852Y-21023983D01*
X22780947Y-21023983D01*
X22799995Y-21033507D01*
X22809518Y-21052555D01*
X22809518Y-21071603D01*
X22714280Y-21090650D01*
X22885709Y-21147793D02*
X22904757Y-21157317D01*
X22942852Y-21157317D01*
X22961899Y-21147793D01*
X22971423Y-21128745D01*
X22971423Y-21119222D01*
X22961899Y-21100174D01*
X22942852Y-21090650D01*
X22914280Y-21090650D01*
X22895233Y-21081126D01*
X22885709Y-21062079D01*
X22885709Y-21052555D01*
X22895233Y-21033507D01*
X22914280Y-21023983D01*
X22942852Y-21023983D01*
X22961899Y-21033507D01*
X23038090Y-21233507D02*
X23047614Y-21223983D01*
X23066661Y-21195412D01*
X23076185Y-21176364D01*
X23085709Y-21147793D01*
X23095233Y-21100174D01*
X23095233Y-21062079D01*
X23085709Y-21014460D01*
X23076185Y-20985888D01*
X23066661Y-20966841D01*
X23047614Y-20938269D01*
X23038090Y-20928745D01*
X18236897Y-21401552D02*
X18236897Y-21260129D01*
X18095474Y-21260129D01*
X18095474Y-21401552D01*
X18236897Y-21401552D01*
X18266185Y-21330841D02*
G75*
G03*
X18266185Y-21330841I-100000J0D01*
G01*
X18514280Y-21240364D02*
X18523804Y-21230841D01*
X18542852Y-21221317D01*
X18590471Y-21221317D01*
X18609519Y-21230841D01*
X18619042Y-21240364D01*
X18628566Y-21259412D01*
X18628566Y-21278460D01*
X18619042Y-21307031D01*
X18504757Y-21421317D01*
X18628566Y-21421317D01*
X18714280Y-21402269D02*
X18723804Y-21411793D01*
X18714280Y-21421317D01*
X18704757Y-21411793D01*
X18714280Y-21402269D01*
X18714280Y-21421317D01*
X18799995Y-21240364D02*
X18809519Y-21230841D01*
X18828566Y-21221317D01*
X18876185Y-21221317D01*
X18895233Y-21230841D01*
X18904757Y-21240364D01*
X18914280Y-21259412D01*
X18914280Y-21278460D01*
X18904757Y-21307031D01*
X18790471Y-21421317D01*
X18914280Y-21421317D01*
X19038090Y-21221317D02*
X19057138Y-21221317D01*
X19076185Y-21230841D01*
X19085709Y-21240364D01*
X19095233Y-21259412D01*
X19104757Y-21297507D01*
X19104757Y-21345126D01*
X19095233Y-21383222D01*
X19085709Y-21402269D01*
X19076185Y-21411793D01*
X19057138Y-21421317D01*
X19038090Y-21421317D01*
X19019042Y-21411793D01*
X19009519Y-21402269D01*
X18999995Y-21383222D01*
X18990471Y-21345126D01*
X18990471Y-21297507D01*
X18999995Y-21259412D01*
X19009519Y-21240364D01*
X19019042Y-21230841D01*
X19038090Y-21221317D01*
X19228566Y-21221317D02*
X19247614Y-21221317D01*
X19266661Y-21230841D01*
X19276185Y-21240364D01*
X19285709Y-21259412D01*
X19295233Y-21297507D01*
X19295233Y-21345126D01*
X19285709Y-21383222D01*
X19276185Y-21402269D01*
X19266661Y-21411793D01*
X19247614Y-21421317D01*
X19228566Y-21421317D01*
X19209519Y-21411793D01*
X19199995Y-21402269D01*
X19190471Y-21383222D01*
X19180947Y-21345126D01*
X19180947Y-21297507D01*
X19190471Y-21259412D01*
X19199995Y-21240364D01*
X19209519Y-21230841D01*
X19228566Y-21221317D01*
X19380947Y-21421317D02*
X19380947Y-21287983D01*
X19380947Y-21307031D02*
X19390471Y-21297507D01*
X19409519Y-21287983D01*
X19438090Y-21287983D01*
X19457138Y-21297507D01*
X19466661Y-21316555D01*
X19466661Y-21421317D01*
X19466661Y-21316555D02*
X19476185Y-21297507D01*
X19495233Y-21287983D01*
X19523804Y-21287983D01*
X19542852Y-21297507D01*
X19552376Y-21316555D01*
X19552376Y-21421317D01*
X19647614Y-21421317D02*
X19647614Y-21287983D01*
X19647614Y-21307031D02*
X19657138Y-21297507D01*
X19676185Y-21287983D01*
X19704757Y-21287983D01*
X19723804Y-21297507D01*
X19733328Y-21316555D01*
X19733328Y-21421317D01*
X19733328Y-21316555D02*
X19742852Y-21297507D01*
X19761899Y-21287983D01*
X19790471Y-21287983D01*
X19809519Y-21297507D01*
X19819042Y-21316555D01*
X19819042Y-21421317D01*
X20209519Y-21211793D02*
X20038090Y-21468936D01*
X20466661Y-21221317D02*
X20485709Y-21221317D01*
X20504757Y-21230841D01*
X20514280Y-21240364D01*
X20523804Y-21259412D01*
X20533328Y-21297507D01*
X20533328Y-21345126D01*
X20523804Y-21383222D01*
X20514280Y-21402269D01*
X20504757Y-21411793D01*
X20485709Y-21421317D01*
X20466661Y-21421317D01*
X20447614Y-21411793D01*
X20438090Y-21402269D01*
X20428566Y-21383222D01*
X20419042Y-21345126D01*
X20419042Y-21297507D01*
X20428566Y-21259412D01*
X20438090Y-21240364D01*
X20447614Y-21230841D01*
X20466661Y-21221317D01*
X20619042Y-21402269D02*
X20628566Y-21411793D01*
X20619042Y-21421317D01*
X20609519Y-21411793D01*
X20619042Y-21402269D01*
X20619042Y-21421317D01*
X20752376Y-21221317D02*
X20771423Y-21221317D01*
X20790471Y-21230841D01*
X20799995Y-21240364D01*
X20809519Y-21259412D01*
X20819042Y-21297507D01*
X20819042Y-21345126D01*
X20809519Y-21383222D01*
X20799995Y-21402269D01*
X20790471Y-21411793D01*
X20771423Y-21421317D01*
X20752376Y-21421317D01*
X20733328Y-21411793D01*
X20723804Y-21402269D01*
X20714280Y-21383222D01*
X20704757Y-21345126D01*
X20704757Y-21297507D01*
X20714280Y-21259412D01*
X20723804Y-21240364D01*
X20733328Y-21230841D01*
X20752376Y-21221317D01*
X20933328Y-21307031D02*
X20914280Y-21297507D01*
X20904757Y-21287983D01*
X20895233Y-21268936D01*
X20895233Y-21259412D01*
X20904757Y-21240364D01*
X20914280Y-21230841D01*
X20933328Y-21221317D01*
X20971423Y-21221317D01*
X20990471Y-21230841D01*
X20999995Y-21240364D01*
X21009519Y-21259412D01*
X21009519Y-21268936D01*
X20999995Y-21287983D01*
X20990471Y-21297507D01*
X20971423Y-21307031D01*
X20933328Y-21307031D01*
X20914280Y-21316555D01*
X20904757Y-21326079D01*
X20895233Y-21345126D01*
X20895233Y-21383222D01*
X20904757Y-21402269D01*
X20914280Y-21411793D01*
X20933328Y-21421317D01*
X20971423Y-21421317D01*
X20990471Y-21411793D01*
X20999995Y-21402269D01*
X21009519Y-21383222D01*
X21009519Y-21345126D01*
X20999995Y-21326079D01*
X20990471Y-21316555D01*
X20971423Y-21307031D01*
X21180947Y-21221317D02*
X21142852Y-21221317D01*
X21123804Y-21230841D01*
X21114280Y-21240364D01*
X21095233Y-21268936D01*
X21085709Y-21307031D01*
X21085709Y-21383222D01*
X21095233Y-21402269D01*
X21104757Y-21411793D01*
X21123804Y-21421317D01*
X21161899Y-21421317D01*
X21180947Y-21411793D01*
X21190471Y-21402269D01*
X21199995Y-21383222D01*
X21199995Y-21335603D01*
X21190471Y-21316555D01*
X21180947Y-21307031D01*
X21161899Y-21297507D01*
X21123804Y-21297507D01*
X21104757Y-21307031D01*
X21095233Y-21316555D01*
X21085709Y-21335603D01*
X21371423Y-21221317D02*
X21333328Y-21221317D01*
X21314280Y-21230841D01*
X21304757Y-21240364D01*
X21285709Y-21268936D01*
X21276185Y-21307031D01*
X21276185Y-21383222D01*
X21285709Y-21402269D01*
X21295233Y-21411793D01*
X21314280Y-21421317D01*
X21352376Y-21421317D01*
X21371423Y-21411793D01*
X21380947Y-21402269D01*
X21390471Y-21383222D01*
X21390471Y-21335603D01*
X21380947Y-21316555D01*
X21371423Y-21307031D01*
X21352376Y-21297507D01*
X21314280Y-21297507D01*
X21295233Y-21307031D01*
X21285709Y-21316555D01*
X21276185Y-21335603D01*
X21466661Y-21221317D02*
X21466661Y-21259412D01*
X21542852Y-21221317D02*
X21542852Y-21259412D01*
X21838090Y-21497507D02*
X21828566Y-21487983D01*
X21809519Y-21459412D01*
X21799995Y-21440364D01*
X21790471Y-21411793D01*
X21780947Y-21364174D01*
X21780947Y-21326079D01*
X21790471Y-21278460D01*
X21799995Y-21249888D01*
X21809519Y-21230841D01*
X21828566Y-21202269D01*
X21838090Y-21192745D01*
X21999995Y-21287983D02*
X21999995Y-21421317D01*
X21952376Y-21211793D02*
X21904757Y-21354650D01*
X22028566Y-21354650D01*
X22257138Y-21421317D02*
X22257138Y-21221317D01*
X22342852Y-21421317D02*
X22342852Y-21316555D01*
X22333328Y-21297507D01*
X22314280Y-21287983D01*
X22285709Y-21287983D01*
X22266661Y-21297507D01*
X22257138Y-21307031D01*
X22466661Y-21421317D02*
X22447614Y-21411793D01*
X22438090Y-21402269D01*
X22428566Y-21383222D01*
X22428566Y-21326079D01*
X22438090Y-21307031D01*
X22447614Y-21297507D01*
X22466661Y-21287983D01*
X22495233Y-21287983D01*
X22514280Y-21297507D01*
X22523804Y-21307031D01*
X22533328Y-21326079D01*
X22533328Y-21383222D01*
X22523804Y-21402269D01*
X22514280Y-21411793D01*
X22495233Y-21421317D01*
X22466661Y-21421317D01*
X22647614Y-21421317D02*
X22628566Y-21411793D01*
X22619042Y-21392745D01*
X22619042Y-21221317D01*
X22799995Y-21411793D02*
X22780947Y-21421317D01*
X22742852Y-21421317D01*
X22723804Y-21411793D01*
X22714280Y-21392745D01*
X22714280Y-21316555D01*
X22723804Y-21297507D01*
X22742852Y-21287983D01*
X22780947Y-21287983D01*
X22799995Y-21297507D01*
X22809518Y-21316555D01*
X22809518Y-21335603D01*
X22714280Y-21354650D01*
X22885709Y-21411793D02*
X22904757Y-21421317D01*
X22942852Y-21421317D01*
X22961899Y-21411793D01*
X22971423Y-21392745D01*
X22971423Y-21383222D01*
X22961899Y-21364174D01*
X22942852Y-21354650D01*
X22914280Y-21354650D01*
X22895233Y-21345126D01*
X22885709Y-21326079D01*
X22885709Y-21316555D01*
X22895233Y-21297507D01*
X22914280Y-21287983D01*
X22942852Y-21287983D01*
X22961899Y-21297507D01*
X23038090Y-21497507D02*
X23047614Y-21487983D01*
X23066661Y-21459412D01*
X23076185Y-21440364D01*
X23085709Y-21411793D01*
X23095233Y-21364174D01*
X23095233Y-21326079D01*
X23085709Y-21278460D01*
X23076185Y-21249888D01*
X23066661Y-21230841D01*
X23047614Y-21202269D01*
X23038090Y-21192745D01*
X18166185Y-21750841D02*
X18266185Y-21650841D01*
X18166185Y-21550841D01*
X18066185Y-21650841D01*
X18166185Y-21750841D01*
X18266185Y-21650841D02*
G75*
G03*
X18266185Y-21650841I-100000J0D01*
G01*
X18504757Y-21541317D02*
X18628566Y-21541317D01*
X18561899Y-21617507D01*
X18590471Y-21617507D01*
X18609519Y-21627031D01*
X18619042Y-21636555D01*
X18628566Y-21655603D01*
X18628566Y-21703222D01*
X18619042Y-21722269D01*
X18609519Y-21731793D01*
X18590471Y-21741317D01*
X18533328Y-21741317D01*
X18514280Y-21731793D01*
X18504757Y-21722269D01*
X18714280Y-21722269D02*
X18723804Y-21731793D01*
X18714280Y-21741317D01*
X18704757Y-21731793D01*
X18714280Y-21722269D01*
X18714280Y-21741317D01*
X18799995Y-21560364D02*
X18809519Y-21550841D01*
X18828566Y-21541317D01*
X18876185Y-21541317D01*
X18895233Y-21550841D01*
X18904757Y-21560364D01*
X18914280Y-21579412D01*
X18914280Y-21598460D01*
X18904757Y-21627031D01*
X18790471Y-21741317D01*
X18914280Y-21741317D01*
X19038090Y-21541317D02*
X19057138Y-21541317D01*
X19076185Y-21550841D01*
X19085709Y-21560364D01*
X19095233Y-21579412D01*
X19104757Y-21617507D01*
X19104757Y-21665126D01*
X19095233Y-21703222D01*
X19085709Y-21722269D01*
X19076185Y-21731793D01*
X19057138Y-21741317D01*
X19038090Y-21741317D01*
X19019042Y-21731793D01*
X19009519Y-21722269D01*
X18999995Y-21703222D01*
X18990471Y-21665126D01*
X18990471Y-21617507D01*
X18999995Y-21579412D01*
X19009519Y-21560364D01*
X19019042Y-21550841D01*
X19038090Y-21541317D01*
X19228566Y-21541317D02*
X19247614Y-21541317D01*
X19266661Y-21550841D01*
X19276185Y-21560364D01*
X19285709Y-21579412D01*
X19295233Y-21617507D01*
X19295233Y-21665126D01*
X19285709Y-21703222D01*
X19276185Y-21722269D01*
X19266661Y-21731793D01*
X19247614Y-21741317D01*
X19228566Y-21741317D01*
X19209519Y-21731793D01*
X19199995Y-21722269D01*
X19190471Y-21703222D01*
X19180947Y-21665126D01*
X19180947Y-21617507D01*
X19190471Y-21579412D01*
X19199995Y-21560364D01*
X19209519Y-21550841D01*
X19228566Y-21541317D01*
X19380947Y-21741317D02*
X19380947Y-21607983D01*
X19380947Y-21627031D02*
X19390471Y-21617507D01*
X19409519Y-21607983D01*
X19438090Y-21607983D01*
X19457138Y-21617507D01*
X19466661Y-21636555D01*
X19466661Y-21741317D01*
X19466661Y-21636555D02*
X19476185Y-21617507D01*
X19495233Y-21607983D01*
X19523804Y-21607983D01*
X19542852Y-21617507D01*
X19552376Y-21636555D01*
X19552376Y-21741317D01*
X19647614Y-21741317D02*
X19647614Y-21607983D01*
X19647614Y-21627031D02*
X19657138Y-21617507D01*
X19676185Y-21607983D01*
X19704757Y-21607983D01*
X19723804Y-21617507D01*
X19733328Y-21636555D01*
X19733328Y-21741317D01*
X19733328Y-21636555D02*
X19742852Y-21617507D01*
X19761899Y-21607983D01*
X19790471Y-21607983D01*
X19809519Y-21617507D01*
X19819042Y-21636555D01*
X19819042Y-21741317D01*
X20209519Y-21531793D02*
X20038090Y-21788936D01*
X20466661Y-21541317D02*
X20485709Y-21541317D01*
X20504757Y-21550841D01*
X20514280Y-21560364D01*
X20523804Y-21579412D01*
X20533328Y-21617507D01*
X20533328Y-21665126D01*
X20523804Y-21703222D01*
X20514280Y-21722269D01*
X20504757Y-21731793D01*
X20485709Y-21741317D01*
X20466661Y-21741317D01*
X20447614Y-21731793D01*
X20438090Y-21722269D01*
X20428566Y-21703222D01*
X20419042Y-21665126D01*
X20419042Y-21617507D01*
X20428566Y-21579412D01*
X20438090Y-21560364D01*
X20447614Y-21550841D01*
X20466661Y-21541317D01*
X20619042Y-21722269D02*
X20628566Y-21731793D01*
X20619042Y-21741317D01*
X20609519Y-21731793D01*
X20619042Y-21722269D01*
X20619042Y-21741317D01*
X20819042Y-21741317D02*
X20704757Y-21741317D01*
X20761899Y-21741317D02*
X20761899Y-21541317D01*
X20742852Y-21569888D01*
X20723804Y-21588936D01*
X20704757Y-21598460D01*
X20895233Y-21560364D02*
X20904757Y-21550841D01*
X20923804Y-21541317D01*
X20971423Y-21541317D01*
X20990471Y-21550841D01*
X20999995Y-21560364D01*
X21009519Y-21579412D01*
X21009519Y-21598460D01*
X20999995Y-21627031D01*
X20885709Y-21741317D01*
X21009519Y-21741317D01*
X21180947Y-21541317D02*
X21142852Y-21541317D01*
X21123804Y-21550841D01*
X21114280Y-21560364D01*
X21095233Y-21588936D01*
X21085709Y-21627031D01*
X21085709Y-21703222D01*
X21095233Y-21722269D01*
X21104757Y-21731793D01*
X21123804Y-21741317D01*
X21161899Y-21741317D01*
X21180947Y-21731793D01*
X21190471Y-21722269D01*
X21199995Y-21703222D01*
X21199995Y-21655603D01*
X21190471Y-21636555D01*
X21180947Y-21627031D01*
X21161899Y-21617507D01*
X21123804Y-21617507D01*
X21104757Y-21627031D01*
X21095233Y-21636555D01*
X21085709Y-21655603D01*
X21323804Y-21541317D02*
X21342852Y-21541317D01*
X21361899Y-21550841D01*
X21371423Y-21560364D01*
X21380947Y-21579412D01*
X21390471Y-21617507D01*
X21390471Y-21665126D01*
X21380947Y-21703222D01*
X21371423Y-21722269D01*
X21361899Y-21731793D01*
X21342852Y-21741317D01*
X21323804Y-21741317D01*
X21304757Y-21731793D01*
X21295233Y-21722269D01*
X21285709Y-21703222D01*
X21276185Y-21665126D01*
X21276185Y-21617507D01*
X21285709Y-21579412D01*
X21295233Y-21560364D01*
X21304757Y-21550841D01*
X21323804Y-21541317D01*
X21466661Y-21541317D02*
X21466661Y-21579412D01*
X21542852Y-21541317D02*
X21542852Y-21579412D01*
X21838090Y-21817507D02*
X21828566Y-21807983D01*
X21809519Y-21779412D01*
X21799995Y-21760364D01*
X21790471Y-21731793D01*
X21780947Y-21684174D01*
X21780947Y-21646079D01*
X21790471Y-21598460D01*
X21799995Y-21569888D01*
X21809519Y-21550841D01*
X21828566Y-21522269D01*
X21838090Y-21512745D01*
X22019042Y-21741317D02*
X21904757Y-21741317D01*
X21961899Y-21741317D02*
X21961899Y-21541317D01*
X21942852Y-21569888D01*
X21923804Y-21588936D01*
X21904757Y-21598460D01*
X22257138Y-21741317D02*
X22257138Y-21541317D01*
X22342852Y-21741317D02*
X22342852Y-21636555D01*
X22333328Y-21617507D01*
X22314280Y-21607983D01*
X22285709Y-21607983D01*
X22266661Y-21617507D01*
X22257138Y-21627031D01*
X22466661Y-21741317D02*
X22447614Y-21731793D01*
X22438090Y-21722269D01*
X22428566Y-21703222D01*
X22428566Y-21646079D01*
X22438090Y-21627031D01*
X22447614Y-21617507D01*
X22466661Y-21607983D01*
X22495233Y-21607983D01*
X22514280Y-21617507D01*
X22523804Y-21627031D01*
X22533328Y-21646079D01*
X22533328Y-21703222D01*
X22523804Y-21722269D01*
X22514280Y-21731793D01*
X22495233Y-21741317D01*
X22466661Y-21741317D01*
X22647614Y-21741317D02*
X22628566Y-21731793D01*
X22619042Y-21712745D01*
X22619042Y-21541317D01*
X22799995Y-21731793D02*
X22780947Y-21741317D01*
X22742852Y-21741317D01*
X22723804Y-21731793D01*
X22714280Y-21712745D01*
X22714280Y-21636555D01*
X22723804Y-21617507D01*
X22742852Y-21607983D01*
X22780947Y-21607983D01*
X22799995Y-21617507D01*
X22809518Y-21636555D01*
X22809518Y-21655603D01*
X22714280Y-21674650D01*
X22876185Y-21817507D02*
X22885709Y-21807983D01*
X22904757Y-21779412D01*
X22914280Y-21760364D01*
X22923804Y-21731793D01*
X22933328Y-21684174D01*
X22933328Y-21646079D01*
X22923804Y-21598460D01*
X22914280Y-21569888D01*
X22904757Y-21550841D01*
X22885709Y-21522269D01*
X22876185Y-21512745D01*
M02*
