%TF.GenerationSoftware,KiCad,Pcbnew,(6.0.7)*%
%TF.CreationDate,2022-11-10T16:47:27-05:00*%
%TF.ProjectId,_HW_HandyRadio_,5f48575f-4861-46e6-9479-526164696f5f,rev?*%
%TF.SameCoordinates,Original*%
%TF.FileFunction,Legend,Bot*%
%TF.FilePolarity,Positive*%
%FSLAX46Y46*%
G04 Gerber Fmt 4.6, Leading zero omitted, Abs format (unit mm)*
G04 Created by KiCad (PCBNEW (6.0.7)) date 2022-11-10 16:47:27*
%MOMM*%
%LPD*%
G01*
G04 APERTURE LIST*
G04 Aperture macros list*
%AMRoundRect*
0 Rectangle with rounded corners*
0 $1 Rounding radius*
0 $2 $3 $4 $5 $6 $7 $8 $9 X,Y pos of 4 corners*
0 Add a 4 corners polygon primitive as box body*
4,1,4,$2,$3,$4,$5,$6,$7,$8,$9,$2,$3,0*
0 Add four circle primitives for the rounded corners*
1,1,$1+$1,$2,$3*
1,1,$1+$1,$4,$5*
1,1,$1+$1,$6,$7*
1,1,$1+$1,$8,$9*
0 Add four rect primitives between the rounded corners*
20,1,$1+$1,$2,$3,$4,$5,0*
20,1,$1+$1,$4,$5,$6,$7,0*
20,1,$1+$1,$6,$7,$8,$9,0*
20,1,$1+$1,$8,$9,$2,$3,0*%
G04 Aperture macros list end*
%ADD10C,0.150000*%
%ADD11C,0.152400*%
%ADD12C,0.203200*%
%ADD13C,0.254000*%
%ADD14C,0.127000*%
%ADD15C,3.200000*%
%ADD16RoundRect,0.250000X-0.625000X0.350000X-0.625000X-0.350000X0.625000X-0.350000X0.625000X0.350000X0*%
%ADD17O,1.750000X1.200000*%
%ADD18C,2.200000*%
%ADD19C,1.700000*%
%ADD20C,0.800000*%
%ADD21C,6.400000*%
%ADD22O,1.900000X1.000000*%
%ADD23O,1.250000X1.050000*%
%ADD24C,4.400000*%
%ADD25R,1.700000X1.700000*%
%ADD26O,1.700000X1.700000*%
%ADD27R,1.800000X1.800000*%
%ADD28C,1.800000*%
%ADD29C,1.600000*%
%ADD30R,1.800000X1.600000*%
%ADD31RoundRect,0.250000X-0.350000X-0.625000X0.350000X-0.625000X0.350000X0.625000X-0.350000X0.625000X0*%
%ADD32O,1.200000X1.750000*%
G04 APERTURE END LIST*
D10*
X235368000Y-121301000D02*
X251624000Y-121301000D01*
X251624000Y-121301000D02*
X251624000Y-125746000D01*
X251624000Y-125746000D02*
X235368000Y-125746000D01*
X235368000Y-125746000D02*
X235368000Y-121301000D01*
D11*
X257063833Y-134182428D02*
X257021500Y-134153400D01*
X256894500Y-134095342D01*
X256809833Y-134066314D01*
X256682833Y-134037285D01*
X256471166Y-134008257D01*
X256301833Y-134008257D01*
X256090166Y-134037285D01*
X255963166Y-134066314D01*
X255878500Y-134095342D01*
X255751500Y-134153400D01*
X255709166Y-134182428D01*
X256640500Y-134763000D02*
X256682833Y-134733971D01*
X256725166Y-134646885D01*
X256725166Y-134588828D01*
X256682833Y-134501742D01*
X256598166Y-134443685D01*
X256513500Y-134414657D01*
X256344166Y-134385628D01*
X256217166Y-134385628D01*
X256047833Y-134414657D01*
X255963166Y-134443685D01*
X255878500Y-134501742D01*
X255836166Y-134588828D01*
X255836166Y-134646885D01*
X255878500Y-134733971D01*
X255920833Y-134763000D01*
X257063833Y-134966200D02*
X257021500Y-134995228D01*
X256894500Y-135053285D01*
X256809833Y-135082314D01*
X256682833Y-135111342D01*
X256471166Y-135140371D01*
X256301833Y-135140371D01*
X256090166Y-135111342D01*
X255963166Y-135082314D01*
X255878500Y-135053285D01*
X255751500Y-134995228D01*
X255709166Y-134966200D01*
X255920833Y-135866085D02*
X255878500Y-135895114D01*
X255836166Y-135953171D01*
X255836166Y-136098314D01*
X255878500Y-136156371D01*
X255920833Y-136185400D01*
X256005500Y-136214428D01*
X256090166Y-136214428D01*
X256217166Y-136185400D01*
X256725166Y-135837057D01*
X256725166Y-136214428D01*
X255836166Y-136591800D02*
X255836166Y-136649857D01*
X255878500Y-136707914D01*
X255920833Y-136736942D01*
X256005500Y-136765971D01*
X256174833Y-136795000D01*
X256386500Y-136795000D01*
X256555833Y-136765971D01*
X256640500Y-136736942D01*
X256682833Y-136707914D01*
X256725166Y-136649857D01*
X256725166Y-136591800D01*
X256682833Y-136533742D01*
X256640500Y-136504714D01*
X256555833Y-136475685D01*
X256386500Y-136446657D01*
X256174833Y-136446657D01*
X256005500Y-136475685D01*
X255920833Y-136504714D01*
X255878500Y-136533742D01*
X255836166Y-136591800D01*
X255920833Y-137027228D02*
X255878500Y-137056257D01*
X255836166Y-137114314D01*
X255836166Y-137259457D01*
X255878500Y-137317514D01*
X255920833Y-137346542D01*
X256005500Y-137375571D01*
X256090166Y-137375571D01*
X256217166Y-137346542D01*
X256725166Y-136998200D01*
X256725166Y-137375571D01*
X255920833Y-137607800D02*
X255878500Y-137636828D01*
X255836166Y-137694885D01*
X255836166Y-137840028D01*
X255878500Y-137898085D01*
X255920833Y-137927114D01*
X256005500Y-137956142D01*
X256090166Y-137956142D01*
X256217166Y-137927114D01*
X256725166Y-137578771D01*
X256725166Y-137956142D01*
X256682833Y-138652828D02*
X256725166Y-138739914D01*
X256725166Y-138885057D01*
X256682833Y-138943114D01*
X256640500Y-138972142D01*
X256555833Y-139001171D01*
X256471166Y-139001171D01*
X256386500Y-138972142D01*
X256344166Y-138943114D01*
X256301833Y-138885057D01*
X256259500Y-138768942D01*
X256217166Y-138710885D01*
X256174833Y-138681857D01*
X256090166Y-138652828D01*
X256005500Y-138652828D01*
X255920833Y-138681857D01*
X255878500Y-138710885D01*
X255836166Y-138768942D01*
X255836166Y-138914085D01*
X255878500Y-139001171D01*
X256725166Y-139262428D02*
X256132500Y-139262428D01*
X255836166Y-139262428D02*
X255878500Y-139233400D01*
X255920833Y-139262428D01*
X255878500Y-139291457D01*
X255836166Y-139262428D01*
X255920833Y-139262428D01*
X256725166Y-139813971D02*
X256259500Y-139813971D01*
X256174833Y-139784942D01*
X256132500Y-139726885D01*
X256132500Y-139610771D01*
X256174833Y-139552714D01*
X256682833Y-139813971D02*
X256725166Y-139755914D01*
X256725166Y-139610771D01*
X256682833Y-139552714D01*
X256598166Y-139523685D01*
X256513500Y-139523685D01*
X256428833Y-139552714D01*
X256386500Y-139610771D01*
X256386500Y-139755914D01*
X256344166Y-139813971D01*
X256132500Y-140046200D02*
X256725166Y-140191342D01*
X256132500Y-140336485D01*
X256725166Y-140829971D02*
X256259500Y-140829971D01*
X256174833Y-140800942D01*
X256132500Y-140742885D01*
X256132500Y-140626771D01*
X256174833Y-140568714D01*
X256682833Y-140829971D02*
X256725166Y-140771914D01*
X256725166Y-140626771D01*
X256682833Y-140568714D01*
X256598166Y-140539685D01*
X256513500Y-140539685D01*
X256428833Y-140568714D01*
X256386500Y-140626771D01*
X256386500Y-140771914D01*
X256344166Y-140829971D01*
X256682833Y-141091228D02*
X256725166Y-141149285D01*
X256725166Y-141265400D01*
X256682833Y-141323457D01*
X256598166Y-141352485D01*
X256555833Y-141352485D01*
X256471166Y-141323457D01*
X256428833Y-141265400D01*
X256428833Y-141178314D01*
X256386500Y-141120257D01*
X256301833Y-141091228D01*
X256259500Y-141091228D01*
X256174833Y-141120257D01*
X256132500Y-141178314D01*
X256132500Y-141265400D01*
X256174833Y-141323457D01*
X256725166Y-141613742D02*
X255836166Y-141613742D01*
X256725166Y-141875000D02*
X256259500Y-141875000D01*
X256174833Y-141845971D01*
X256132500Y-141787914D01*
X256132500Y-141700828D01*
X256174833Y-141642771D01*
X256217166Y-141613742D01*
X255836166Y-142542657D02*
X255836166Y-142891000D01*
X256725166Y-142716828D02*
X255836166Y-142716828D01*
X256725166Y-143355457D02*
X256259500Y-143355457D01*
X256174833Y-143326428D01*
X256132500Y-143268371D01*
X256132500Y-143152257D01*
X256174833Y-143094200D01*
X256682833Y-143355457D02*
X256725166Y-143297400D01*
X256725166Y-143152257D01*
X256682833Y-143094200D01*
X256598166Y-143065171D01*
X256513500Y-143065171D01*
X256428833Y-143094200D01*
X256386500Y-143152257D01*
X256386500Y-143297400D01*
X256344166Y-143355457D01*
X256725166Y-143645742D02*
X255836166Y-143645742D01*
X256725166Y-143907000D02*
X256259500Y-143907000D01*
X256174833Y-143877971D01*
X256132500Y-143819914D01*
X256132500Y-143732828D01*
X256174833Y-143674771D01*
X256217166Y-143645742D01*
X256682833Y-144429514D02*
X256725166Y-144371457D01*
X256725166Y-144255342D01*
X256682833Y-144197285D01*
X256598166Y-144168257D01*
X256259500Y-144168257D01*
X256174833Y-144197285D01*
X256132500Y-144255342D01*
X256132500Y-144371457D01*
X256174833Y-144429514D01*
X256259500Y-144458542D01*
X256344166Y-144458542D01*
X256428833Y-144168257D01*
X256725166Y-144719800D02*
X256132500Y-144719800D01*
X256301833Y-144719800D02*
X256217166Y-144748828D01*
X256174833Y-144777857D01*
X256132500Y-144835914D01*
X256132500Y-144893971D01*
X256725166Y-145561628D02*
X255836166Y-145561628D01*
X255836166Y-145793857D01*
X255878500Y-145851914D01*
X255920833Y-145880942D01*
X256005500Y-145909971D01*
X256132500Y-145909971D01*
X256217166Y-145880942D01*
X256259500Y-145851914D01*
X256301833Y-145793857D01*
X256301833Y-145561628D01*
X256725166Y-146432485D02*
X256259500Y-146432485D01*
X256174833Y-146403457D01*
X256132500Y-146345400D01*
X256132500Y-146229285D01*
X256174833Y-146171228D01*
X256682833Y-146432485D02*
X256725166Y-146374428D01*
X256725166Y-146229285D01*
X256682833Y-146171228D01*
X256598166Y-146142200D01*
X256513500Y-146142200D01*
X256428833Y-146171228D01*
X256386500Y-146229285D01*
X256386500Y-146374428D01*
X256344166Y-146432485D01*
X256725166Y-146722771D02*
X256132500Y-146722771D01*
X256301833Y-146722771D02*
X256217166Y-146751800D01*
X256174833Y-146780828D01*
X256132500Y-146838885D01*
X256132500Y-146896942D01*
X256132500Y-147042085D02*
X256725166Y-147187228D01*
X256132500Y-147332371D01*
X256725166Y-147825857D02*
X256259500Y-147825857D01*
X256174833Y-147796828D01*
X256132500Y-147738771D01*
X256132500Y-147622657D01*
X256174833Y-147564600D01*
X256682833Y-147825857D02*
X256725166Y-147767800D01*
X256725166Y-147622657D01*
X256682833Y-147564600D01*
X256598166Y-147535571D01*
X256513500Y-147535571D01*
X256428833Y-147564600D01*
X256386500Y-147622657D01*
X256386500Y-147767800D01*
X256344166Y-147825857D01*
X256725166Y-148116142D02*
X256132500Y-148116142D01*
X256301833Y-148116142D02*
X256217166Y-148145171D01*
X256174833Y-148174200D01*
X256132500Y-148232257D01*
X256132500Y-148290314D01*
X256471166Y-148928942D02*
X256471166Y-149219228D01*
X256725166Y-148870885D02*
X255836166Y-149074085D01*
X256725166Y-149277285D01*
X256725166Y-149770771D02*
X256725166Y-149480485D01*
X255836166Y-149480485D01*
X256725166Y-150264257D02*
X256725166Y-149973971D01*
X255836166Y-149973971D01*
X256725166Y-151280257D02*
X256301833Y-151077057D01*
X256725166Y-150931914D02*
X255836166Y-150931914D01*
X255836166Y-151164142D01*
X255878500Y-151222200D01*
X255920833Y-151251228D01*
X256005500Y-151280257D01*
X256132500Y-151280257D01*
X256217166Y-151251228D01*
X256259500Y-151222200D01*
X256301833Y-151164142D01*
X256301833Y-150931914D01*
X256725166Y-151541514D02*
X255836166Y-151541514D01*
X255878500Y-152151114D02*
X255836166Y-152093057D01*
X255836166Y-152005971D01*
X255878500Y-151918885D01*
X255963166Y-151860828D01*
X256047833Y-151831800D01*
X256217166Y-151802771D01*
X256344166Y-151802771D01*
X256513500Y-151831800D01*
X256598166Y-151860828D01*
X256682833Y-151918885D01*
X256725166Y-152005971D01*
X256725166Y-152064028D01*
X256682833Y-152151114D01*
X256640500Y-152180142D01*
X256344166Y-152180142D01*
X256344166Y-152064028D01*
X256725166Y-152441400D02*
X255836166Y-152441400D01*
X256259500Y-152441400D02*
X256259500Y-152789742D01*
X256725166Y-152789742D02*
X255836166Y-152789742D01*
X255836166Y-152992942D02*
X255836166Y-153341285D01*
X256725166Y-153167114D02*
X255836166Y-153167114D01*
X256682833Y-153515457D02*
X256725166Y-153602542D01*
X256725166Y-153747685D01*
X256682833Y-153805742D01*
X256640500Y-153834771D01*
X256555833Y-153863800D01*
X256471166Y-153863800D01*
X256386500Y-153834771D01*
X256344166Y-153805742D01*
X256301833Y-153747685D01*
X256259500Y-153631571D01*
X256217166Y-153573514D01*
X256174833Y-153544485D01*
X256090166Y-153515457D01*
X256005500Y-153515457D01*
X255920833Y-153544485D01*
X255878500Y-153573514D01*
X255836166Y-153631571D01*
X255836166Y-153776714D01*
X255878500Y-153863800D01*
X256725166Y-154937857D02*
X256301833Y-154734657D01*
X256725166Y-154589514D02*
X255836166Y-154589514D01*
X255836166Y-154821742D01*
X255878500Y-154879800D01*
X255920833Y-154908828D01*
X256005500Y-154937857D01*
X256132500Y-154937857D01*
X256217166Y-154908828D01*
X256259500Y-154879800D01*
X256301833Y-154821742D01*
X256301833Y-154589514D01*
X256259500Y-155199114D02*
X256259500Y-155402314D01*
X256725166Y-155489400D02*
X256725166Y-155199114D01*
X255836166Y-155199114D01*
X255836166Y-155489400D01*
X256682833Y-155721628D02*
X256725166Y-155808714D01*
X256725166Y-155953857D01*
X256682833Y-156011914D01*
X256640500Y-156040942D01*
X256555833Y-156069971D01*
X256471166Y-156069971D01*
X256386500Y-156040942D01*
X256344166Y-156011914D01*
X256301833Y-155953857D01*
X256259500Y-155837742D01*
X256217166Y-155779685D01*
X256174833Y-155750657D01*
X256090166Y-155721628D01*
X256005500Y-155721628D01*
X255920833Y-155750657D01*
X255878500Y-155779685D01*
X255836166Y-155837742D01*
X255836166Y-155982885D01*
X255878500Y-156069971D01*
X256259500Y-156331228D02*
X256259500Y-156534428D01*
X256725166Y-156621514D02*
X256725166Y-156331228D01*
X255836166Y-156331228D01*
X255836166Y-156621514D01*
X256725166Y-157231114D02*
X256301833Y-157027914D01*
X256725166Y-156882771D02*
X255836166Y-156882771D01*
X255836166Y-157115000D01*
X255878500Y-157173057D01*
X255920833Y-157202085D01*
X256005500Y-157231114D01*
X256132500Y-157231114D01*
X256217166Y-157202085D01*
X256259500Y-157173057D01*
X256301833Y-157115000D01*
X256301833Y-156882771D01*
X255836166Y-157405285D02*
X256725166Y-157608485D01*
X255836166Y-157811685D01*
X256259500Y-158014885D02*
X256259500Y-158218085D01*
X256725166Y-158305171D02*
X256725166Y-158014885D01*
X255836166Y-158014885D01*
X255836166Y-158305171D01*
X256725166Y-158566428D02*
X255836166Y-158566428D01*
X255836166Y-158711571D01*
X255878500Y-158798657D01*
X255963166Y-158856714D01*
X256047833Y-158885742D01*
X256217166Y-158914771D01*
X256344166Y-158914771D01*
X256513500Y-158885742D01*
X256598166Y-158856714D01*
X256682833Y-158798657D01*
X256725166Y-158711571D01*
X256725166Y-158566428D01*
D12*
X240473158Y-140658219D02*
X239892586Y-140658219D01*
X240182872Y-141674219D02*
X240182872Y-140658219D01*
X239408777Y-141674219D02*
X239505539Y-141625838D01*
X239553920Y-141577457D01*
X239602300Y-141480695D01*
X239602300Y-141190409D01*
X239553920Y-141093647D01*
X239505539Y-141045266D01*
X239408777Y-140996885D01*
X239263634Y-140996885D01*
X239166872Y-141045266D01*
X239118491Y-141093647D01*
X239070110Y-141190409D01*
X239070110Y-141480695D01*
X239118491Y-141577457D01*
X239166872Y-141625838D01*
X239263634Y-141674219D01*
X239408777Y-141674219D01*
X237860586Y-141674219D02*
X237860586Y-140996885D01*
X237860586Y-141093647D02*
X237812205Y-141045266D01*
X237715443Y-140996885D01*
X237570300Y-140996885D01*
X237473539Y-141045266D01*
X237425158Y-141142028D01*
X237425158Y-141674219D01*
X237425158Y-141142028D02*
X237376777Y-141045266D01*
X237280015Y-140996885D01*
X237134872Y-140996885D01*
X237038110Y-141045266D01*
X236989729Y-141142028D01*
X236989729Y-141674219D01*
X236602681Y-140996885D02*
X236360777Y-141674219D01*
X236118872Y-140996885D02*
X236360777Y-141674219D01*
X236457539Y-141916123D01*
X236505920Y-141964504D01*
X236602681Y-142012885D01*
X234957729Y-140996885D02*
X234957729Y-142012885D01*
X234957729Y-141045266D02*
X234860967Y-140996885D01*
X234667443Y-140996885D01*
X234570681Y-141045266D01*
X234522300Y-141093647D01*
X234473920Y-141190409D01*
X234473920Y-141480695D01*
X234522300Y-141577457D01*
X234570681Y-141625838D01*
X234667443Y-141674219D01*
X234860967Y-141674219D01*
X234957729Y-141625838D01*
X234038491Y-141674219D02*
X234038491Y-140996885D01*
X234038491Y-141190409D02*
X233990110Y-141093647D01*
X233941729Y-141045266D01*
X233844967Y-140996885D01*
X233748205Y-140996885D01*
X233264396Y-141674219D02*
X233361158Y-141625838D01*
X233409539Y-141577457D01*
X233457920Y-141480695D01*
X233457920Y-141190409D01*
X233409539Y-141093647D01*
X233361158Y-141045266D01*
X233264396Y-140996885D01*
X233119253Y-140996885D01*
X233022491Y-141045266D01*
X232974110Y-141093647D01*
X232925729Y-141190409D01*
X232925729Y-141480695D01*
X232974110Y-141577457D01*
X233022491Y-141625838D01*
X233119253Y-141674219D01*
X233264396Y-141674219D01*
X232635443Y-140996885D02*
X232248396Y-140996885D01*
X232490300Y-141674219D02*
X232490300Y-140803361D01*
X232441920Y-140706600D01*
X232345158Y-140658219D01*
X232248396Y-140658219D01*
X231522681Y-141625838D02*
X231619443Y-141674219D01*
X231812967Y-141674219D01*
X231909729Y-141625838D01*
X231958110Y-141529076D01*
X231958110Y-141142028D01*
X231909729Y-141045266D01*
X231812967Y-140996885D01*
X231619443Y-140996885D01*
X231522681Y-141045266D01*
X231474300Y-141142028D01*
X231474300Y-141238790D01*
X231958110Y-141335552D01*
X231087253Y-141625838D02*
X230990491Y-141674219D01*
X230796967Y-141674219D01*
X230700205Y-141625838D01*
X230651824Y-141529076D01*
X230651824Y-141480695D01*
X230700205Y-141383933D01*
X230796967Y-141335552D01*
X230942110Y-141335552D01*
X231038872Y-141287171D01*
X231087253Y-141190409D01*
X231087253Y-141142028D01*
X231038872Y-141045266D01*
X230942110Y-140996885D01*
X230796967Y-140996885D01*
X230700205Y-141045266D01*
X230264777Y-141625838D02*
X230168015Y-141674219D01*
X229974491Y-141674219D01*
X229877729Y-141625838D01*
X229829348Y-141529076D01*
X229829348Y-141480695D01*
X229877729Y-141383933D01*
X229974491Y-141335552D01*
X230119634Y-141335552D01*
X230216396Y-141287171D01*
X230264777Y-141190409D01*
X230264777Y-141142028D01*
X230216396Y-141045266D01*
X230119634Y-140996885D01*
X229974491Y-140996885D01*
X229877729Y-141045266D01*
X229248777Y-141674219D02*
X229345539Y-141625838D01*
X229393920Y-141577457D01*
X229442300Y-141480695D01*
X229442300Y-141190409D01*
X229393920Y-141093647D01*
X229345539Y-141045266D01*
X229248777Y-140996885D01*
X229103634Y-140996885D01*
X229006872Y-141045266D01*
X228958491Y-141093647D01*
X228910110Y-141190409D01*
X228910110Y-141480695D01*
X228958491Y-141577457D01*
X229006872Y-141625838D01*
X229103634Y-141674219D01*
X229248777Y-141674219D01*
X228474681Y-141674219D02*
X228474681Y-140996885D01*
X228474681Y-141190409D02*
X228426300Y-141093647D01*
X228377920Y-141045266D01*
X228281158Y-140996885D01*
X228184396Y-140996885D01*
X227894110Y-141625838D02*
X227797348Y-141674219D01*
X227603824Y-141674219D01*
X227507062Y-141625838D01*
X227458681Y-141529076D01*
X227458681Y-141480695D01*
X227507062Y-141383933D01*
X227603824Y-141335552D01*
X227748967Y-141335552D01*
X227845729Y-141287171D01*
X227894110Y-141190409D01*
X227894110Y-141142028D01*
X227845729Y-141045266D01*
X227748967Y-140996885D01*
X227603824Y-140996885D01*
X227507062Y-141045266D01*
X226394300Y-140996885D02*
X226007253Y-140996885D01*
X226249158Y-140658219D02*
X226249158Y-141529076D01*
X226200777Y-141625838D01*
X226104015Y-141674219D01*
X226007253Y-141674219D01*
X225668586Y-141674219D02*
X225668586Y-140658219D01*
X225233158Y-141674219D02*
X225233158Y-141142028D01*
X225281539Y-141045266D01*
X225378300Y-140996885D01*
X225523443Y-140996885D01*
X225620205Y-141045266D01*
X225668586Y-141093647D01*
X224313920Y-141674219D02*
X224313920Y-141142028D01*
X224362300Y-141045266D01*
X224459062Y-140996885D01*
X224652586Y-140996885D01*
X224749348Y-141045266D01*
X224313920Y-141625838D02*
X224410681Y-141674219D01*
X224652586Y-141674219D01*
X224749348Y-141625838D01*
X224797729Y-141529076D01*
X224797729Y-141432314D01*
X224749348Y-141335552D01*
X224652586Y-141287171D01*
X224410681Y-141287171D01*
X224313920Y-141238790D01*
X223975253Y-140996885D02*
X223588205Y-140996885D01*
X223830110Y-140658219D02*
X223830110Y-141529076D01*
X223781729Y-141625838D01*
X223684967Y-141674219D01*
X223588205Y-141674219D01*
X222475443Y-141674219D02*
X222475443Y-140658219D01*
X221072396Y-141674219D02*
X221169158Y-141625838D01*
X221217539Y-141529076D01*
X221217539Y-140658219D01*
X220685348Y-141674219D02*
X220685348Y-140996885D01*
X220685348Y-140658219D02*
X220733729Y-140706600D01*
X220685348Y-140754980D01*
X220636967Y-140706600D01*
X220685348Y-140658219D01*
X220685348Y-140754980D01*
X220201539Y-141674219D02*
X220201539Y-140658219D01*
X220104777Y-141287171D02*
X219814491Y-141674219D01*
X219814491Y-140996885D02*
X220201539Y-141383933D01*
X218992015Y-141625838D02*
X219088777Y-141674219D01*
X219282300Y-141674219D01*
X219379062Y-141625838D01*
X219427443Y-141529076D01*
X219427443Y-141142028D01*
X219379062Y-141045266D01*
X219282300Y-140996885D01*
X219088777Y-140996885D01*
X218992015Y-141045266D01*
X218943634Y-141142028D01*
X218943634Y-141238790D01*
X219427443Y-141335552D01*
X218072777Y-141674219D02*
X218072777Y-140658219D01*
X218072777Y-141625838D02*
X218169539Y-141674219D01*
X218363062Y-141674219D01*
X218459824Y-141625838D01*
X218508205Y-141577457D01*
X218556586Y-141480695D01*
X218556586Y-141190409D01*
X218508205Y-141093647D01*
X218459824Y-141045266D01*
X218363062Y-140996885D01*
X218169539Y-140996885D01*
X218072777Y-141045266D01*
X216960015Y-140996885D02*
X216572967Y-140996885D01*
X216814872Y-140658219D02*
X216814872Y-141529076D01*
X216766491Y-141625838D01*
X216669729Y-141674219D01*
X216572967Y-141674219D01*
X216089158Y-141674219D02*
X216185920Y-141625838D01*
X216234300Y-141577457D01*
X216282681Y-141480695D01*
X216282681Y-141190409D01*
X216234300Y-141093647D01*
X216185920Y-141045266D01*
X216089158Y-140996885D01*
X215944015Y-140996885D01*
X215847253Y-141045266D01*
X215798872Y-141093647D01*
X215750491Y-141190409D01*
X215750491Y-141480695D01*
X215798872Y-141577457D01*
X215847253Y-141625838D01*
X215944015Y-141674219D01*
X216089158Y-141674219D01*
X214540967Y-140996885D02*
X214540967Y-142012885D01*
X214540967Y-141045266D02*
X214444205Y-140996885D01*
X214250681Y-140996885D01*
X214153920Y-141045266D01*
X214105539Y-141093647D01*
X214057158Y-141190409D01*
X214057158Y-141480695D01*
X214105539Y-141577457D01*
X214153920Y-141625838D01*
X214250681Y-141674219D01*
X214444205Y-141674219D01*
X214540967Y-141625838D01*
X213621729Y-141674219D02*
X213621729Y-140996885D01*
X213621729Y-141190409D02*
X213573348Y-141093647D01*
X213524967Y-141045266D01*
X213428205Y-140996885D01*
X213331443Y-140996885D01*
X212605729Y-141625838D02*
X212702491Y-141674219D01*
X212896015Y-141674219D01*
X212992777Y-141625838D01*
X213041158Y-141529076D01*
X213041158Y-141142028D01*
X212992777Y-141045266D01*
X212896015Y-140996885D01*
X212702491Y-140996885D01*
X212605729Y-141045266D01*
X212557348Y-141142028D01*
X212557348Y-141238790D01*
X213041158Y-141335552D01*
X212170300Y-141625838D02*
X212073539Y-141674219D01*
X211880015Y-141674219D01*
X211783253Y-141625838D01*
X211734872Y-141529076D01*
X211734872Y-141480695D01*
X211783253Y-141383933D01*
X211880015Y-141335552D01*
X212025158Y-141335552D01*
X212121920Y-141287171D01*
X212170300Y-141190409D01*
X212170300Y-141142028D01*
X212121920Y-141045266D01*
X212025158Y-140996885D01*
X211880015Y-140996885D01*
X211783253Y-141045266D01*
X210912396Y-141625838D02*
X211009158Y-141674219D01*
X211202681Y-141674219D01*
X211299443Y-141625838D01*
X211347824Y-141529076D01*
X211347824Y-141142028D01*
X211299443Y-141045266D01*
X211202681Y-140996885D01*
X211009158Y-140996885D01*
X210912396Y-141045266D01*
X210864015Y-141142028D01*
X210864015Y-141238790D01*
X211347824Y-141335552D01*
X210428586Y-140996885D02*
X210428586Y-141674219D01*
X210428586Y-141093647D02*
X210380205Y-141045266D01*
X210283443Y-140996885D01*
X210138300Y-140996885D01*
X210041539Y-141045266D01*
X209993158Y-141142028D01*
X209993158Y-141674219D01*
X209654491Y-140996885D02*
X209267443Y-140996885D01*
X209509348Y-140658219D02*
X209509348Y-141529076D01*
X209460967Y-141625838D01*
X209364205Y-141674219D01*
X209267443Y-141674219D01*
X208299824Y-140996885D02*
X207912777Y-140996885D01*
X208154681Y-140658219D02*
X208154681Y-141529076D01*
X208106300Y-141625838D01*
X208009539Y-141674219D01*
X207912777Y-141674219D01*
X207574110Y-141674219D02*
X207574110Y-140658219D01*
X207138681Y-141674219D02*
X207138681Y-141142028D01*
X207187062Y-141045266D01*
X207283824Y-140996885D01*
X207428967Y-140996885D01*
X207525729Y-141045266D01*
X207574110Y-141093647D01*
X206654872Y-141674219D02*
X206654872Y-140996885D01*
X206654872Y-140658219D02*
X206703253Y-140706600D01*
X206654872Y-140754980D01*
X206606491Y-140706600D01*
X206654872Y-140658219D01*
X206654872Y-140754980D01*
X206219443Y-141625838D02*
X206122681Y-141674219D01*
X205929158Y-141674219D01*
X205832396Y-141625838D01*
X205784015Y-141529076D01*
X205784015Y-141480695D01*
X205832396Y-141383933D01*
X205929158Y-141335552D01*
X206074300Y-141335552D01*
X206171062Y-141287171D01*
X206219443Y-141190409D01*
X206219443Y-141142028D01*
X206171062Y-141045266D01*
X206074300Y-140996885D01*
X205929158Y-140996885D01*
X205832396Y-141045266D01*
X204574491Y-140996885D02*
X204574491Y-142012885D01*
X204574491Y-141045266D02*
X204477729Y-140996885D01*
X204284205Y-140996885D01*
X204187443Y-141045266D01*
X204139062Y-141093647D01*
X204090681Y-141190409D01*
X204090681Y-141480695D01*
X204139062Y-141577457D01*
X204187443Y-141625838D01*
X204284205Y-141674219D01*
X204477729Y-141674219D01*
X204574491Y-141625838D01*
X203655253Y-141674219D02*
X203655253Y-140996885D01*
X203655253Y-141190409D02*
X203606872Y-141093647D01*
X203558491Y-141045266D01*
X203461729Y-140996885D01*
X203364967Y-140996885D01*
X202881158Y-141674219D02*
X202977920Y-141625838D01*
X203026300Y-141577457D01*
X203074681Y-141480695D01*
X203074681Y-141190409D01*
X203026300Y-141093647D01*
X202977920Y-141045266D01*
X202881158Y-140996885D01*
X202736015Y-140996885D01*
X202639253Y-141045266D01*
X202590872Y-141093647D01*
X202542491Y-141190409D01*
X202542491Y-141480695D01*
X202590872Y-141577457D01*
X202639253Y-141625838D01*
X202736015Y-141674219D01*
X202881158Y-141674219D01*
X202107062Y-140996885D02*
X202107062Y-141867742D01*
X202155443Y-141964504D01*
X202252205Y-142012885D01*
X202300586Y-142012885D01*
X202107062Y-140658219D02*
X202155443Y-140706600D01*
X202107062Y-140754980D01*
X202058681Y-140706600D01*
X202107062Y-140658219D01*
X202107062Y-140754980D01*
X201236205Y-141625838D02*
X201332967Y-141674219D01*
X201526491Y-141674219D01*
X201623253Y-141625838D01*
X201671634Y-141529076D01*
X201671634Y-141142028D01*
X201623253Y-141045266D01*
X201526491Y-140996885D01*
X201332967Y-140996885D01*
X201236205Y-141045266D01*
X201187824Y-141142028D01*
X201187824Y-141238790D01*
X201671634Y-141335552D01*
X200316967Y-141625838D02*
X200413729Y-141674219D01*
X200607253Y-141674219D01*
X200704015Y-141625838D01*
X200752396Y-141577457D01*
X200800777Y-141480695D01*
X200800777Y-141190409D01*
X200752396Y-141093647D01*
X200704015Y-141045266D01*
X200607253Y-140996885D01*
X200413729Y-140996885D01*
X200316967Y-141045266D01*
X200026681Y-140996885D02*
X199639634Y-140996885D01*
X199881539Y-140658219D02*
X199881539Y-141529076D01*
X199833158Y-141625838D01*
X199736396Y-141674219D01*
X199639634Y-141674219D01*
X240424777Y-142632645D02*
X240231253Y-143309979D01*
X240037729Y-142826169D01*
X239844205Y-143309979D01*
X239650681Y-142632645D01*
X239263634Y-143309979D02*
X239263634Y-142293979D01*
X238828205Y-143309979D02*
X238828205Y-142777788D01*
X238876586Y-142681026D01*
X238973348Y-142632645D01*
X239118491Y-142632645D01*
X239215253Y-142681026D01*
X239263634Y-142729407D01*
X238344396Y-143309979D02*
X238344396Y-142632645D01*
X238344396Y-142293979D02*
X238392777Y-142342360D01*
X238344396Y-142390740D01*
X238296015Y-142342360D01*
X238344396Y-142293979D01*
X238344396Y-142390740D01*
X237715443Y-143309979D02*
X237812205Y-143261598D01*
X237860586Y-143164836D01*
X237860586Y-142293979D01*
X236941348Y-143261598D02*
X237038110Y-143309979D01*
X237231634Y-143309979D01*
X237328396Y-143261598D01*
X237376777Y-143164836D01*
X237376777Y-142777788D01*
X237328396Y-142681026D01*
X237231634Y-142632645D01*
X237038110Y-142632645D01*
X236941348Y-142681026D01*
X236892967Y-142777788D01*
X236892967Y-142874550D01*
X237376777Y-142971312D01*
X235828586Y-142632645D02*
X235441539Y-142632645D01*
X235683443Y-142293979D02*
X235683443Y-143164836D01*
X235635062Y-143261598D01*
X235538300Y-143309979D01*
X235441539Y-143309979D01*
X235102872Y-143309979D02*
X235102872Y-142293979D01*
X234667443Y-143309979D02*
X234667443Y-142777788D01*
X234715824Y-142681026D01*
X234812586Y-142632645D01*
X234957729Y-142632645D01*
X235054491Y-142681026D01*
X235102872Y-142729407D01*
X233796586Y-143261598D02*
X233893348Y-143309979D01*
X234086872Y-143309979D01*
X234183634Y-143261598D01*
X234232015Y-143164836D01*
X234232015Y-142777788D01*
X234183634Y-142681026D01*
X234086872Y-142632645D01*
X233893348Y-142632645D01*
X233796586Y-142681026D01*
X233748205Y-142777788D01*
X233748205Y-142874550D01*
X234232015Y-142971312D01*
X233409539Y-142632645D02*
X233167634Y-143309979D01*
X232925729Y-142632645D02*
X233167634Y-143309979D01*
X233264396Y-143551883D01*
X233312777Y-143600264D01*
X233409539Y-143648645D01*
X231861348Y-142632645D02*
X231667824Y-143309979D01*
X231474300Y-142826169D01*
X231280777Y-143309979D01*
X231087253Y-142632645D01*
X230313158Y-143261598D02*
X230409920Y-143309979D01*
X230603443Y-143309979D01*
X230700205Y-143261598D01*
X230748586Y-143164836D01*
X230748586Y-142777788D01*
X230700205Y-142681026D01*
X230603443Y-142632645D01*
X230409920Y-142632645D01*
X230313158Y-142681026D01*
X230264777Y-142777788D01*
X230264777Y-142874550D01*
X230748586Y-142971312D01*
X229829348Y-143309979D02*
X229829348Y-142632645D01*
X229829348Y-142826169D02*
X229780967Y-142729407D01*
X229732586Y-142681026D01*
X229635824Y-142632645D01*
X229539062Y-142632645D01*
X228813348Y-143261598D02*
X228910110Y-143309979D01*
X229103634Y-143309979D01*
X229200396Y-143261598D01*
X229248777Y-143164836D01*
X229248777Y-142777788D01*
X229200396Y-142681026D01*
X229103634Y-142632645D01*
X228910110Y-142632645D01*
X228813348Y-142681026D01*
X228764967Y-142777788D01*
X228764967Y-142874550D01*
X229248777Y-142971312D01*
X227120015Y-143309979D02*
X227120015Y-142777788D01*
X227168396Y-142681026D01*
X227265158Y-142632645D01*
X227458681Y-142632645D01*
X227555443Y-142681026D01*
X227120015Y-143261598D02*
X227216777Y-143309979D01*
X227458681Y-143309979D01*
X227555443Y-143261598D01*
X227603824Y-143164836D01*
X227603824Y-143068074D01*
X227555443Y-142971312D01*
X227458681Y-142922931D01*
X227216777Y-142922931D01*
X227120015Y-142874550D01*
X226491062Y-143309979D02*
X226587824Y-143261598D01*
X226636205Y-143164836D01*
X226636205Y-142293979D01*
X226104015Y-143309979D02*
X226104015Y-142632645D01*
X226104015Y-142293979D02*
X226152396Y-142342360D01*
X226104015Y-142390740D01*
X226055634Y-142342360D01*
X226104015Y-142293979D01*
X226104015Y-142390740D01*
X225716967Y-142632645D02*
X225475062Y-143309979D01*
X225233158Y-142632645D01*
X224459062Y-143261598D02*
X224555824Y-143309979D01*
X224749348Y-143309979D01*
X224846110Y-143261598D01*
X224894491Y-143164836D01*
X224894491Y-142777788D01*
X224846110Y-142681026D01*
X224749348Y-142632645D01*
X224555824Y-142632645D01*
X224459062Y-142681026D01*
X224410681Y-142777788D01*
X224410681Y-142874550D01*
X224894491Y-142971312D01*
X223975253Y-143213217D02*
X223926872Y-143261598D01*
X223975253Y-143309979D01*
X224023634Y-143261598D01*
X223975253Y-143213217D01*
X223975253Y-143309979D01*
X222185158Y-142342360D02*
X222281920Y-142293979D01*
X222427062Y-142293979D01*
X222572205Y-142342360D01*
X222668967Y-142439121D01*
X222717348Y-142535883D01*
X222765729Y-142729407D01*
X222765729Y-142874550D01*
X222717348Y-143068074D01*
X222668967Y-143164836D01*
X222572205Y-143261598D01*
X222427062Y-143309979D01*
X222330300Y-143309979D01*
X222185158Y-143261598D01*
X222136777Y-143213217D01*
X222136777Y-142874550D01*
X222330300Y-142874550D01*
X221507824Y-142293979D02*
X221314300Y-142293979D01*
X221217539Y-142342360D01*
X221120777Y-142439121D01*
X221072396Y-142632645D01*
X221072396Y-142971312D01*
X221120777Y-143164836D01*
X221217539Y-143261598D01*
X221314300Y-143309979D01*
X221507824Y-143309979D01*
X221604586Y-143261598D01*
X221701348Y-143164836D01*
X221749729Y-142971312D01*
X221749729Y-142632645D01*
X221701348Y-142439121D01*
X221604586Y-142342360D01*
X221507824Y-142293979D01*
X220636967Y-143309979D02*
X220636967Y-142293979D01*
X220395062Y-142293979D01*
X220249920Y-142342360D01*
X220153158Y-142439121D01*
X220104777Y-142535883D01*
X220056396Y-142729407D01*
X220056396Y-142874550D01*
X220104777Y-143068074D01*
X220153158Y-143164836D01*
X220249920Y-143261598D01*
X220395062Y-143309979D01*
X220636967Y-143309979D01*
X218508205Y-142777788D02*
X218363062Y-142826169D01*
X218314681Y-142874550D01*
X218266300Y-142971312D01*
X218266300Y-143116455D01*
X218314681Y-143213217D01*
X218363062Y-143261598D01*
X218459824Y-143309979D01*
X218846872Y-143309979D01*
X218846872Y-142293979D01*
X218508205Y-142293979D01*
X218411443Y-142342360D01*
X218363062Y-142390740D01*
X218314681Y-142487502D01*
X218314681Y-142584264D01*
X218363062Y-142681026D01*
X218411443Y-142729407D01*
X218508205Y-142777788D01*
X218846872Y-142777788D01*
X217347062Y-143309979D02*
X217830872Y-143309979D01*
X217830872Y-142293979D01*
X217008396Y-142777788D02*
X216669729Y-142777788D01*
X216524586Y-143309979D02*
X217008396Y-143309979D01*
X217008396Y-142293979D01*
X216524586Y-142293979D01*
X216137539Y-143261598D02*
X215992396Y-143309979D01*
X215750491Y-143309979D01*
X215653729Y-143261598D01*
X215605348Y-143213217D01*
X215556967Y-143116455D01*
X215556967Y-143019693D01*
X215605348Y-142922931D01*
X215653729Y-142874550D01*
X215750491Y-142826169D01*
X215944015Y-142777788D01*
X216040777Y-142729407D01*
X216089158Y-142681026D01*
X216137539Y-142584264D01*
X216137539Y-142487502D01*
X216089158Y-142390740D01*
X216040777Y-142342360D01*
X215944015Y-142293979D01*
X215702110Y-142293979D01*
X215556967Y-142342360D01*
X215169920Y-143261598D02*
X215024777Y-143309979D01*
X214782872Y-143309979D01*
X214686110Y-143261598D01*
X214637729Y-143213217D01*
X214589348Y-143116455D01*
X214589348Y-143019693D01*
X214637729Y-142922931D01*
X214686110Y-142874550D01*
X214782872Y-142826169D01*
X214976396Y-142777788D01*
X215073158Y-142729407D01*
X215121539Y-142681026D01*
X215169920Y-142584264D01*
X215169920Y-142487502D01*
X215121539Y-142390740D01*
X215073158Y-142342360D01*
X214976396Y-142293979D01*
X214734491Y-142293979D01*
X214589348Y-142342360D01*
X213186300Y-142826169D02*
X213186300Y-143309979D01*
X213524967Y-142293979D02*
X213186300Y-142826169D01*
X212847634Y-142293979D01*
X212315443Y-142293979D02*
X212121920Y-142293979D01*
X212025158Y-142342360D01*
X211928396Y-142439121D01*
X211880015Y-142632645D01*
X211880015Y-142971312D01*
X211928396Y-143164836D01*
X212025158Y-143261598D01*
X212121920Y-143309979D01*
X212315443Y-143309979D01*
X212412205Y-143261598D01*
X212508967Y-143164836D01*
X212557348Y-142971312D01*
X212557348Y-142632645D01*
X212508967Y-142439121D01*
X212412205Y-142342360D01*
X212315443Y-142293979D01*
X211444586Y-142293979D02*
X211444586Y-143116455D01*
X211396205Y-143213217D01*
X211347824Y-143261598D01*
X211251062Y-143309979D01*
X211057539Y-143309979D01*
X210960777Y-143261598D01*
X210912396Y-143213217D01*
X210864015Y-143116455D01*
X210864015Y-142293979D01*
X210331824Y-143261598D02*
X210331824Y-143309979D01*
X210380205Y-143406740D01*
X210428586Y-143455121D01*
X208541729Y-143309979D02*
X208880396Y-142826169D01*
X209122300Y-143309979D02*
X209122300Y-142293979D01*
X208735253Y-142293979D01*
X208638491Y-142342360D01*
X208590110Y-142390740D01*
X208541729Y-142487502D01*
X208541729Y-142632645D01*
X208590110Y-142729407D01*
X208638491Y-142777788D01*
X208735253Y-142826169D01*
X209122300Y-142826169D01*
X208106300Y-143309979D02*
X208106300Y-142293979D01*
X207622491Y-143309979D02*
X207622491Y-142293979D01*
X207235443Y-142293979D01*
X207138681Y-142342360D01*
X207090300Y-142390740D01*
X207041920Y-142487502D01*
X207041920Y-142632645D01*
X207090300Y-142729407D01*
X207138681Y-142777788D01*
X207235443Y-142826169D01*
X207622491Y-142826169D01*
X206606491Y-143213217D02*
X206558110Y-143261598D01*
X206606491Y-143309979D01*
X206654872Y-143261598D01*
X206606491Y-143213217D01*
X206606491Y-143309979D01*
X206606491Y-142922931D02*
X206654872Y-142342360D01*
X206606491Y-142293979D01*
X206558110Y-142342360D01*
X206606491Y-142922931D01*
X206606491Y-142293979D01*
X240328015Y-146581499D02*
X240328015Y-145565499D01*
X239940967Y-145565499D01*
X239844205Y-145613880D01*
X239795824Y-145662260D01*
X239747443Y-145759022D01*
X239747443Y-145904165D01*
X239795824Y-146000927D01*
X239844205Y-146049308D01*
X239940967Y-146097689D01*
X240328015Y-146097689D01*
X239312015Y-146581499D02*
X239312015Y-145904165D01*
X239312015Y-146097689D02*
X239263634Y-146000927D01*
X239215253Y-145952546D01*
X239118491Y-145904165D01*
X239021729Y-145904165D01*
X238537920Y-146581499D02*
X238634681Y-146533118D01*
X238683062Y-146484737D01*
X238731443Y-146387975D01*
X238731443Y-146097689D01*
X238683062Y-146000927D01*
X238634681Y-145952546D01*
X238537920Y-145904165D01*
X238392777Y-145904165D01*
X238296015Y-145952546D01*
X238247634Y-146000927D01*
X238199253Y-146097689D01*
X238199253Y-146387975D01*
X238247634Y-146484737D01*
X238296015Y-146533118D01*
X238392777Y-146581499D01*
X238537920Y-146581499D01*
X237908967Y-145904165D02*
X237521920Y-145904165D01*
X237763824Y-146581499D02*
X237763824Y-145710641D01*
X237715443Y-145613880D01*
X237618681Y-145565499D01*
X237521920Y-145565499D01*
X236796205Y-146533118D02*
X236892967Y-146581499D01*
X237086491Y-146581499D01*
X237183253Y-146533118D01*
X237231634Y-146436356D01*
X237231634Y-146049308D01*
X237183253Y-145952546D01*
X237086491Y-145904165D01*
X236892967Y-145904165D01*
X236796205Y-145952546D01*
X236747824Y-146049308D01*
X236747824Y-146146070D01*
X237231634Y-146242832D01*
X236360777Y-146533118D02*
X236264015Y-146581499D01*
X236070491Y-146581499D01*
X235973729Y-146533118D01*
X235925348Y-146436356D01*
X235925348Y-146387975D01*
X235973729Y-146291213D01*
X236070491Y-146242832D01*
X236215634Y-146242832D01*
X236312396Y-146194451D01*
X236360777Y-146097689D01*
X236360777Y-146049308D01*
X236312396Y-145952546D01*
X236215634Y-145904165D01*
X236070491Y-145904165D01*
X235973729Y-145952546D01*
X235538300Y-146533118D02*
X235441539Y-146581499D01*
X235248015Y-146581499D01*
X235151253Y-146533118D01*
X235102872Y-146436356D01*
X235102872Y-146387975D01*
X235151253Y-146291213D01*
X235248015Y-146242832D01*
X235393158Y-146242832D01*
X235489920Y-146194451D01*
X235538300Y-146097689D01*
X235538300Y-146049308D01*
X235489920Y-145952546D01*
X235393158Y-145904165D01*
X235248015Y-145904165D01*
X235151253Y-145952546D01*
X234522300Y-146581499D02*
X234619062Y-146533118D01*
X234667443Y-146484737D01*
X234715824Y-146387975D01*
X234715824Y-146097689D01*
X234667443Y-146000927D01*
X234619062Y-145952546D01*
X234522300Y-145904165D01*
X234377158Y-145904165D01*
X234280396Y-145952546D01*
X234232015Y-146000927D01*
X234183634Y-146097689D01*
X234183634Y-146387975D01*
X234232015Y-146484737D01*
X234280396Y-146533118D01*
X234377158Y-146581499D01*
X234522300Y-146581499D01*
X233748205Y-146581499D02*
X233748205Y-145904165D01*
X233748205Y-146097689D02*
X233699824Y-146000927D01*
X233651443Y-145952546D01*
X233554681Y-145904165D01*
X233457920Y-145904165D01*
X232345158Y-146581499D02*
X232345158Y-145565499D01*
X231764586Y-146581499D01*
X231764586Y-145565499D01*
X231280777Y-146581499D02*
X231280777Y-145904165D01*
X231280777Y-145565499D02*
X231329158Y-145613880D01*
X231280777Y-145662260D01*
X231232396Y-145613880D01*
X231280777Y-145565499D01*
X231280777Y-145662260D01*
X230796967Y-145904165D02*
X230796967Y-146581499D01*
X230796967Y-146000927D02*
X230748586Y-145952546D01*
X230651824Y-145904165D01*
X230506681Y-145904165D01*
X230409920Y-145952546D01*
X230361539Y-146049308D01*
X230361539Y-146581499D01*
X229442300Y-146581499D02*
X229442300Y-146049308D01*
X229490681Y-145952546D01*
X229587443Y-145904165D01*
X229780967Y-145904165D01*
X229877729Y-145952546D01*
X229442300Y-146533118D02*
X229539062Y-146581499D01*
X229780967Y-146581499D01*
X229877729Y-146533118D01*
X229926110Y-146436356D01*
X229926110Y-146339594D01*
X229877729Y-146242832D01*
X229780967Y-146194451D01*
X229539062Y-146194451D01*
X229442300Y-146146070D01*
X227894110Y-145565499D02*
X227894110Y-146291213D01*
X227942491Y-146436356D01*
X228039253Y-146533118D01*
X228184396Y-146581499D01*
X228281158Y-146581499D01*
X226974872Y-146581499D02*
X226974872Y-146049308D01*
X227023253Y-145952546D01*
X227120015Y-145904165D01*
X227313539Y-145904165D01*
X227410300Y-145952546D01*
X226974872Y-146533118D02*
X227071634Y-146581499D01*
X227313539Y-146581499D01*
X227410300Y-146533118D01*
X227458681Y-146436356D01*
X227458681Y-146339594D01*
X227410300Y-146242832D01*
X227313539Y-146194451D01*
X227071634Y-146194451D01*
X226974872Y-146146070D01*
X226055634Y-145904165D02*
X226055634Y-146726641D01*
X226104015Y-146823403D01*
X226152396Y-146871784D01*
X226249158Y-146920165D01*
X226394300Y-146920165D01*
X226491062Y-146871784D01*
X226055634Y-146533118D02*
X226152396Y-146581499D01*
X226345920Y-146581499D01*
X226442681Y-146533118D01*
X226491062Y-146484737D01*
X226539443Y-146387975D01*
X226539443Y-146097689D01*
X226491062Y-146000927D01*
X226442681Y-145952546D01*
X226345920Y-145904165D01*
X226152396Y-145904165D01*
X226055634Y-145952546D01*
X225136396Y-146581499D02*
X225136396Y-146049308D01*
X225184777Y-145952546D01*
X225281539Y-145904165D01*
X225475062Y-145904165D01*
X225571824Y-145952546D01*
X225136396Y-146533118D02*
X225233158Y-146581499D01*
X225475062Y-146581499D01*
X225571824Y-146533118D01*
X225620205Y-146436356D01*
X225620205Y-146339594D01*
X225571824Y-146242832D01*
X225475062Y-146194451D01*
X225233158Y-146194451D01*
X225136396Y-146146070D01*
X224652586Y-146581499D02*
X224652586Y-145904165D01*
X224652586Y-146097689D02*
X224604205Y-146000927D01*
X224555824Y-145952546D01*
X224459062Y-145904165D01*
X224362300Y-145904165D01*
X224023634Y-146581499D02*
X224023634Y-145904165D01*
X224023634Y-145565499D02*
X224072015Y-145613880D01*
X224023634Y-145662260D01*
X223975253Y-145613880D01*
X224023634Y-145565499D01*
X224023634Y-145662260D01*
X223104396Y-146533118D02*
X223201158Y-146581499D01*
X223394681Y-146581499D01*
X223491443Y-146533118D01*
X223539824Y-146484737D01*
X223588205Y-146387975D01*
X223588205Y-146097689D01*
X223539824Y-146000927D01*
X223491443Y-145952546D01*
X223394681Y-145904165D01*
X223201158Y-145904165D01*
X223104396Y-145952546D01*
X221604586Y-146968546D02*
X221652967Y-146920165D01*
X221749729Y-146775022D01*
X221798110Y-146678260D01*
X221846491Y-146533118D01*
X221894872Y-146291213D01*
X221894872Y-146097689D01*
X221846491Y-145855784D01*
X221798110Y-145710641D01*
X221749729Y-145613880D01*
X221652967Y-145468737D01*
X221604586Y-145420356D01*
X220636967Y-146581499D02*
X220975634Y-146097689D01*
X221217539Y-146581499D02*
X221217539Y-145565499D01*
X220830491Y-145565499D01*
X220733729Y-145613880D01*
X220685348Y-145662260D01*
X220636967Y-145759022D01*
X220636967Y-145904165D01*
X220685348Y-146000927D01*
X220733729Y-146049308D01*
X220830491Y-146097689D01*
X221217539Y-146097689D01*
X219862872Y-146049308D02*
X220201539Y-146049308D01*
X220201539Y-146581499D02*
X220201539Y-145565499D01*
X219717729Y-145565499D01*
X217976015Y-146484737D02*
X218024396Y-146533118D01*
X218169539Y-146581499D01*
X218266300Y-146581499D01*
X218411443Y-146533118D01*
X218508205Y-146436356D01*
X218556586Y-146339594D01*
X218604967Y-146146070D01*
X218604967Y-146000927D01*
X218556586Y-145807403D01*
X218508205Y-145710641D01*
X218411443Y-145613880D01*
X218266300Y-145565499D01*
X218169539Y-145565499D01*
X218024396Y-145613880D01*
X217976015Y-145662260D01*
X217395443Y-146581499D02*
X217492205Y-146533118D01*
X217540586Y-146436356D01*
X217540586Y-145565499D01*
X216572967Y-146581499D02*
X216572967Y-146049308D01*
X216621348Y-145952546D01*
X216718110Y-145904165D01*
X216911634Y-145904165D01*
X217008396Y-145952546D01*
X216572967Y-146533118D02*
X216669729Y-146581499D01*
X216911634Y-146581499D01*
X217008396Y-146533118D01*
X217056777Y-146436356D01*
X217056777Y-146339594D01*
X217008396Y-146242832D01*
X216911634Y-146194451D01*
X216669729Y-146194451D01*
X216572967Y-146146070D01*
X216137539Y-146533118D02*
X216040777Y-146581499D01*
X215847253Y-146581499D01*
X215750491Y-146533118D01*
X215702110Y-146436356D01*
X215702110Y-146387975D01*
X215750491Y-146291213D01*
X215847253Y-146242832D01*
X215992396Y-146242832D01*
X216089158Y-146194451D01*
X216137539Y-146097689D01*
X216137539Y-146049308D01*
X216089158Y-145952546D01*
X215992396Y-145904165D01*
X215847253Y-145904165D01*
X215750491Y-145952546D01*
X215315062Y-146533118D02*
X215218300Y-146581499D01*
X215024777Y-146581499D01*
X214928015Y-146533118D01*
X214879634Y-146436356D01*
X214879634Y-146387975D01*
X214928015Y-146291213D01*
X215024777Y-146242832D01*
X215169920Y-146242832D01*
X215266681Y-146194451D01*
X215315062Y-146097689D01*
X215315062Y-146049308D01*
X215266681Y-145952546D01*
X215169920Y-145904165D01*
X215024777Y-145904165D01*
X214928015Y-145952546D01*
X214540967Y-146968546D02*
X214492586Y-146920165D01*
X214395824Y-146775022D01*
X214347443Y-146678260D01*
X214299062Y-146533118D01*
X214250681Y-146291213D01*
X214250681Y-146097689D01*
X214299062Y-145855784D01*
X214347443Y-145710641D01*
X214395824Y-145613880D01*
X214492586Y-145468737D01*
X214540967Y-145420356D01*
X240328015Y-148217259D02*
X240328015Y-147201259D01*
X239940967Y-147201259D01*
X239844205Y-147249640D01*
X239795824Y-147298020D01*
X239747443Y-147394782D01*
X239747443Y-147539925D01*
X239795824Y-147636687D01*
X239844205Y-147685068D01*
X239940967Y-147733449D01*
X240328015Y-147733449D01*
X239312015Y-148217259D02*
X239312015Y-147539925D01*
X239312015Y-147733449D02*
X239263634Y-147636687D01*
X239215253Y-147588306D01*
X239118491Y-147539925D01*
X239021729Y-147539925D01*
X238537920Y-148217259D02*
X238634681Y-148168878D01*
X238683062Y-148120497D01*
X238731443Y-148023735D01*
X238731443Y-147733449D01*
X238683062Y-147636687D01*
X238634681Y-147588306D01*
X238537920Y-147539925D01*
X238392777Y-147539925D01*
X238296015Y-147588306D01*
X238247634Y-147636687D01*
X238199253Y-147733449D01*
X238199253Y-148023735D01*
X238247634Y-148120497D01*
X238296015Y-148168878D01*
X238392777Y-148217259D01*
X238537920Y-148217259D01*
X237908967Y-147539925D02*
X237521920Y-147539925D01*
X237763824Y-148217259D02*
X237763824Y-147346401D01*
X237715443Y-147249640D01*
X237618681Y-147201259D01*
X237521920Y-147201259D01*
X236796205Y-148168878D02*
X236892967Y-148217259D01*
X237086491Y-148217259D01*
X237183253Y-148168878D01*
X237231634Y-148072116D01*
X237231634Y-147685068D01*
X237183253Y-147588306D01*
X237086491Y-147539925D01*
X236892967Y-147539925D01*
X236796205Y-147588306D01*
X236747824Y-147685068D01*
X236747824Y-147781830D01*
X237231634Y-147878592D01*
X236360777Y-148168878D02*
X236264015Y-148217259D01*
X236070491Y-148217259D01*
X235973729Y-148168878D01*
X235925348Y-148072116D01*
X235925348Y-148023735D01*
X235973729Y-147926973D01*
X236070491Y-147878592D01*
X236215634Y-147878592D01*
X236312396Y-147830211D01*
X236360777Y-147733449D01*
X236360777Y-147685068D01*
X236312396Y-147588306D01*
X236215634Y-147539925D01*
X236070491Y-147539925D01*
X235973729Y-147588306D01*
X235538300Y-148168878D02*
X235441539Y-148217259D01*
X235248015Y-148217259D01*
X235151253Y-148168878D01*
X235102872Y-148072116D01*
X235102872Y-148023735D01*
X235151253Y-147926973D01*
X235248015Y-147878592D01*
X235393158Y-147878592D01*
X235489920Y-147830211D01*
X235538300Y-147733449D01*
X235538300Y-147685068D01*
X235489920Y-147588306D01*
X235393158Y-147539925D01*
X235248015Y-147539925D01*
X235151253Y-147588306D01*
X234522300Y-148217259D02*
X234619062Y-148168878D01*
X234667443Y-148120497D01*
X234715824Y-148023735D01*
X234715824Y-147733449D01*
X234667443Y-147636687D01*
X234619062Y-147588306D01*
X234522300Y-147539925D01*
X234377158Y-147539925D01*
X234280396Y-147588306D01*
X234232015Y-147636687D01*
X234183634Y-147733449D01*
X234183634Y-148023735D01*
X234232015Y-148120497D01*
X234280396Y-148168878D01*
X234377158Y-148217259D01*
X234522300Y-148217259D01*
X233748205Y-148217259D02*
X233748205Y-147539925D01*
X233748205Y-147733449D02*
X233699824Y-147636687D01*
X233651443Y-147588306D01*
X233554681Y-147539925D01*
X233457920Y-147539925D01*
X232345158Y-148217259D02*
X232345158Y-147201259D01*
X231764586Y-148217259D02*
X232200015Y-147636687D01*
X231764586Y-147201259D02*
X232345158Y-147781830D01*
X230893729Y-148217259D02*
X230893729Y-147685068D01*
X230942110Y-147588306D01*
X231038872Y-147539925D01*
X231232396Y-147539925D01*
X231329158Y-147588306D01*
X230893729Y-148168878D02*
X230990491Y-148217259D01*
X231232396Y-148217259D01*
X231329158Y-148168878D01*
X231377539Y-148072116D01*
X231377539Y-147975354D01*
X231329158Y-147878592D01*
X231232396Y-147830211D01*
X230990491Y-147830211D01*
X230893729Y-147781830D01*
X230409920Y-148217259D02*
X230409920Y-147539925D01*
X230409920Y-147636687D02*
X230361539Y-147588306D01*
X230264777Y-147539925D01*
X230119634Y-147539925D01*
X230022872Y-147588306D01*
X229974491Y-147685068D01*
X229974491Y-148217259D01*
X229974491Y-147685068D02*
X229926110Y-147588306D01*
X229829348Y-147539925D01*
X229684205Y-147539925D01*
X229587443Y-147588306D01*
X229539062Y-147685068D01*
X229539062Y-148217259D01*
X228281158Y-148217259D02*
X228281158Y-147201259D01*
X227894110Y-147201259D01*
X227797348Y-147249640D01*
X227748967Y-147298020D01*
X227700586Y-147394782D01*
X227700586Y-147539925D01*
X227748967Y-147636687D01*
X227797348Y-147685068D01*
X227894110Y-147733449D01*
X228281158Y-147733449D01*
X226829729Y-147539925D02*
X226829729Y-148217259D01*
X227265158Y-147539925D02*
X227265158Y-148072116D01*
X227216777Y-148168878D01*
X227120015Y-148217259D01*
X226974872Y-148217259D01*
X226878110Y-148168878D01*
X226829729Y-148120497D01*
X226345920Y-148217259D02*
X226345920Y-147539925D01*
X226345920Y-147201259D02*
X226394300Y-147249640D01*
X226345920Y-147298020D01*
X226297539Y-147249640D01*
X226345920Y-147201259D01*
X226345920Y-147298020D01*
X225233158Y-147201259D02*
X224652586Y-147201259D01*
X224942872Y-148217259D02*
X224942872Y-147201259D01*
X223878491Y-148217259D02*
X223878491Y-147685068D01*
X223926872Y-147588306D01*
X224023634Y-147539925D01*
X224217158Y-147539925D01*
X224313920Y-147588306D01*
X223878491Y-148168878D02*
X223975253Y-148217259D01*
X224217158Y-148217259D01*
X224313920Y-148168878D01*
X224362300Y-148072116D01*
X224362300Y-147975354D01*
X224313920Y-147878592D01*
X224217158Y-147830211D01*
X223975253Y-147830211D01*
X223878491Y-147781830D01*
X223394681Y-147539925D02*
X223394681Y-148217259D01*
X223394681Y-147636687D02*
X223346300Y-147588306D01*
X223249539Y-147539925D01*
X223104396Y-147539925D01*
X223007634Y-147588306D01*
X222959253Y-147685068D01*
X222959253Y-148217259D01*
X222040015Y-147539925D02*
X222040015Y-148362401D01*
X222088396Y-148459163D01*
X222136777Y-148507544D01*
X222233539Y-148555925D01*
X222378681Y-148555925D01*
X222475443Y-148507544D01*
X222040015Y-148168878D02*
X222136777Y-148217259D01*
X222330300Y-148217259D01*
X222427062Y-148168878D01*
X222475443Y-148120497D01*
X222523824Y-148023735D01*
X222523824Y-147733449D01*
X222475443Y-147636687D01*
X222427062Y-147588306D01*
X222330300Y-147539925D01*
X222136777Y-147539925D01*
X222040015Y-147588306D01*
X220491824Y-148604306D02*
X220540205Y-148555925D01*
X220636967Y-148410782D01*
X220685348Y-148314020D01*
X220733729Y-148168878D01*
X220782110Y-147926973D01*
X220782110Y-147733449D01*
X220733729Y-147491544D01*
X220685348Y-147346401D01*
X220636967Y-147249640D01*
X220540205Y-147104497D01*
X220491824Y-147056116D01*
X220104777Y-148217259D02*
X220104777Y-147201259D01*
X219766110Y-147926973D01*
X219427443Y-147201259D01*
X219427443Y-148217259D01*
X218363062Y-148120497D02*
X218411443Y-148168878D01*
X218556586Y-148217259D01*
X218653348Y-148217259D01*
X218798491Y-148168878D01*
X218895253Y-148072116D01*
X218943634Y-147975354D01*
X218992015Y-147781830D01*
X218992015Y-147636687D01*
X218943634Y-147443163D01*
X218895253Y-147346401D01*
X218798491Y-147249640D01*
X218653348Y-147201259D01*
X218556586Y-147201259D01*
X218411443Y-147249640D01*
X218363062Y-147298020D01*
X217927634Y-147201259D02*
X217927634Y-148023735D01*
X217879253Y-148120497D01*
X217830872Y-148168878D01*
X217734110Y-148217259D01*
X217540586Y-148217259D01*
X217443824Y-148168878D01*
X217395443Y-148120497D01*
X217347062Y-148023735D01*
X217347062Y-147201259D01*
X215508586Y-148120497D02*
X215556967Y-148168878D01*
X215702110Y-148217259D01*
X215798872Y-148217259D01*
X215944015Y-148168878D01*
X216040777Y-148072116D01*
X216089158Y-147975354D01*
X216137539Y-147781830D01*
X216137539Y-147636687D01*
X216089158Y-147443163D01*
X216040777Y-147346401D01*
X215944015Y-147249640D01*
X215798872Y-147201259D01*
X215702110Y-147201259D01*
X215556967Y-147249640D01*
X215508586Y-147298020D01*
X214928015Y-148217259D02*
X215024777Y-148168878D01*
X215073158Y-148072116D01*
X215073158Y-147201259D01*
X214105539Y-148217259D02*
X214105539Y-147685068D01*
X214153920Y-147588306D01*
X214250681Y-147539925D01*
X214444205Y-147539925D01*
X214540967Y-147588306D01*
X214105539Y-148168878D02*
X214202300Y-148217259D01*
X214444205Y-148217259D01*
X214540967Y-148168878D01*
X214589348Y-148072116D01*
X214589348Y-147975354D01*
X214540967Y-147878592D01*
X214444205Y-147830211D01*
X214202300Y-147830211D01*
X214105539Y-147781830D01*
X213670110Y-148168878D02*
X213573348Y-148217259D01*
X213379824Y-148217259D01*
X213283062Y-148168878D01*
X213234681Y-148072116D01*
X213234681Y-148023735D01*
X213283062Y-147926973D01*
X213379824Y-147878592D01*
X213524967Y-147878592D01*
X213621729Y-147830211D01*
X213670110Y-147733449D01*
X213670110Y-147685068D01*
X213621729Y-147588306D01*
X213524967Y-147539925D01*
X213379824Y-147539925D01*
X213283062Y-147588306D01*
X212847634Y-148168878D02*
X212750872Y-148217259D01*
X212557348Y-148217259D01*
X212460586Y-148168878D01*
X212412205Y-148072116D01*
X212412205Y-148023735D01*
X212460586Y-147926973D01*
X212557348Y-147878592D01*
X212702491Y-147878592D01*
X212799253Y-147830211D01*
X212847634Y-147733449D01*
X212847634Y-147685068D01*
X212799253Y-147588306D01*
X212702491Y-147539925D01*
X212557348Y-147539925D01*
X212460586Y-147588306D01*
X212073539Y-148604306D02*
X212025158Y-148555925D01*
X211928396Y-148410782D01*
X211880015Y-148314020D01*
X211831634Y-148168878D01*
X211783253Y-147926973D01*
X211783253Y-147733449D01*
X211831634Y-147491544D01*
X211880015Y-147346401D01*
X211928396Y-147249640D01*
X212025158Y-147104497D01*
X212073539Y-147056116D01*
X239989348Y-149320828D02*
X240328015Y-149320828D01*
X240328015Y-149853019D02*
X240328015Y-148837019D01*
X239844205Y-148837019D01*
X239021729Y-149853019D02*
X239021729Y-149320828D01*
X239070110Y-149224066D01*
X239166872Y-149175685D01*
X239360396Y-149175685D01*
X239457158Y-149224066D01*
X239021729Y-149804638D02*
X239118491Y-149853019D01*
X239360396Y-149853019D01*
X239457158Y-149804638D01*
X239505539Y-149707876D01*
X239505539Y-149611114D01*
X239457158Y-149514352D01*
X239360396Y-149465971D01*
X239118491Y-149465971D01*
X239021729Y-149417590D01*
X238392777Y-149853019D02*
X238489539Y-149804638D01*
X238537920Y-149707876D01*
X238537920Y-148837019D01*
X237860586Y-149853019D02*
X237957348Y-149804638D01*
X238005729Y-149707876D01*
X238005729Y-148837019D01*
X236747824Y-148933780D02*
X236699443Y-148885400D01*
X236602681Y-148837019D01*
X236360777Y-148837019D01*
X236264015Y-148885400D01*
X236215634Y-148933780D01*
X236167253Y-149030542D01*
X236167253Y-149127304D01*
X236215634Y-149272447D01*
X236796205Y-149853019D01*
X236167253Y-149853019D01*
X235538300Y-148837019D02*
X235441539Y-148837019D01*
X235344777Y-148885400D01*
X235296396Y-148933780D01*
X235248015Y-149030542D01*
X235199634Y-149224066D01*
X235199634Y-149465971D01*
X235248015Y-149659495D01*
X235296396Y-149756257D01*
X235344777Y-149804638D01*
X235441539Y-149853019D01*
X235538300Y-149853019D01*
X235635062Y-149804638D01*
X235683443Y-149756257D01*
X235731824Y-149659495D01*
X235780205Y-149465971D01*
X235780205Y-149224066D01*
X235731824Y-149030542D01*
X235683443Y-148933780D01*
X235635062Y-148885400D01*
X235538300Y-148837019D01*
X234812586Y-148933780D02*
X234764205Y-148885400D01*
X234667443Y-148837019D01*
X234425539Y-148837019D01*
X234328777Y-148885400D01*
X234280396Y-148933780D01*
X234232015Y-149030542D01*
X234232015Y-149127304D01*
X234280396Y-149272447D01*
X234860967Y-149853019D01*
X234232015Y-149853019D01*
X233844967Y-148933780D02*
X233796586Y-148885400D01*
X233699824Y-148837019D01*
X233457920Y-148837019D01*
X233361158Y-148885400D01*
X233312777Y-148933780D01*
X233264396Y-149030542D01*
X233264396Y-149127304D01*
X233312777Y-149272447D01*
X233893348Y-149853019D01*
X233264396Y-149853019D01*
X232780586Y-149804638D02*
X232780586Y-149853019D01*
X232828967Y-149949780D01*
X232877348Y-149998161D01*
X230990491Y-149756257D02*
X231038872Y-149804638D01*
X231184015Y-149853019D01*
X231280777Y-149853019D01*
X231425920Y-149804638D01*
X231522681Y-149707876D01*
X231571062Y-149611114D01*
X231619443Y-149417590D01*
X231619443Y-149272447D01*
X231571062Y-149078923D01*
X231522681Y-148982161D01*
X231425920Y-148885400D01*
X231280777Y-148837019D01*
X231184015Y-148837019D01*
X231038872Y-148885400D01*
X230990491Y-148933780D01*
X230168015Y-149804638D02*
X230264777Y-149853019D01*
X230458300Y-149853019D01*
X230555062Y-149804638D01*
X230603443Y-149707876D01*
X230603443Y-149320828D01*
X230555062Y-149224066D01*
X230458300Y-149175685D01*
X230264777Y-149175685D01*
X230168015Y-149224066D01*
X230119634Y-149320828D01*
X230119634Y-149417590D01*
X230603443Y-149514352D01*
X229684205Y-149175685D02*
X229684205Y-149853019D01*
X229684205Y-149272447D02*
X229635824Y-149224066D01*
X229539062Y-149175685D01*
X229393920Y-149175685D01*
X229297158Y-149224066D01*
X229248777Y-149320828D01*
X229248777Y-149853019D01*
X228910110Y-149175685D02*
X228523062Y-149175685D01*
X228764967Y-148837019D02*
X228764967Y-149707876D01*
X228716586Y-149804638D01*
X228619824Y-149853019D01*
X228523062Y-149853019D01*
X227797348Y-149804638D02*
X227894110Y-149853019D01*
X228087634Y-149853019D01*
X228184396Y-149804638D01*
X228232777Y-149707876D01*
X228232777Y-149320828D01*
X228184396Y-149224066D01*
X228087634Y-149175685D01*
X227894110Y-149175685D01*
X227797348Y-149224066D01*
X227748967Y-149320828D01*
X227748967Y-149417590D01*
X228232777Y-149514352D01*
X227313539Y-149175685D02*
X227313539Y-149853019D01*
X227313539Y-149272447D02*
X227265158Y-149224066D01*
X227168396Y-149175685D01*
X227023253Y-149175685D01*
X226926491Y-149224066D01*
X226878110Y-149320828D01*
X226878110Y-149853019D01*
X226394300Y-149175685D02*
X226394300Y-149853019D01*
X226394300Y-149272447D02*
X226345920Y-149224066D01*
X226249158Y-149175685D01*
X226104015Y-149175685D01*
X226007253Y-149224066D01*
X225958872Y-149320828D01*
X225958872Y-149853019D01*
X225475062Y-149853019D02*
X225475062Y-149175685D01*
X225475062Y-148837019D02*
X225523443Y-148885400D01*
X225475062Y-148933780D01*
X225426681Y-148885400D01*
X225475062Y-148837019D01*
X225475062Y-148933780D01*
X224555824Y-149853019D02*
X224555824Y-149320828D01*
X224604205Y-149224066D01*
X224700967Y-149175685D01*
X224894491Y-149175685D01*
X224991253Y-149224066D01*
X224555824Y-149804638D02*
X224652586Y-149853019D01*
X224894491Y-149853019D01*
X224991253Y-149804638D01*
X225039634Y-149707876D01*
X225039634Y-149611114D01*
X224991253Y-149514352D01*
X224894491Y-149465971D01*
X224652586Y-149465971D01*
X224555824Y-149417590D01*
X223926872Y-149853019D02*
X224023634Y-149804638D01*
X224072015Y-149707876D01*
X224072015Y-148837019D01*
X222185158Y-149756257D02*
X222233539Y-149804638D01*
X222378681Y-149853019D01*
X222475443Y-149853019D01*
X222620586Y-149804638D01*
X222717348Y-149707876D01*
X222765729Y-149611114D01*
X222814110Y-149417590D01*
X222814110Y-149272447D01*
X222765729Y-149078923D01*
X222717348Y-148982161D01*
X222620586Y-148885400D01*
X222475443Y-148837019D01*
X222378681Y-148837019D01*
X222233539Y-148885400D01*
X222185158Y-148933780D01*
X221604586Y-149853019D02*
X221701348Y-149804638D01*
X221749729Y-149756257D01*
X221798110Y-149659495D01*
X221798110Y-149369209D01*
X221749729Y-149272447D01*
X221701348Y-149224066D01*
X221604586Y-149175685D01*
X221459443Y-149175685D01*
X221362681Y-149224066D01*
X221314300Y-149272447D01*
X221265920Y-149369209D01*
X221265920Y-149659495D01*
X221314300Y-149756257D01*
X221362681Y-149804638D01*
X221459443Y-149853019D01*
X221604586Y-149853019D01*
X220685348Y-149853019D02*
X220782110Y-149804638D01*
X220830491Y-149707876D01*
X220830491Y-148837019D01*
X220153158Y-149853019D02*
X220249920Y-149804638D01*
X220298300Y-149707876D01*
X220298300Y-148837019D01*
X219379062Y-149804638D02*
X219475824Y-149853019D01*
X219669348Y-149853019D01*
X219766110Y-149804638D01*
X219814491Y-149707876D01*
X219814491Y-149320828D01*
X219766110Y-149224066D01*
X219669348Y-149175685D01*
X219475824Y-149175685D01*
X219379062Y-149224066D01*
X219330681Y-149320828D01*
X219330681Y-149417590D01*
X219814491Y-149514352D01*
X218459824Y-149175685D02*
X218459824Y-149998161D01*
X218508205Y-150094923D01*
X218556586Y-150143304D01*
X218653348Y-150191685D01*
X218798491Y-150191685D01*
X218895253Y-150143304D01*
X218459824Y-149804638D02*
X218556586Y-149853019D01*
X218750110Y-149853019D01*
X218846872Y-149804638D01*
X218895253Y-149756257D01*
X218943634Y-149659495D01*
X218943634Y-149369209D01*
X218895253Y-149272447D01*
X218846872Y-149224066D01*
X218750110Y-149175685D01*
X218556586Y-149175685D01*
X218459824Y-149224066D01*
X217588967Y-149804638D02*
X217685729Y-149853019D01*
X217879253Y-149853019D01*
X217976015Y-149804638D01*
X218024396Y-149707876D01*
X218024396Y-149320828D01*
X217976015Y-149224066D01*
X217879253Y-149175685D01*
X217685729Y-149175685D01*
X217588967Y-149224066D01*
X217540586Y-149320828D01*
X217540586Y-149417590D01*
X218024396Y-149514352D01*
D13*
X227240000Y-134352608D02*
X227240000Y-132828608D01*
X227240000Y-133554322D02*
X226369142Y-133554322D01*
X226369142Y-134352608D02*
X226369142Y-132828608D01*
X224990285Y-134352608D02*
X224990285Y-133554322D01*
X225062857Y-133409180D01*
X225208000Y-133336608D01*
X225498285Y-133336608D01*
X225643428Y-133409180D01*
X224990285Y-134280037D02*
X225135428Y-134352608D01*
X225498285Y-134352608D01*
X225643428Y-134280037D01*
X225716000Y-134134894D01*
X225716000Y-133989751D01*
X225643428Y-133844608D01*
X225498285Y-133772037D01*
X225135428Y-133772037D01*
X224990285Y-133699465D01*
X224264571Y-133336608D02*
X224264571Y-134352608D01*
X224264571Y-133481751D02*
X224192000Y-133409180D01*
X224046857Y-133336608D01*
X223829142Y-133336608D01*
X223684000Y-133409180D01*
X223611428Y-133554322D01*
X223611428Y-134352608D01*
X222232571Y-134352608D02*
X222232571Y-132828608D01*
X222232571Y-134280037D02*
X222377714Y-134352608D01*
X222668000Y-134352608D01*
X222813142Y-134280037D01*
X222885714Y-134207465D01*
X222958285Y-134062322D01*
X222958285Y-133626894D01*
X222885714Y-133481751D01*
X222813142Y-133409180D01*
X222668000Y-133336608D01*
X222377714Y-133336608D01*
X222232571Y-133409180D01*
X221652000Y-133336608D02*
X221289142Y-134352608D01*
X220926285Y-133336608D02*
X221289142Y-134352608D01*
X221434285Y-134715465D01*
X221506857Y-134788037D01*
X221652000Y-134860608D01*
X218313714Y-134352608D02*
X218821714Y-133626894D01*
X219184571Y-134352608D02*
X219184571Y-132828608D01*
X218604000Y-132828608D01*
X218458857Y-132901180D01*
X218386285Y-132973751D01*
X218313714Y-133118894D01*
X218313714Y-133336608D01*
X218386285Y-133481751D01*
X218458857Y-133554322D01*
X218604000Y-133626894D01*
X219184571Y-133626894D01*
X217007428Y-134352608D02*
X217007428Y-133554322D01*
X217080000Y-133409180D01*
X217225142Y-133336608D01*
X217515428Y-133336608D01*
X217660571Y-133409180D01*
X217007428Y-134280037D02*
X217152571Y-134352608D01*
X217515428Y-134352608D01*
X217660571Y-134280037D01*
X217733142Y-134134894D01*
X217733142Y-133989751D01*
X217660571Y-133844608D01*
X217515428Y-133772037D01*
X217152571Y-133772037D01*
X217007428Y-133699465D01*
X215628571Y-134352608D02*
X215628571Y-132828608D01*
X215628571Y-134280037D02*
X215773714Y-134352608D01*
X216064000Y-134352608D01*
X216209142Y-134280037D01*
X216281714Y-134207465D01*
X216354285Y-134062322D01*
X216354285Y-133626894D01*
X216281714Y-133481751D01*
X216209142Y-133409180D01*
X216064000Y-133336608D01*
X215773714Y-133336608D01*
X215628571Y-133409180D01*
X214902857Y-134352608D02*
X214902857Y-133336608D01*
X214902857Y-132828608D02*
X214975428Y-132901180D01*
X214902857Y-132973751D01*
X214830285Y-132901180D01*
X214902857Y-132828608D01*
X214902857Y-132973751D01*
X213959428Y-134352608D02*
X214104571Y-134280037D01*
X214177142Y-134207465D01*
X214249714Y-134062322D01*
X214249714Y-133626894D01*
X214177142Y-133481751D01*
X214104571Y-133409180D01*
X213959428Y-133336608D01*
X213741714Y-133336608D01*
X213596571Y-133409180D01*
X213524000Y-133481751D01*
X213451428Y-133626894D01*
X213451428Y-134062322D01*
X213524000Y-134207465D01*
X213596571Y-134280037D01*
X213741714Y-134352608D01*
X213959428Y-134352608D01*
X242117142Y-136733677D02*
X241899428Y-136806248D01*
X241536571Y-136806248D01*
X241391428Y-136733677D01*
X241318857Y-136661105D01*
X241246285Y-136515962D01*
X241246285Y-136370820D01*
X241318857Y-136225677D01*
X241391428Y-136153105D01*
X241536571Y-136080534D01*
X241826857Y-136007962D01*
X241972000Y-135935391D01*
X242044571Y-135862820D01*
X242117142Y-135717677D01*
X242117142Y-135572534D01*
X242044571Y-135427391D01*
X241972000Y-135354820D01*
X241826857Y-135282248D01*
X241464000Y-135282248D01*
X241246285Y-135354820D01*
X239940000Y-135790248D02*
X239940000Y-136806248D01*
X240593142Y-135790248D02*
X240593142Y-136588534D01*
X240520571Y-136733677D01*
X240375428Y-136806248D01*
X240157714Y-136806248D01*
X240012571Y-136733677D01*
X239940000Y-136661105D01*
X239214285Y-135790248D02*
X239214285Y-137314248D01*
X239214285Y-135862820D02*
X239069142Y-135790248D01*
X238778857Y-135790248D01*
X238633714Y-135862820D01*
X238561142Y-135935391D01*
X238488571Y-136080534D01*
X238488571Y-136515962D01*
X238561142Y-136661105D01*
X238633714Y-136733677D01*
X238778857Y-136806248D01*
X239069142Y-136806248D01*
X239214285Y-136733677D01*
X237835428Y-135790248D02*
X237835428Y-137314248D01*
X237835428Y-135862820D02*
X237690285Y-135790248D01*
X237400000Y-135790248D01*
X237254857Y-135862820D01*
X237182285Y-135935391D01*
X237109714Y-136080534D01*
X237109714Y-136515962D01*
X237182285Y-136661105D01*
X237254857Y-136733677D01*
X237400000Y-136806248D01*
X237690285Y-136806248D01*
X237835428Y-136733677D01*
X236238857Y-136806248D02*
X236384000Y-136733677D01*
X236456571Y-136661105D01*
X236529142Y-136515962D01*
X236529142Y-136080534D01*
X236456571Y-135935391D01*
X236384000Y-135862820D01*
X236238857Y-135790248D01*
X236021142Y-135790248D01*
X235876000Y-135862820D01*
X235803428Y-135935391D01*
X235730857Y-136080534D01*
X235730857Y-136515962D01*
X235803428Y-136661105D01*
X235876000Y-136733677D01*
X236021142Y-136806248D01*
X236238857Y-136806248D01*
X235077714Y-136806248D02*
X235077714Y-135790248D01*
X235077714Y-136080534D02*
X235005142Y-135935391D01*
X234932571Y-135862820D01*
X234787428Y-135790248D01*
X234642285Y-135790248D01*
X234352000Y-135790248D02*
X233771428Y-135790248D01*
X234134285Y-135282248D02*
X234134285Y-136588534D01*
X234061714Y-136733677D01*
X233916571Y-136806248D01*
X233771428Y-136806248D01*
X232682857Y-136733677D02*
X232828000Y-136806248D01*
X233118285Y-136806248D01*
X233263428Y-136733677D01*
X233336000Y-136588534D01*
X233336000Y-136007962D01*
X233263428Y-135862820D01*
X233118285Y-135790248D01*
X232828000Y-135790248D01*
X232682857Y-135862820D01*
X232610285Y-136007962D01*
X232610285Y-136153105D01*
X233336000Y-136298248D01*
X231304000Y-136806248D02*
X231304000Y-135282248D01*
X231304000Y-136733677D02*
X231449142Y-136806248D01*
X231739428Y-136806248D01*
X231884571Y-136733677D01*
X231957142Y-136661105D01*
X232029714Y-136515962D01*
X232029714Y-136080534D01*
X231957142Y-135935391D01*
X231884571Y-135862820D01*
X231739428Y-135790248D01*
X231449142Y-135790248D01*
X231304000Y-135862820D01*
X229417142Y-136806248D02*
X229417142Y-135282248D01*
X229417142Y-135862820D02*
X229272000Y-135790248D01*
X228981714Y-135790248D01*
X228836571Y-135862820D01*
X228764000Y-135935391D01*
X228691428Y-136080534D01*
X228691428Y-136515962D01*
X228764000Y-136661105D01*
X228836571Y-136733677D01*
X228981714Y-136806248D01*
X229272000Y-136806248D01*
X229417142Y-136733677D01*
X228038285Y-136806248D02*
X228038285Y-135790248D01*
X228038285Y-136080534D02*
X227965714Y-135935391D01*
X227893142Y-135862820D01*
X227748000Y-135790248D01*
X227602857Y-135790248D01*
X226877142Y-136806248D02*
X227022285Y-136733677D01*
X227094857Y-136661105D01*
X227167428Y-136515962D01*
X227167428Y-136080534D01*
X227094857Y-135935391D01*
X227022285Y-135862820D01*
X226877142Y-135790248D01*
X226659428Y-135790248D01*
X226514285Y-135862820D01*
X226441714Y-135935391D01*
X226369142Y-136080534D01*
X226369142Y-136515962D01*
X226441714Y-136661105D01*
X226514285Y-136733677D01*
X226659428Y-136806248D01*
X226877142Y-136806248D01*
X225062857Y-136806248D02*
X225062857Y-136007962D01*
X225135428Y-135862820D01*
X225280571Y-135790248D01*
X225570857Y-135790248D01*
X225716000Y-135862820D01*
X225062857Y-136733677D02*
X225208000Y-136806248D01*
X225570857Y-136806248D01*
X225716000Y-136733677D01*
X225788571Y-136588534D01*
X225788571Y-136443391D01*
X225716000Y-136298248D01*
X225570857Y-136225677D01*
X225208000Y-136225677D01*
X225062857Y-136153105D01*
X223684000Y-136806248D02*
X223684000Y-135282248D01*
X223684000Y-136733677D02*
X223829142Y-136806248D01*
X224119428Y-136806248D01*
X224264571Y-136733677D01*
X224337142Y-136661105D01*
X224409714Y-136515962D01*
X224409714Y-136080534D01*
X224337142Y-135935391D01*
X224264571Y-135862820D01*
X224119428Y-135790248D01*
X223829142Y-135790248D01*
X223684000Y-135862820D01*
X222958285Y-136806248D02*
X222958285Y-135282248D01*
X222958285Y-135862820D02*
X222813142Y-135790248D01*
X222522857Y-135790248D01*
X222377714Y-135862820D01*
X222305142Y-135935391D01*
X222232571Y-136080534D01*
X222232571Y-136515962D01*
X222305142Y-136661105D01*
X222377714Y-136733677D01*
X222522857Y-136806248D01*
X222813142Y-136806248D01*
X222958285Y-136733677D01*
X220926285Y-136806248D02*
X220926285Y-136007962D01*
X220998857Y-135862820D01*
X221144000Y-135790248D01*
X221434285Y-135790248D01*
X221579428Y-135862820D01*
X220926285Y-136733677D02*
X221071428Y-136806248D01*
X221434285Y-136806248D01*
X221579428Y-136733677D01*
X221652000Y-136588534D01*
X221652000Y-136443391D01*
X221579428Y-136298248D01*
X221434285Y-136225677D01*
X221071428Y-136225677D01*
X220926285Y-136153105D01*
X220200571Y-135790248D02*
X220200571Y-136806248D01*
X220200571Y-135935391D02*
X220128000Y-135862820D01*
X219982857Y-135790248D01*
X219765142Y-135790248D01*
X219620000Y-135862820D01*
X219547428Y-136007962D01*
X219547428Y-136806248D01*
X218168571Y-136806248D02*
X218168571Y-135282248D01*
X218168571Y-136733677D02*
X218313714Y-136806248D01*
X218604000Y-136806248D01*
X218749142Y-136733677D01*
X218821714Y-136661105D01*
X218894285Y-136515962D01*
X218894285Y-136080534D01*
X218821714Y-135935391D01*
X218749142Y-135862820D01*
X218604000Y-135790248D01*
X218313714Y-135790248D01*
X218168571Y-135862820D01*
X217515428Y-136733677D02*
X217370285Y-136806248D01*
X217080000Y-136806248D01*
X216934857Y-136733677D01*
X216862285Y-136588534D01*
X216862285Y-136515962D01*
X216934857Y-136370820D01*
X217080000Y-136298248D01*
X217297714Y-136298248D01*
X217442857Y-136225677D01*
X217515428Y-136080534D01*
X217515428Y-136007962D01*
X217442857Y-135862820D01*
X217297714Y-135790248D01*
X217080000Y-135790248D01*
X216934857Y-135862820D01*
X215120571Y-136370820D02*
X214394857Y-136370820D01*
X215265714Y-136806248D02*
X214757714Y-135282248D01*
X214249714Y-136806248D01*
X213741714Y-136806248D02*
X213741714Y-135282248D01*
X213233714Y-136370820D01*
X212725714Y-135282248D01*
X212725714Y-136806248D01*
X210911428Y-135209677D02*
X212217714Y-137169105D01*
X209895428Y-136007962D02*
X210403428Y-136007962D01*
X210403428Y-136806248D02*
X210403428Y-135282248D01*
X209677714Y-135282248D01*
X209097142Y-136806248D02*
X209097142Y-135282248D01*
X208589142Y-136370820D01*
X208081142Y-135282248D01*
X208081142Y-136806248D01*
X206266857Y-135209677D02*
X207573142Y-137169105D01*
X205831428Y-136733677D02*
X205613714Y-136806248D01*
X205250857Y-136806248D01*
X205105714Y-136733677D01*
X205033142Y-136661105D01*
X204960571Y-136515962D01*
X204960571Y-136370820D01*
X205033142Y-136225677D01*
X205105714Y-136153105D01*
X205250857Y-136080534D01*
X205541142Y-136007962D01*
X205686285Y-135935391D01*
X205758857Y-135862820D01*
X205831428Y-135717677D01*
X205831428Y-135572534D01*
X205758857Y-135427391D01*
X205686285Y-135354820D01*
X205541142Y-135282248D01*
X205178285Y-135282248D01*
X204960571Y-135354820D01*
X204452571Y-135282248D02*
X204089714Y-136806248D01*
X203799428Y-135717677D01*
X203509142Y-136806248D01*
X203146285Y-135282248D01*
X201477142Y-135209677D02*
X202783428Y-137169105D01*
X200243428Y-136806248D02*
X200969142Y-136806248D01*
X200969142Y-135282248D01*
X199880571Y-135282248D02*
X199517714Y-136806248D01*
X199227428Y-135717677D01*
X198937142Y-136806248D01*
X198574285Y-135282248D01*
D14*
X251013190Y-122023380D02*
X250801523Y-123023380D01*
X250589857Y-122023380D01*
X250136285Y-122975761D02*
X250196761Y-123023380D01*
X250317714Y-123023380D01*
X250378190Y-122975761D01*
X250408428Y-122880523D01*
X250408428Y-122499571D01*
X250378190Y-122404333D01*
X250317714Y-122356714D01*
X250196761Y-122356714D01*
X250136285Y-122404333D01*
X250106047Y-122499571D01*
X250106047Y-122594809D01*
X250408428Y-122690047D01*
X249833904Y-123023380D02*
X249833904Y-122356714D01*
X249833904Y-122547190D02*
X249803666Y-122451952D01*
X249773428Y-122404333D01*
X249712952Y-122356714D01*
X249652476Y-122356714D01*
X249471047Y-122975761D02*
X249410571Y-123023380D01*
X249289619Y-123023380D01*
X249229142Y-122975761D01*
X249198904Y-122880523D01*
X249198904Y-122832904D01*
X249229142Y-122737666D01*
X249289619Y-122690047D01*
X249380333Y-122690047D01*
X249440809Y-122642428D01*
X249471047Y-122547190D01*
X249471047Y-122499571D01*
X249440809Y-122404333D01*
X249380333Y-122356714D01*
X249289619Y-122356714D01*
X249229142Y-122404333D01*
X248926761Y-123023380D02*
X248926761Y-122356714D01*
X248926761Y-122023380D02*
X248957000Y-122071000D01*
X248926761Y-122118619D01*
X248896523Y-122071000D01*
X248926761Y-122023380D01*
X248926761Y-122118619D01*
X248533666Y-123023380D02*
X248594142Y-122975761D01*
X248624380Y-122928142D01*
X248654619Y-122832904D01*
X248654619Y-122547190D01*
X248624380Y-122451952D01*
X248594142Y-122404333D01*
X248533666Y-122356714D01*
X248442952Y-122356714D01*
X248382476Y-122404333D01*
X248352238Y-122451952D01*
X248322000Y-122547190D01*
X248322000Y-122832904D01*
X248352238Y-122928142D01*
X248382476Y-122975761D01*
X248442952Y-123023380D01*
X248533666Y-123023380D01*
X248049857Y-122356714D02*
X248049857Y-123023380D01*
X248049857Y-122451952D02*
X248019619Y-122404333D01*
X247959142Y-122356714D01*
X247868428Y-122356714D01*
X247807952Y-122404333D01*
X247777714Y-122499571D01*
X247777714Y-123023380D01*
X247021761Y-121975761D02*
X247566047Y-123261476D01*
X246447238Y-123023380D02*
X246658904Y-122547190D01*
X246810095Y-123023380D02*
X246810095Y-122023380D01*
X246568190Y-122023380D01*
X246507714Y-122071000D01*
X246477476Y-122118619D01*
X246447238Y-122213857D01*
X246447238Y-122356714D01*
X246477476Y-122451952D01*
X246507714Y-122499571D01*
X246568190Y-122547190D01*
X246810095Y-122547190D01*
X245933190Y-122975761D02*
X245993666Y-123023380D01*
X246114619Y-123023380D01*
X246175095Y-122975761D01*
X246205333Y-122880523D01*
X246205333Y-122499571D01*
X246175095Y-122404333D01*
X246114619Y-122356714D01*
X245993666Y-122356714D01*
X245933190Y-122404333D01*
X245902952Y-122499571D01*
X245902952Y-122594809D01*
X246205333Y-122690047D01*
X245691285Y-122356714D02*
X245540095Y-123023380D01*
X245388904Y-122356714D01*
X245177238Y-122975761D02*
X245116761Y-123023380D01*
X244995809Y-123023380D01*
X244935333Y-122975761D01*
X244905095Y-122880523D01*
X244905095Y-122832904D01*
X244935333Y-122737666D01*
X244995809Y-122690047D01*
X245086523Y-122690047D01*
X245147000Y-122642428D01*
X245177238Y-122547190D01*
X245177238Y-122499571D01*
X245147000Y-122404333D01*
X245086523Y-122356714D01*
X244995809Y-122356714D01*
X244935333Y-122404333D01*
X244632952Y-123023380D02*
X244632952Y-122356714D01*
X244632952Y-122023380D02*
X244663190Y-122071000D01*
X244632952Y-122118619D01*
X244602714Y-122071000D01*
X244632952Y-122023380D01*
X244632952Y-122118619D01*
X244239857Y-123023380D02*
X244300333Y-122975761D01*
X244330571Y-122928142D01*
X244360809Y-122832904D01*
X244360809Y-122547190D01*
X244330571Y-122451952D01*
X244300333Y-122404333D01*
X244239857Y-122356714D01*
X244149142Y-122356714D01*
X244088666Y-122404333D01*
X244058428Y-122451952D01*
X244028190Y-122547190D01*
X244028190Y-122832904D01*
X244058428Y-122928142D01*
X244088666Y-122975761D01*
X244149142Y-123023380D01*
X244239857Y-123023380D01*
X243756047Y-122356714D02*
X243756047Y-123023380D01*
X243756047Y-122451952D02*
X243725809Y-122404333D01*
X243665333Y-122356714D01*
X243574619Y-122356714D01*
X243514142Y-122404333D01*
X243483904Y-122499571D01*
X243483904Y-123023380D01*
X243181523Y-122928142D02*
X243151285Y-122975761D01*
X243181523Y-123023380D01*
X243211761Y-122975761D01*
X243181523Y-122928142D01*
X243181523Y-123023380D01*
X243181523Y-122404333D02*
X243151285Y-122451952D01*
X243181523Y-122499571D01*
X243211761Y-122451952D01*
X243181523Y-122404333D01*
X243181523Y-122499571D01*
X242486047Y-122023380D02*
X242274380Y-123023380D01*
X242062714Y-122023380D01*
X241518428Y-123023380D02*
X241881285Y-123023380D01*
X241699857Y-123023380D02*
X241699857Y-122023380D01*
X241760333Y-122166238D01*
X241820809Y-122261476D01*
X241881285Y-122309095D01*
X241246285Y-123023380D02*
X241246285Y-122023380D01*
X240611285Y-123023380D02*
X240974142Y-123023380D01*
X240792714Y-123023380D02*
X240792714Y-122023380D01*
X240853190Y-122166238D01*
X240913666Y-122261476D01*
X240974142Y-122309095D01*
X250526357Y-124801380D02*
X250738023Y-124325190D01*
X250889214Y-124801380D02*
X250889214Y-123801380D01*
X250647309Y-123801380D01*
X250586833Y-123849000D01*
X250556595Y-123896619D01*
X250526357Y-123991857D01*
X250526357Y-124134714D01*
X250556595Y-124229952D01*
X250586833Y-124277571D01*
X250647309Y-124325190D01*
X250889214Y-124325190D01*
X250012309Y-124753761D02*
X250072785Y-124801380D01*
X250193738Y-124801380D01*
X250254214Y-124753761D01*
X250284452Y-124658523D01*
X250284452Y-124277571D01*
X250254214Y-124182333D01*
X250193738Y-124134714D01*
X250072785Y-124134714D01*
X250012309Y-124182333D01*
X249982071Y-124277571D01*
X249982071Y-124372809D01*
X250284452Y-124468047D01*
X249619214Y-124801380D02*
X249679690Y-124753761D01*
X249709928Y-124658523D01*
X249709928Y-123801380D01*
X249135404Y-124753761D02*
X249195880Y-124801380D01*
X249316833Y-124801380D01*
X249377309Y-124753761D01*
X249407547Y-124658523D01*
X249407547Y-124277571D01*
X249377309Y-124182333D01*
X249316833Y-124134714D01*
X249195880Y-124134714D01*
X249135404Y-124182333D01*
X249105166Y-124277571D01*
X249105166Y-124372809D01*
X249407547Y-124468047D01*
X248560880Y-124801380D02*
X248560880Y-124277571D01*
X248591119Y-124182333D01*
X248651595Y-124134714D01*
X248772547Y-124134714D01*
X248833023Y-124182333D01*
X248560880Y-124753761D02*
X248621357Y-124801380D01*
X248772547Y-124801380D01*
X248833023Y-124753761D01*
X248863261Y-124658523D01*
X248863261Y-124563285D01*
X248833023Y-124468047D01*
X248772547Y-124420428D01*
X248621357Y-124420428D01*
X248560880Y-124372809D01*
X248288738Y-124753761D02*
X248228261Y-124801380D01*
X248107309Y-124801380D01*
X248046833Y-124753761D01*
X248016595Y-124658523D01*
X248016595Y-124610904D01*
X248046833Y-124515666D01*
X248107309Y-124468047D01*
X248198023Y-124468047D01*
X248258500Y-124420428D01*
X248288738Y-124325190D01*
X248288738Y-124277571D01*
X248258500Y-124182333D01*
X248198023Y-124134714D01*
X248107309Y-124134714D01*
X248046833Y-124182333D01*
X247502547Y-124753761D02*
X247563023Y-124801380D01*
X247683976Y-124801380D01*
X247744452Y-124753761D01*
X247774690Y-124658523D01*
X247774690Y-124277571D01*
X247744452Y-124182333D01*
X247683976Y-124134714D01*
X247563023Y-124134714D01*
X247502547Y-124182333D01*
X247472309Y-124277571D01*
X247472309Y-124372809D01*
X247774690Y-124468047D01*
X246928023Y-124801380D02*
X246928023Y-123801380D01*
X246928023Y-124753761D02*
X246988499Y-124801380D01*
X247109452Y-124801380D01*
X247169928Y-124753761D01*
X247200166Y-124706142D01*
X247230404Y-124610904D01*
X247230404Y-124325190D01*
X247200166Y-124229952D01*
X247169928Y-124182333D01*
X247109452Y-124134714D01*
X246988499Y-124134714D01*
X246928023Y-124182333D01*
X246141833Y-124801380D02*
X246141833Y-123801380D01*
X245990642Y-123801380D01*
X245899928Y-123849000D01*
X245839452Y-123944238D01*
X245809214Y-124039476D01*
X245778976Y-124229952D01*
X245778976Y-124372809D01*
X245809214Y-124563285D01*
X245839452Y-124658523D01*
X245899928Y-124753761D01*
X245990642Y-124801380D01*
X246141833Y-124801380D01*
X245234690Y-124801380D02*
X245234690Y-124277571D01*
X245264928Y-124182333D01*
X245325404Y-124134714D01*
X245446357Y-124134714D01*
X245506833Y-124182333D01*
X245234690Y-124753761D02*
X245295166Y-124801380D01*
X245446357Y-124801380D01*
X245506833Y-124753761D01*
X245537071Y-124658523D01*
X245537071Y-124563285D01*
X245506833Y-124468047D01*
X245446357Y-124420428D01*
X245295166Y-124420428D01*
X245234690Y-124372809D01*
X245023023Y-124134714D02*
X244781119Y-124134714D01*
X244932309Y-123801380D02*
X244932309Y-124658523D01*
X244902071Y-124753761D01*
X244841595Y-124801380D01*
X244781119Y-124801380D01*
X244327547Y-124753761D02*
X244388023Y-124801380D01*
X244508976Y-124801380D01*
X244569452Y-124753761D01*
X244599690Y-124658523D01*
X244599690Y-124277571D01*
X244569452Y-124182333D01*
X244508976Y-124134714D01*
X244388023Y-124134714D01*
X244327547Y-124182333D01*
X244297309Y-124277571D01*
X244297309Y-124372809D01*
X244599690Y-124468047D01*
X244025166Y-124706142D02*
X243994928Y-124753761D01*
X244025166Y-124801380D01*
X244055404Y-124753761D01*
X244025166Y-124706142D01*
X244025166Y-124801380D01*
X244025166Y-124182333D02*
X243994928Y-124229952D01*
X244025166Y-124277571D01*
X244055404Y-124229952D01*
X244025166Y-124182333D01*
X244025166Y-124277571D01*
X242906357Y-124801380D02*
X243269214Y-124801380D01*
X243087785Y-124801380D02*
X243087785Y-123801380D01*
X243148261Y-123944238D01*
X243208738Y-124039476D01*
X243269214Y-124087095D01*
X242301595Y-124801380D02*
X242664452Y-124801380D01*
X242483023Y-124801380D02*
X242483023Y-123801380D01*
X242543499Y-123944238D01*
X242603976Y-124039476D01*
X242664452Y-124087095D01*
X241575880Y-123753761D02*
X242120166Y-125039476D01*
X241031595Y-124801380D02*
X241394452Y-124801380D01*
X241213023Y-124801380D02*
X241213023Y-123801380D01*
X241273499Y-123944238D01*
X241333976Y-124039476D01*
X241394452Y-124087095D01*
X240426833Y-124801380D02*
X240789690Y-124801380D01*
X240608261Y-124801380D02*
X240608261Y-123801380D01*
X240668738Y-123944238D01*
X240729214Y-124039476D01*
X240789690Y-124087095D01*
X239701119Y-123753761D02*
X240245404Y-125039476D01*
X239519690Y-123896619D02*
X239489452Y-123849000D01*
X239428976Y-123801380D01*
X239277785Y-123801380D01*
X239217309Y-123849000D01*
X239187071Y-123896619D01*
X239156833Y-123991857D01*
X239156833Y-124087095D01*
X239187071Y-124229952D01*
X239549928Y-124801380D01*
X239156833Y-124801380D01*
X238763738Y-123801380D02*
X238703261Y-123801380D01*
X238642785Y-123849000D01*
X238612547Y-123896619D01*
X238582309Y-123991857D01*
X238552071Y-124182333D01*
X238552071Y-124420428D01*
X238582309Y-124610904D01*
X238612547Y-124706142D01*
X238642785Y-124753761D01*
X238703261Y-124801380D01*
X238763738Y-124801380D01*
X238824214Y-124753761D01*
X238854452Y-124706142D01*
X238884690Y-124610904D01*
X238914928Y-124420428D01*
X238914928Y-124182333D01*
X238884690Y-123991857D01*
X238854452Y-123896619D01*
X238824214Y-123849000D01*
X238763738Y-123801380D01*
X238310166Y-123896619D02*
X238279928Y-123849000D01*
X238219452Y-123801380D01*
X238068261Y-123801380D01*
X238007785Y-123849000D01*
X237977547Y-123896619D01*
X237947309Y-123991857D01*
X237947309Y-124087095D01*
X237977547Y-124229952D01*
X238340404Y-124801380D01*
X237947309Y-124801380D01*
X237705404Y-123896619D02*
X237675166Y-123849000D01*
X237614690Y-123801380D01*
X237463499Y-123801380D01*
X237403023Y-123849000D01*
X237372785Y-123896619D01*
X237342547Y-123991857D01*
X237342547Y-124087095D01*
X237372785Y-124229952D01*
X237735642Y-124801380D01*
X237342547Y-124801380D01*
%LPC*%
D15*
X186608534Y-176537466D03*
D16*
X189648000Y-120920000D03*
D17*
X189648000Y-122920000D03*
D15*
X254045534Y-176537466D03*
D18*
X198176000Y-111137000D03*
X205176000Y-111137000D03*
D19*
X199426000Y-108637000D03*
X203926000Y-108637000D03*
D15*
X186727000Y-109220000D03*
D20*
X252302944Y-169845056D03*
X256400000Y-168148000D03*
X252302944Y-166450944D03*
D21*
X254000000Y-168148000D03*
D20*
X254000000Y-170548000D03*
X255697056Y-166450944D03*
X251600000Y-168148000D03*
X254000000Y-165748000D03*
X255697056Y-169845056D03*
D22*
X184259800Y-163975300D03*
X184259800Y-172325300D03*
D23*
X187259800Y-165925300D03*
X187259800Y-170375300D03*
D24*
X205359000Y-157242000D03*
X235749000Y-157242000D03*
X205359000Y-128667000D03*
X235749000Y-128667000D03*
D15*
X254045534Y-109227466D03*
D25*
X217783450Y-177292000D03*
D26*
X220323450Y-177292000D03*
X222863450Y-177292000D03*
D18*
X242514000Y-111137000D03*
X235514000Y-111137000D03*
D19*
X236764000Y-108637000D03*
X241264000Y-108637000D03*
D25*
X254677000Y-141290800D03*
D26*
X252137000Y-141290800D03*
D27*
X243835000Y-118110000D03*
D28*
X246375000Y-118110000D03*
D25*
X214026100Y-127809958D03*
D26*
X216566100Y-127809958D03*
X219106100Y-127809958D03*
X221646100Y-127809958D03*
X224186100Y-127809958D03*
X226726100Y-127809958D03*
D29*
X238324500Y-178235500D03*
X243404500Y-178235500D03*
X248484500Y-178235500D03*
X238324500Y-170615500D03*
X243404500Y-170615500D03*
X248484500Y-170615500D03*
D30*
X230704500Y-178235500D03*
D29*
X230704500Y-170615500D03*
D18*
X223718000Y-111137000D03*
X216718000Y-111137000D03*
D19*
X217968000Y-108637000D03*
X222468000Y-108637000D03*
D25*
X255434000Y-129241200D03*
D26*
X255434000Y-126701200D03*
X255434000Y-124161200D03*
X255434000Y-121621200D03*
D31*
X205756000Y-173318000D03*
D32*
X207756000Y-173318000D03*
M02*
