%TF.GenerationSoftware,KiCad,Pcbnew,(6.0.7)*%
%TF.CreationDate,2022-11-10T16:47:27-05:00*%
%TF.ProjectId,_HW_HandyRadio_,5f48575f-4861-46e6-9479-526164696f5f,rev?*%
%TF.SameCoordinates,Original*%
%TF.FileFunction,Soldermask,Top*%
%TF.FilePolarity,Negative*%
%FSLAX46Y46*%
G04 Gerber Fmt 4.6, Leading zero omitted, Abs format (unit mm)*
G04 Created by KiCad (PCBNEW (6.0.7)) date 2022-11-10 16:47:27*
%MOMM*%
%LPD*%
G01*
G04 APERTURE LIST*
G04 Aperture macros list*
%AMRoundRect*
0 Rectangle with rounded corners*
0 $1 Rounding radius*
0 $2 $3 $4 $5 $6 $7 $8 $9 X,Y pos of 4 corners*
0 Add a 4 corners polygon primitive as box body*
4,1,4,$2,$3,$4,$5,$6,$7,$8,$9,$2,$3,0*
0 Add four circle primitives for the rounded corners*
1,1,$1+$1,$2,$3*
1,1,$1+$1,$4,$5*
1,1,$1+$1,$6,$7*
1,1,$1+$1,$8,$9*
0 Add four rect primitives between the rounded corners*
20,1,$1+$1,$2,$3,$4,$5,0*
20,1,$1+$1,$4,$5,$6,$7,0*
20,1,$1+$1,$6,$7,$8,$9,0*
20,1,$1+$1,$8,$9,$2,$3,0*%
G04 Aperture macros list end*
%ADD10RoundRect,0.150000X-0.150000X0.512500X-0.150000X-0.512500X0.150000X-0.512500X0.150000X0.512500X0*%
%ADD11C,3.200000*%
%ADD12RoundRect,0.250000X-0.625000X0.350000X-0.625000X-0.350000X0.625000X-0.350000X0.625000X0.350000X0*%
%ADD13O,1.750000X1.200000*%
%ADD14RoundRect,0.250000X0.337500X0.475000X-0.337500X0.475000X-0.337500X-0.475000X0.337500X-0.475000X0*%
%ADD15RoundRect,0.250000X-0.337500X-0.475000X0.337500X-0.475000X0.337500X0.475000X-0.337500X0.475000X0*%
%ADD16C,1.500000*%
%ADD17R,1.500000X0.400000*%
%ADD18RoundRect,0.250000X0.350000X0.450000X-0.350000X0.450000X-0.350000X-0.450000X0.350000X-0.450000X0*%
%ADD19RoundRect,0.150000X0.675000X0.150000X-0.675000X0.150000X-0.675000X-0.150000X0.675000X-0.150000X0*%
%ADD20R,2.650000X3.000000*%
%ADD21RoundRect,0.250000X-0.350000X-0.450000X0.350000X-0.450000X0.350000X0.450000X-0.350000X0.450000X0*%
%ADD22R,1.200000X0.400000*%
%ADD23RoundRect,0.150000X-0.587500X-0.150000X0.587500X-0.150000X0.587500X0.150000X-0.587500X0.150000X0*%
%ADD24R,1.200000X1.200000*%
%ADD25R,1.600000X1.500000*%
%ADD26RoundRect,0.237500X0.287500X0.237500X-0.287500X0.237500X-0.287500X-0.237500X0.287500X-0.237500X0*%
%ADD27C,2.200000*%
%ADD28C,1.700000*%
%ADD29R,0.700000X0.340000*%
%ADD30RoundRect,0.100000X-0.100000X0.712500X-0.100000X-0.712500X0.100000X-0.712500X0.100000X0.712500X0*%
%ADD31RoundRect,0.250000X0.400000X0.275000X-0.400000X0.275000X-0.400000X-0.275000X0.400000X-0.275000X0*%
%ADD32C,0.800000*%
%ADD33C,6.400000*%
%ADD34RoundRect,0.160000X0.160000X-0.222500X0.160000X0.222500X-0.160000X0.222500X-0.160000X-0.222500X0*%
%ADD35R,1.350000X0.400000*%
%ADD36R,1.900000X0.875000*%
%ADD37O,1.900000X1.000000*%
%ADD38O,1.250000X1.050000*%
%ADD39R,1.900000X2.900000*%
%ADD40C,4.400000*%
%ADD41RoundRect,0.250000X-0.275000X-0.350000X0.275000X-0.350000X0.275000X0.350000X-0.275000X0.350000X0*%
%ADD42R,1.700000X1.700000*%
%ADD43O,1.700000X1.700000*%
%ADD44R,3.600000X1.500000*%
%ADD45R,1.560000X0.650000*%
%ADD46RoundRect,0.150000X-0.825000X-0.150000X0.825000X-0.150000X0.825000X0.150000X-0.825000X0.150000X0*%
%ADD47R,1.800000X1.800000*%
%ADD48C,1.800000*%
%ADD49RoundRect,0.150000X0.150000X-0.825000X0.150000X0.825000X-0.150000X0.825000X-0.150000X-0.825000X0*%
%ADD50C,1.600000*%
%ADD51R,1.800000X1.600000*%
%ADD52RoundRect,0.237500X-0.287500X-0.237500X0.287500X-0.237500X0.287500X0.237500X-0.287500X0.237500X0*%
%ADD53RoundRect,0.250000X-0.350000X-0.625000X0.350000X-0.625000X0.350000X0.625000X-0.350000X0.625000X0*%
%ADD54O,1.200000X1.750000*%
%ADD55R,1.100000X1.100000*%
G04 APERTURE END LIST*
D10*
X192884000Y-162708500D03*
X191934000Y-162708500D03*
X190984000Y-162708500D03*
X190984000Y-164983500D03*
X192884000Y-164983500D03*
D11*
X186608534Y-176537466D03*
D12*
X189648000Y-120920000D03*
D13*
X189648000Y-122920000D03*
D14*
X187140608Y-130487258D03*
X185065608Y-130487258D03*
D15*
X200040500Y-163465000D03*
X202115500Y-163465000D03*
D14*
X209313979Y-118489363D03*
X207238979Y-118489363D03*
D16*
X201586000Y-115967000D03*
D17*
X200383000Y-118873000D03*
X200383000Y-119523000D03*
X200383000Y-120173000D03*
X203043000Y-120173000D03*
X203043000Y-118873000D03*
D15*
X239791500Y-163084000D03*
X241866500Y-163084000D03*
D14*
X221292500Y-136160000D03*
X219217500Y-136160000D03*
D18*
X240203400Y-115154200D03*
X238203400Y-115154200D03*
D16*
X204126000Y-115967000D03*
D14*
X192971500Y-167656000D03*
X190896500Y-167656000D03*
X254185500Y-153305000D03*
X252110500Y-153305000D03*
D19*
X195194000Y-131826000D03*
X195194000Y-130556000D03*
X195194000Y-129286000D03*
X195194000Y-128016000D03*
X189944000Y-128016000D03*
X189944000Y-129286000D03*
X189944000Y-130556000D03*
X189944000Y-131826000D03*
D20*
X192569000Y-129921000D03*
D14*
X212783500Y-155210000D03*
X210708500Y-155210000D03*
D18*
X198007249Y-153029791D03*
X196007249Y-153029791D03*
D21*
X195252000Y-115103400D03*
X197252000Y-115103400D03*
D11*
X254045534Y-176537466D03*
D22*
X249271000Y-158702500D03*
X249271000Y-158067500D03*
X249271000Y-157432500D03*
X249271000Y-156797500D03*
X249271000Y-156162500D03*
X249271000Y-155527500D03*
X249271000Y-154892500D03*
X249271000Y-154257500D03*
X249271000Y-153622500D03*
X249271000Y-152987500D03*
X249271000Y-152352500D03*
X249271000Y-151717500D03*
X244071000Y-151717500D03*
X244071000Y-152352500D03*
X244071000Y-152987500D03*
X244071000Y-153622500D03*
X244071000Y-154257500D03*
X244071000Y-154892500D03*
X244071000Y-155527500D03*
X244071000Y-156162500D03*
X244071000Y-156797500D03*
X244071000Y-157432500D03*
X244071000Y-158067500D03*
X244071000Y-158702500D03*
D15*
X216296500Y-166132000D03*
X218371500Y-166132000D03*
D16*
X214032000Y-177816000D03*
D15*
X198262500Y-137049000D03*
X200337500Y-137049000D03*
X229250500Y-153178000D03*
X231325500Y-153178000D03*
X210798500Y-157988000D03*
X212873500Y-157988000D03*
X200040500Y-165751000D03*
X202115500Y-165751000D03*
D23*
X225345373Y-165582438D03*
X225345373Y-167482438D03*
X227220373Y-166532438D03*
D14*
X221292500Y-133874000D03*
X219217500Y-133874000D03*
D16*
X244816800Y-145405600D03*
D21*
X190934000Y-160036000D03*
X192934000Y-160036000D03*
D15*
X198262500Y-130318000D03*
X200337500Y-130318000D03*
D24*
X201697000Y-149675500D03*
D25*
X200697000Y-152925500D03*
D24*
X199697000Y-149675500D03*
D18*
X255418000Y-115967000D03*
X253418000Y-115967000D03*
D15*
X216296500Y-168418000D03*
X218371500Y-168418000D03*
D21*
X234204000Y-141494000D03*
X236204000Y-141494000D03*
D14*
X209317500Y-122936000D03*
X207242500Y-122936000D03*
D15*
X198262500Y-134890000D03*
X200337500Y-134890000D03*
D21*
X219382000Y-153178000D03*
X221382000Y-153178000D03*
D26*
X254023000Y-149257000D03*
X252273000Y-149257000D03*
D27*
X198176000Y-111137000D03*
X205176000Y-111137000D03*
D28*
X199426000Y-108637000D03*
X203926000Y-108637000D03*
D14*
X243386611Y-166572327D03*
X241311611Y-166572327D03*
D15*
X229250500Y-151019000D03*
X231325500Y-151019000D03*
D11*
X186727000Y-109220000D03*
D29*
X246138000Y-162568000D03*
X246138000Y-163068000D03*
X246138000Y-163568000D03*
X247638000Y-163568000D03*
X247638000Y-163068000D03*
X247638000Y-162568000D03*
D16*
X219620000Y-120666000D03*
D21*
X234220000Y-137160000D03*
X236220000Y-137160000D03*
D14*
X187140608Y-128324292D03*
X185065608Y-128324292D03*
D21*
X216916000Y-122936000D03*
X218916000Y-122936000D03*
D15*
X195969749Y-155313208D03*
X198044749Y-155313208D03*
X246776500Y-137176000D03*
X248851500Y-137176000D03*
D18*
X232304000Y-120666000D03*
X230304000Y-120666000D03*
X248814000Y-135017000D03*
X246814000Y-135017000D03*
D15*
X191023500Y-136922000D03*
X193098500Y-136922000D03*
X198262500Y-128032000D03*
X200337500Y-128032000D03*
D21*
X221504000Y-122936000D03*
X223504000Y-122936000D03*
D14*
X209313979Y-116280929D03*
X207238979Y-116280929D03*
X187129500Y-134874591D03*
X185054500Y-134874591D03*
D30*
X207731000Y-163257500D03*
X207081000Y-163257500D03*
X206431000Y-163257500D03*
X205781000Y-163257500D03*
X205781000Y-167482500D03*
X206431000Y-167482500D03*
X207081000Y-167482500D03*
X207731000Y-167482500D03*
D16*
X201205000Y-140605000D03*
D14*
X236278500Y-120666000D03*
X234203500Y-120666000D03*
D31*
X186903000Y-150876000D03*
X184953000Y-150876000D03*
D15*
X239791500Y-160925000D03*
X241866500Y-160925000D03*
D18*
X232304000Y-134991600D03*
X230304000Y-134991600D03*
D32*
X252302944Y-169845056D03*
X256400000Y-168148000D03*
X252302944Y-166450944D03*
D33*
X254000000Y-168148000D03*
D32*
X254000000Y-170548000D03*
X255697056Y-166450944D03*
X251600000Y-168148000D03*
X254000000Y-165748000D03*
X255697056Y-169845056D03*
D16*
X192823000Y-125746000D03*
D34*
X252115148Y-156306500D03*
X252115148Y-155161500D03*
D14*
X192463500Y-153051000D03*
X190388500Y-153051000D03*
D16*
X196125000Y-139335000D03*
D14*
X236278500Y-134991600D03*
X234203500Y-134991600D03*
D35*
X186934800Y-169450300D03*
X186934800Y-168800300D03*
X186934800Y-168150300D03*
X186934800Y-167500300D03*
X186934800Y-166850300D03*
D36*
X184259800Y-171887800D03*
D37*
X184259800Y-163975300D03*
D36*
X184259800Y-164412800D03*
D37*
X184259800Y-172325300D03*
D38*
X187259800Y-165925300D03*
D39*
X184259800Y-168150300D03*
D38*
X187259800Y-170375300D03*
D40*
X205359000Y-157242000D03*
X235749000Y-157242000D03*
X205359000Y-128667000D03*
X235749000Y-128667000D03*
D14*
X222435500Y-166132000D03*
X220360500Y-166132000D03*
D41*
X245851200Y-166589200D03*
X248151200Y-166589200D03*
D18*
X198014000Y-174641000D03*
X196014000Y-174641000D03*
D16*
X244816800Y-142865600D03*
D18*
X213000000Y-161560000D03*
X211000000Y-161560000D03*
D14*
X209335353Y-113892741D03*
X207260353Y-113892741D03*
D18*
X186965000Y-160036000D03*
X184965000Y-160036000D03*
D15*
X216296500Y-170704000D03*
X218371500Y-170704000D03*
D11*
X254045534Y-109227466D03*
D42*
X217783450Y-177292000D03*
D43*
X220323450Y-177292000D03*
X222863450Y-177292000D03*
D15*
X234203500Y-148941425D03*
X236278500Y-148941425D03*
D31*
X231644000Y-164481000D03*
X229694000Y-164481000D03*
D27*
X242514000Y-111137000D03*
X235514000Y-111137000D03*
D28*
X236764000Y-108637000D03*
X241264000Y-108637000D03*
D44*
X186436000Y-147321000D03*
X186436000Y-144271000D03*
D15*
X234163625Y-163042687D03*
X236238625Y-163042687D03*
D14*
X227605500Y-120666000D03*
X225530500Y-120666000D03*
D15*
X234203500Y-153178000D03*
X236278500Y-153178000D03*
D14*
X209326969Y-120666000D03*
X207251969Y-120666000D03*
D21*
X196004080Y-157623000D03*
X198004080Y-157623000D03*
D15*
X216296500Y-163846000D03*
X218371500Y-163846000D03*
D21*
X190934000Y-171974000D03*
X192934000Y-171974000D03*
D16*
X214032000Y-175276000D03*
D15*
X250193814Y-162195000D03*
X252268814Y-162195000D03*
X184890500Y-155337000D03*
X186965500Y-155337000D03*
D16*
X225462000Y-163592000D03*
D21*
X250878000Y-135017000D03*
X252878000Y-135017000D03*
D42*
X254677000Y-141290800D03*
D43*
X252137000Y-141290800D03*
D15*
X252110500Y-144948400D03*
X254185500Y-144948400D03*
D45*
X190584000Y-155530000D03*
X190584000Y-156480000D03*
X190584000Y-157430000D03*
X193284000Y-157430000D03*
X193284000Y-156480000D03*
X193284000Y-155530000D03*
D15*
X220450500Y-172990000D03*
X222525500Y-172990000D03*
D31*
X231172333Y-148939416D03*
X229222333Y-148939416D03*
D14*
X200337500Y-125746000D03*
X198262500Y-125746000D03*
D21*
X207444000Y-149241000D03*
X209444000Y-149241000D03*
D14*
X209481500Y-147082000D03*
X207406500Y-147082000D03*
D16*
X196125000Y-141875000D03*
D46*
X217997000Y-141986000D03*
X217997000Y-143256000D03*
X217997000Y-144526000D03*
X217997000Y-145796000D03*
X217997000Y-147066000D03*
X217997000Y-148336000D03*
X217997000Y-149606000D03*
X222947000Y-149606000D03*
X222947000Y-148336000D03*
X222947000Y-147066000D03*
X222947000Y-145796000D03*
X222947000Y-144526000D03*
X222947000Y-143256000D03*
X222947000Y-141986000D03*
D14*
X221292500Y-138446000D03*
X219217500Y-138446000D03*
X252915500Y-137176000D03*
X250840500Y-137176000D03*
D16*
X217080000Y-120666000D03*
D18*
X221382000Y-158004000D03*
X219382000Y-158004000D03*
D15*
X229605458Y-162316541D03*
X231680458Y-162316541D03*
D16*
X222160000Y-120666000D03*
D14*
X202115500Y-170323000D03*
X200040500Y-170323000D03*
D18*
X221382000Y-155210000D03*
X219382000Y-155210000D03*
D16*
X195363000Y-125746000D03*
D21*
X234172061Y-145812000D03*
X236172061Y-145812000D03*
D15*
X200040500Y-168037000D03*
X202115500Y-168037000D03*
D14*
X216847500Y-158004000D03*
X214772500Y-158004000D03*
D15*
X234203500Y-151019000D03*
X236278500Y-151019000D03*
D16*
X201205000Y-145685000D03*
D21*
X196014000Y-172482000D03*
X198014000Y-172482000D03*
D14*
X236278500Y-122952000D03*
X234203500Y-122952000D03*
D15*
X195214500Y-122925037D03*
X197289500Y-122925037D03*
D14*
X254185500Y-151162000D03*
X252110500Y-151162000D03*
D18*
X198014000Y-160036000D03*
X196014000Y-160036000D03*
D47*
X243835000Y-118110000D03*
D48*
X246375000Y-118110000D03*
D18*
X221407400Y-115128800D03*
X219407400Y-115128800D03*
D21*
X230304000Y-122952000D03*
X232304000Y-122952000D03*
X239448000Y-137150600D03*
X241448000Y-137150600D03*
X191051425Y-134879943D03*
X193051425Y-134879943D03*
D15*
X185054500Y-132692139D03*
X187129500Y-132692139D03*
D16*
X222922000Y-163592000D03*
D21*
X220501926Y-170716990D03*
X222501926Y-170716990D03*
D18*
X209407000Y-142764000D03*
X207407000Y-142764000D03*
D15*
X191023500Y-141224000D03*
X193098500Y-141224000D03*
D42*
X214026100Y-127809958D03*
D43*
X216566100Y-127809958D03*
X219106100Y-127809958D03*
X221646100Y-127809958D03*
X224186100Y-127809958D03*
X226726100Y-127809958D03*
D15*
X195214500Y-118462702D03*
X197289500Y-118462702D03*
D21*
X196014000Y-150892000D03*
X198014000Y-150892000D03*
D15*
X234163625Y-166513000D03*
X236238625Y-166513000D03*
D16*
X197115600Y-163592000D03*
D15*
X207369500Y-144907000D03*
X209444500Y-144907000D03*
D21*
X238254200Y-122926600D03*
X240254200Y-122926600D03*
D49*
X190156000Y-149430000D03*
X191426000Y-149430000D03*
X192696000Y-149430000D03*
X193966000Y-149430000D03*
X193966000Y-144480000D03*
X192696000Y-144480000D03*
X191426000Y-144480000D03*
X190156000Y-144480000D03*
D21*
X234188000Y-143653000D03*
X236188000Y-143653000D03*
D14*
X227605500Y-122936000D03*
X225530500Y-122936000D03*
D15*
X252110500Y-147132800D03*
X254185500Y-147132800D03*
D50*
X238324500Y-178235500D03*
X243404500Y-178235500D03*
X248484500Y-178235500D03*
X238324500Y-170615500D03*
X243404500Y-170615500D03*
X248484500Y-170615500D03*
D51*
X230704500Y-178235500D03*
D50*
X230704500Y-170615500D03*
D14*
X193098500Y-138954000D03*
X191023500Y-138954000D03*
X192971500Y-169815000D03*
X190896500Y-169815000D03*
D52*
X252273000Y-160163000D03*
X254023000Y-160163000D03*
D27*
X223718000Y-111137000D03*
X216718000Y-111137000D03*
D28*
X217968000Y-108637000D03*
X222468000Y-108637000D03*
D31*
X187067000Y-138954000D03*
X185117000Y-138954000D03*
D21*
X216334000Y-172990000D03*
X218334000Y-172990000D03*
D42*
X255434000Y-129241200D03*
D43*
X255434000Y-126701200D03*
X255434000Y-124161200D03*
X255434000Y-121621200D03*
D15*
X198262500Y-132604000D03*
X200337500Y-132604000D03*
X184890500Y-153051000D03*
X186965500Y-153051000D03*
D31*
X187086486Y-136922000D03*
X185136486Y-136922000D03*
D53*
X205756000Y-173318000D03*
D54*
X207756000Y-173318000D03*
D15*
X195208384Y-120666000D03*
X197283384Y-120666000D03*
D18*
X236220000Y-139335000D03*
X234220000Y-139335000D03*
D55*
X187836000Y-141224000D03*
X185036000Y-141224000D03*
D16*
X201205000Y-143145000D03*
D31*
X231644000Y-166513000D03*
X229694000Y-166513000D03*
D21*
X200689926Y-122926018D03*
X202689926Y-122926018D03*
D16*
X197115600Y-166132000D03*
X197115600Y-168672000D03*
D21*
X212360000Y-122936000D03*
X214360000Y-122936000D03*
D14*
X254185500Y-158147000D03*
X252110500Y-158147000D03*
D15*
X184927500Y-157623000D03*
X187002500Y-157623000D03*
M02*
