%TF.GenerationSoftware,KiCad,Pcbnew,(6.0.7)*%
%TF.CreationDate,2022-11-10T16:47:27-05:00*%
%TF.ProjectId,_HW_HandyRadio_,5f48575f-4861-46e6-9479-526164696f5f,rev?*%
%TF.SameCoordinates,Original*%
%TF.FileFunction,Soldermask,Bot*%
%TF.FilePolarity,Negative*%
%FSLAX46Y46*%
G04 Gerber Fmt 4.6, Leading zero omitted, Abs format (unit mm)*
G04 Created by KiCad (PCBNEW (6.0.7)) date 2022-11-10 16:47:27*
%MOMM*%
%LPD*%
G01*
G04 APERTURE LIST*
G04 Aperture macros list*
%AMRoundRect*
0 Rectangle with rounded corners*
0 $1 Rounding radius*
0 $2 $3 $4 $5 $6 $7 $8 $9 X,Y pos of 4 corners*
0 Add a 4 corners polygon primitive as box body*
4,1,4,$2,$3,$4,$5,$6,$7,$8,$9,$2,$3,0*
0 Add four circle primitives for the rounded corners*
1,1,$1+$1,$2,$3*
1,1,$1+$1,$4,$5*
1,1,$1+$1,$6,$7*
1,1,$1+$1,$8,$9*
0 Add four rect primitives between the rounded corners*
20,1,$1+$1,$2,$3,$4,$5,0*
20,1,$1+$1,$4,$5,$6,$7,0*
20,1,$1+$1,$6,$7,$8,$9,0*
20,1,$1+$1,$8,$9,$2,$3,0*%
G04 Aperture macros list end*
%ADD10C,3.200000*%
%ADD11RoundRect,0.250000X-0.625000X0.350000X-0.625000X-0.350000X0.625000X-0.350000X0.625000X0.350000X0*%
%ADD12O,1.750000X1.200000*%
%ADD13C,2.200000*%
%ADD14C,1.700000*%
%ADD15C,0.800000*%
%ADD16C,6.400000*%
%ADD17O,1.900000X1.000000*%
%ADD18O,1.250000X1.050000*%
%ADD19C,4.400000*%
%ADD20R,1.700000X1.700000*%
%ADD21O,1.700000X1.700000*%
%ADD22R,1.800000X1.800000*%
%ADD23C,1.800000*%
%ADD24C,1.600000*%
%ADD25R,1.800000X1.600000*%
%ADD26RoundRect,0.250000X-0.350000X-0.625000X0.350000X-0.625000X0.350000X0.625000X-0.350000X0.625000X0*%
%ADD27O,1.200000X1.750000*%
G04 APERTURE END LIST*
D10*
X186608534Y-176537466D03*
D11*
X189648000Y-120920000D03*
D12*
X189648000Y-122920000D03*
D10*
X254045534Y-176537466D03*
D13*
X198176000Y-111137000D03*
X205176000Y-111137000D03*
D14*
X199426000Y-108637000D03*
X203926000Y-108637000D03*
D10*
X186727000Y-109220000D03*
D15*
X252302944Y-169845056D03*
X256400000Y-168148000D03*
X252302944Y-166450944D03*
D16*
X254000000Y-168148000D03*
D15*
X254000000Y-170548000D03*
X255697056Y-166450944D03*
X251600000Y-168148000D03*
X254000000Y-165748000D03*
X255697056Y-169845056D03*
D17*
X184259800Y-163975300D03*
X184259800Y-172325300D03*
D18*
X187259800Y-165925300D03*
X187259800Y-170375300D03*
D19*
X205359000Y-157242000D03*
X235749000Y-157242000D03*
X205359000Y-128667000D03*
X235749000Y-128667000D03*
D10*
X254045534Y-109227466D03*
D20*
X217783450Y-177292000D03*
D21*
X220323450Y-177292000D03*
X222863450Y-177292000D03*
D13*
X242514000Y-111137000D03*
X235514000Y-111137000D03*
D14*
X236764000Y-108637000D03*
X241264000Y-108637000D03*
D20*
X254677000Y-141290800D03*
D21*
X252137000Y-141290800D03*
D22*
X243835000Y-118110000D03*
D23*
X246375000Y-118110000D03*
D20*
X214026100Y-127809958D03*
D21*
X216566100Y-127809958D03*
X219106100Y-127809958D03*
X221646100Y-127809958D03*
X224186100Y-127809958D03*
X226726100Y-127809958D03*
D24*
X238324500Y-178235500D03*
X243404500Y-178235500D03*
X248484500Y-178235500D03*
X238324500Y-170615500D03*
X243404500Y-170615500D03*
X248484500Y-170615500D03*
D25*
X230704500Y-178235500D03*
D24*
X230704500Y-170615500D03*
D13*
X223718000Y-111137000D03*
X216718000Y-111137000D03*
D14*
X217968000Y-108637000D03*
X222468000Y-108637000D03*
D20*
X255434000Y-129241200D03*
D21*
X255434000Y-126701200D03*
X255434000Y-124161200D03*
X255434000Y-121621200D03*
D26*
X205756000Y-173318000D03*
D27*
X207756000Y-173318000D03*
M02*
